<svg version="1.1" viewBox="0.0 0.0 960.0 540.0" fill="none" stroke="none" stroke-linecap="square" stroke-miterlimit="10" xmlns:xlink="http://www.w3.org/1999/xlink" xmlns="http://www.w3.org/2000/svg"><clipPath id="p.0"><path d="m0 0l960.0 0l0 540.0l-960.0 0l0 -540.0z" clip-rule="nonzero"/></clipPath><g clip-path="url(#p.0)"><path fill="#ffffff" d="m0 0l960.0 0l0 540.0l-960.0 0z" fill-rule="evenodd"/><path fill="#000000" fill-opacity="0.0" d="m32.725285 162.25197l894.5512 0l0 215.49605l-894.5512 0z" fill-rule="evenodd"/><path fill="#000000" d="m222.84375 382.07617q-7.34375 0 -13.34375 -4.5q-6.0 -4.5 -6.0 -14.828125q0 -10.0 6.171875 -18.5q6.171875 -8.5 15.828125 -15.671875q9.671875 -7.15625 21.171875 -13.15625q11.5 -6.0 21.828125 -11.34375q4.671875 -11.65625 8.828125 -25.15625q4.171875 -13.5 8.171875 -29.843765q-12.65625 18.343765 -26.5 30.51564q-13.828125 12.15625 -27.828125 12.15625q-12.0 0 -18.5 -9.0q-6.5 -9.0 -6.5 -23.328125q0 -17.343765 8.5 -33.000015q8.5 -15.671875 22.15625 -27.671875q13.671875 -12.0 29.0 -18.828125q15.34375 -6.84375 28.671875 -6.84375q9.671875 0 13.828125 3.171875q4.171875 3.171875 4.171875 7.5q0 3.0 -1.671875 4.671875q-1.65625 1.65625 -2.328125 2.0q-1.65625 -2.671875 -5.0 -3.828125q-3.328125 -1.171875 -8.328125 -1.171875q-13.0 0 -25.171875 7.671875q-12.15625 7.65625 -21.5 19.65625q-9.328125 12.0 -14.828125 24.84375q-5.5 12.828125 -5.5 23.48439q0 8.0 3.15625 12.171875q3.171875 4.171875 8.515625 4.171875q9.65625 0 23.15625 -12.828125q13.5 -12.843765 26.171875 -31.17189q1.0 -4.671875 1.828125 -8.328125q0.84375 -3.671875 2.171875 -9.34375q1.0 -4.671875 4.828125 -10.828125q3.84375 -6.171875 12.171875 -6.171875q1.671875 0 3.328125 0.171875q1.671875 0.15625 3.671875 0.828125q0 5.328125 -3.171875 19.5q-3.15625 14.171875 -9.0 33.0q-5.828125 18.82814 -13.5 38.82814q11.0 -5.328125 21.5 -13.65625q10.5 -8.34375 19.171875 -19.171875q8.671875 -10.82814 13.671875 -23.500015l4.328125 3.328125q-5.0 15.0 -16.0 27.343765q-11.0 12.328125 -23.5 21.328125q-12.5 9.0 -22.828125 14.0q-9.34375 22.328125 -19.671875 40.828125q-10.328125 18.5 -21.5 29.5q-11.171875 11.0 -23.828125 11.0zm-1.0 -10.65625q6.65625 0 18.15625 -13.171875q11.5 -13.171875 24.84375 -45.171875q-13.34375 6.671875 -24.84375 13.828125q-11.5 7.171875 -18.828125 15.171875q-7.328125 8.0 -7.328125 17.671875q0 5.328125 2.328125 8.5q2.328125 3.171875 5.671875 3.171875zm140.99274 -72.0q-14.328125 0 -20.328125 -8.84375q-6.0 -8.828125 -6.0 -21.5q0 -10.328125 3.328125 -21.32814q3.328125 -11.0 8.828125 -20.65625q5.5 -9.671875 12.328125 -15.671875q6.84375 -6.0 13.84375 -6.0q1.671875 0 3.5 0.5q1.828125 0.5 3.5 1.15625q-3.0 2.671875 -7.171875 9.84375q-4.15625 7.15625 -7.828125 16.328125q-3.671875 9.171875 -6.171875 18.171875q-2.5 9.000015 -2.5 15.32814q0 10.0 3.328125 14.5q3.34375 4.5 8.671875 4.5q7.0 0 16.671875 -7.5q9.671875 -7.5 19.0 -19.171875q-9.328125 -7.6562653 -14.5 -20.156265q-5.171875 -12.5 -5.171875 -25.5q0 -11.0 3.828125 -20.671875q3.84375 -9.671875 11.171875 -15.5q7.34375 -5.828125 17.671875 -5.828125q13.671875 0 18.328125 7.328125q4.671875 7.328125 4.671875 18.328125q0 13.0 -6.34375 28.84375q-6.328125 15.828125 -15.984375 30.500015q6.0 3.328125 12.65625 3.328125q5.34375 0 12.0 -2.15625q6.671875 -2.1718903 13.171875 -7.5000153q6.5 -5.34375 10.5 -14.34375l4.0 3.328125q-6.671875 15.671875 -18.84375 22.17189q-12.15625 6.5 -23.15625 6.5q-4.328125 0 -8.328125 -0.828125q-4.0 -0.84375 -7.671875 -2.5q-11.328125 15.0 -24.828125 25.0q-13.5 10.0 -26.171875 10.0zm49.0 -49.000015q8.328125 -12.34375 13.828125 -25.84375q5.5 -13.5 5.5 -25.5q0 -9.65625 -2.828125 -14.15625q-2.828125 -4.5 -7.171875 -4.5q-6.65625 0 -13.65625 9.671875q-7.0 9.65625 -7.0 24.328125q0 9.65625 2.828125 19.5q2.828125 9.828125 8.5 16.5zm62.33658 131.65627q-7.34375 0 -13.34375 -4.5q-6.0 -4.5 -6.0 -14.828125q0 -10.0 6.171875 -18.5q6.171875 -8.5 15.828125 -15.671875q9.671875 -7.15625 21.171875 -13.15625q11.5 -6.0 21.828156 -11.34375q4.671875 -11.65625 8.828125 -25.15625q4.171875 -13.5 8.171875 -29.843765q-12.65625 18.343765 -26.50003 30.51564q-13.828125 12.15625 -27.828125 12.15625q-12.0 0 -18.5 -9.0q-6.5 -9.0 -6.5 -23.328125q0 -17.343765 8.5 -33.000015q8.5 -15.671875 22.15625 -27.671875q13.671875 -12.0 29.00003 -18.828125q15.34375 -6.84375 28.671814 -6.84375q9.671875 0 13.828125 3.171875q4.171875 3.171875 4.171875 7.5q0 3.0 -1.671875 4.671875q-1.65625 1.65625 -2.328125 2.0q-1.65625 -2.671875 -5.0 -3.828125q-3.328125 -1.171875 -8.328125 -1.171875q-12.999939 0 -25.171814 7.671875q-12.1562805 7.65625 -21.50003 19.65625q-9.328125 12.0 -14.828125 24.84375q-5.5 12.828125 -5.5 23.48439q0 8.0 3.15625 12.171875q3.171875 4.171875 8.515625 4.171875q9.65625 0 23.15628 -12.828125q13.5 -12.843765 26.171875 -31.17189q1.0 -4.671875 1.828125 -8.328125q0.84375 -3.671875 2.171875 -9.34375q0.99993896 -4.671875 4.828064 -10.828125q3.84375 -6.171875 12.171875 -6.171875q1.671875 0 3.328125 0.171875q1.671875 0.15625 3.671875 0.828125q0 5.328125 -3.171875 19.5q-3.15625 14.171875 -9.0 33.0q-5.828125 18.82814 -13.499939 38.82814q10.999939 -5.328125 21.499939 -13.65625q10.5 -8.34375 19.171875 -19.171875q8.671875 -10.82814 13.671875 -23.500015l4.328125 3.328125q-5.0 15.0 -16.0 27.343765q-11.0 12.328125 -23.5 21.328125q-12.5 9.0 -22.828064 14.0q-9.34375 22.328125 -19.671875 40.828125q-10.3281555 18.5 -21.50003 29.5q-11.171875 11.0 -23.828125 11.0zm-1.0 -10.65625q6.65625 0 18.15625 -13.171875q11.5 -13.171875 24.84378 -45.171875q-13.3437805 6.671875 -24.84378 13.828125q-11.5 7.171875 -18.828125 15.171875q-7.328125 8.0 -7.328125 17.671875q0 5.328125 2.328125 8.5q2.328125 3.171875 5.671875 3.171875zm133.66458 -70.0q-6.34375 0 -10.015625 -10.671875q-3.65625 -10.671875 -3.65625 -24.0q0 -16.000015 5.328125 -38.000015q5.34375 -22.0 14.0 -46.328125q8.671875 -24.34375 19.5 -47.671875q10.84375 -23.328125 22.171875 -42.328125q11.328125 -19.0 21.328125 -30.328125q10.0 -11.34375 17.34375 -11.34375q6.0 0 8.5 7.171875q2.5 7.171875 2.5 13.828125q0 9.34375 -4.171875 22.671875q-4.171875 13.328125 -11.5 28.5q-7.328125 15.15625 -17.0 29.828125q-9.671875 14.671875 -21.0 26.84375q-11.328125 12.15625 -23.0 19.15625q-4.0 9.671875 -6.84375 21.671875q-2.828125 12.0 -4.15625 23.5q-1.328125 11.5 -1.328125 20.500015q0 3.65625 0.15625 6.328125q0.171875 2.671875 0.5 5.0q4.671875 -13.671875 10.171875 -26.500015q5.5 -12.828125 11.828125 -23.65625q6.34375 -10.84375 13.5 -19.0q7.171875 -8.171875 15.171875 -12.671875q8.0 -4.5 17.0 -4.5q9.328125 0 14.828125 4.5q5.5 4.5 8.0 11.328125q2.5 6.828125 2.5 14.171875q0 10.328125 -3.5 20.0q-3.5 9.65625 -7.171875 18.656265q-3.65625 9.0 -3.65625 17.34375q0 6.65625 2.828125 9.65625q2.84375 3.0 7.171875 3.0q7.671875 0 17.171875 -7.328125q9.5 -7.328125 18.828125 -19.5q9.328125 -12.17189 16.0 -26.500015l4.328125 4.0q-7.0 16.328125 -17.0 29.500015q-10.0 13.171875 -22.0 20.828125q-12.0 7.671875 -25.0 7.671875q-11.328125 0 -17.171875 -6.0q-5.828125 -6.0 -5.828125 -15.0q0 -7.0 2.671875 -15.65625q2.671875 -8.67189 5.171875 -17.67189q2.5 -9.0 2.5 -17.0q0 -8.671875 -3.671875 -12.328125q-3.671875 -3.671875 -9.0 -3.671875q-8.328125 0 -15.0 6.671875q-6.671875 6.65625 -12.171875 17.15625q-5.5 10.5 -10.328125 22.171875q-4.828125 11.656265 -9.171875 22.156265q-4.328125 10.5 -8.671875 17.171875q-4.328125 6.671875 -8.984375 6.671875zm24.65625 -115.67189q9.34375 -7.328125 18.171875 -18.65625q8.828125 -11.34375 16.5 -24.171875q7.671875 -12.84375 13.671875 -25.171875q6.0 -12.328125 9.328125 -22.328125q3.328125 -10.0 3.328125 -15.0q0 -1.671875 -0.328125 -2.171875q-0.328125 -0.5 -1.0 -0.5q-2.328125 0 -9.5 9.171875q-7.171875 9.171875 -16.5 24.5q-9.328125 15.328125 -18.328125 34.671875q-9.0 19.328125 -15.34375 39.65625z" fill-rule="nonzero"/></g></svg>