<svg width="215" height="128" viewBox="0 0 215 128" fill="none" xmlns="http://www.w3.org/2000/svg">
<path d="M7.864 127.84C5.98667 127.84 4.28 127.243 2.744 126.048C1.208 124.939 0.44 123.061 0.44 120.416C0.44 117.856 1.25067 115.467 2.872 113.248C4.408 111.115 6.41333 109.109 8.888 107.232C11.3627 105.44 14.0507 103.776 16.952 102.24C19.9387 100.704 22.7547 99.2533 25.4 97.888C26.5947 94.9013 27.704 91.7013 28.728 88.288C29.8373 84.7893 30.904 80.9493 31.928 76.768C28.6853 81.4613 25.272 85.3867 21.688 88.544C18.1893 91.616 14.648 93.152 11.064 93.152C7.992 93.152 5.60267 92 3.896 89.696C2.27467 87.392 1.464 84.4053 1.464 80.736C1.464 76.2987 2.53067 72.0747 4.664 68.064C6.88267 64.0533 9.74133 60.512 13.24 57.44C16.7387 54.368 20.4507 51.9787 24.376 50.272C28.3013 48.48 31.9707 47.584 35.384 47.584C37.8587 47.584 39.608 48.0107 40.632 48.864C41.7413 49.632 42.296 50.5707 42.296 51.68C42.296 52.448 42.0827 53.0453 41.656 53.472C41.2293 53.8987 40.9307 54.1547 40.76 54.24C40.3333 53.5573 39.6933 53.088 38.84 52.832C37.9867 52.4907 36.92 52.32 35.64 52.32C32.312 52.32 29.0693 53.3013 25.912 55.264C22.84 57.2267 20.1093 59.744 17.72 62.816C15.3307 65.888 13.4107 69.088 11.96 72.416C10.5947 75.6587 9.912 78.6453 9.912 81.376C9.912 83.424 10.296 85.0027 11.064 86.112C11.9173 87.136 13.0267 87.648 14.392 87.648C16.8667 87.648 19.8107 86.0267 23.224 82.784C26.7227 79.456 30.0933 75.4453 33.336 70.752C33.592 69.5573 33.8053 68.4907 33.976 67.552C34.232 66.6133 34.5307 65.4187 34.872 63.968C35.128 62.7733 35.7253 61.408 36.664 59.872C37.688 58.2507 39.2667 57.44 41.4 57.44C41.8267 57.44 42.2533 57.4827 42.68 57.568C43.1067 57.568 43.576 57.6533 44.088 57.824C44.088 59.1893 43.6613 61.7067 42.808 65.376C42.04 68.96 40.888 73.184 39.352 78.048C37.9013 82.8267 36.1947 87.776 34.232 92.896C37.048 91.5307 39.7787 89.7813 42.424 87.648C45.1547 85.5147 47.6293 83.0827 49.848 80.352C52.0667 77.536 53.816 74.5067 55.096 71.264L56.76 72.544C55.48 76.384 53.432 79.8827 50.616 83.04C47.8 86.1973 44.7707 88.928 41.528 91.232C38.3707 93.536 35.4693 95.328 32.824 96.608C30.4347 102.325 27.9173 107.531 25.272 112.224C22.6267 117.003 19.8533 120.8 16.952 123.616C14.136 126.432 11.1067 127.84 7.864 127.84ZM7.48 123.744C9.18667 123.744 11.4907 122.037 14.392 118.624C17.3787 115.296 20.5787 109.536 23.992 101.344C20.5787 103.051 17.3787 104.8 14.392 106.592C11.4907 108.469 9.10133 110.432 7.224 112.48C5.34667 114.528 4.408 116.789 4.408 119.264C4.408 120.629 4.70667 121.696 5.304 122.464C5.90133 123.317 6.62667 123.744 7.48 123.744ZM61.582 96.096C57.9127 96.096 55.31 94.944 53.774 92.64C52.238 90.4213 51.47 87.6907 51.47 84.448C51.47 81.8027 51.8967 79.072 52.75 76.256C53.6033 73.44 54.7127 70.7947 56.078 68.32C57.5287 65.8453 59.1073 63.84 60.814 62.304C62.606 60.768 64.398 60 66.19 60C66.6167 60 67.0433 60.0853 67.47 60.256C67.982 60.3413 68.4513 60.4693 68.878 60.64C68.11 61.3227 67.1713 62.6027 66.062 64.48C65.038 66.272 64.0567 68.3627 63.118 70.752C62.1793 73.056 61.3687 75.36 60.686 77.664C60.0887 79.968 59.79 81.9307 59.79 83.552C59.79 86.112 60.2167 87.9893 61.07 89.184C61.9233 90.2933 63.0327 90.848 64.398 90.848C66.19 90.848 68.3233 89.9093 70.798 88.032C73.2727 86.0693 75.7047 83.5947 78.094 80.608C75.7047 78.6453 73.8273 76.0853 72.462 72.928C71.182 69.6853 70.542 66.4 70.542 63.072C70.542 60.256 71.0113 57.6107 71.95 55.136C72.974 52.6613 74.4247 50.6987 76.302 49.248C78.1793 47.712 80.4407 46.944 83.086 46.944C86.5847 46.944 88.9313 47.8827 90.126 49.76C91.3207 51.6373 91.918 53.984 91.918 56.8C91.918 60.128 91.1073 63.84 89.486 67.936C87.8647 71.9467 85.8167 75.8293 83.342 79.584C84.878 80.4373 86.4993 80.864 88.206 80.864C89.5713 80.864 91.1073 80.608 92.814 80.096C94.5207 79.4987 96.1847 78.5173 97.806 77.152C99.5127 75.7867 100.878 73.952 101.902 71.648L103.438 72.928C101.731 76.9387 99.2993 79.7973 96.142 81.504C93.07 83.1253 90.126 83.936 87.31 83.936C86.2007 83.936 85.134 83.8507 84.11 83.68C83.086 83.424 82.1047 83.0827 81.166 82.656C78.2647 86.496 75.0647 89.696 71.566 92.256C68.1527 94.816 64.8247 96.096 61.582 96.096ZM80.398 77.28C82.5313 74.1227 84.2807 70.8373 85.646 67.424C87.0967 63.9253 87.822 60.64 87.822 57.568C87.822 55.0933 87.438 53.3013 86.67 52.192C85.9873 50.9973 85.0913 50.4 83.982 50.4C82.2753 50.4 80.526 51.6373 78.734 54.112C76.942 56.5867 76.046 59.7013 76.046 63.456C76.046 65.9307 76.3873 68.448 77.07 71.008C77.838 73.4827 78.9473 75.5733 80.398 77.28ZM104.364 127.84C102.487 127.84 100.78 127.243 99.244 126.048C97.708 124.939 96.94 123.061 96.94 120.416C96.94 117.856 97.7507 115.467 99.372 113.248C100.908 111.115 102.913 109.109 105.388 107.232C107.863 105.44 110.551 103.776 113.452 102.24C116.439 100.704 119.255 99.2533 121.9 97.888C123.095 94.9013 124.204 91.7013 125.228 88.288C126.337 84.7893 127.404 80.9493 128.428 76.768C125.185 81.4613 121.772 85.3867 118.188 88.544C114.689 91.616 111.148 93.152 107.564 93.152C104.492 93.152 102.103 92 100.396 89.696C98.7747 87.392 97.964 84.4053 97.964 80.736C97.964 76.2987 99.0307 72.0747 101.164 68.064C103.383 64.0533 106.241 60.512 109.74 57.44C113.239 54.368 116.951 51.9787 120.876 50.272C124.801 48.48 128.471 47.584 131.884 47.584C134.359 47.584 136.108 48.0107 137.132 48.864C138.241 49.632 138.796 50.5707 138.796 51.68C138.796 52.448 138.583 53.0453 138.156 53.472C137.729 53.8987 137.431 54.1547 137.26 54.24C136.833 53.5573 136.193 53.088 135.34 52.832C134.487 52.4907 133.42 52.32 132.14 52.32C128.812 52.32 125.569 53.3013 122.412 55.264C119.34 57.2267 116.609 59.744 114.22 62.816C111.831 65.888 109.911 69.088 108.46 72.416C107.095 75.6587 106.412 78.6453 106.412 81.376C106.412 83.424 106.796 85.0027 107.564 86.112C108.417 87.136 109.527 87.648 110.892 87.648C113.367 87.648 116.311 86.0267 119.724 82.784C123.223 79.456 126.593 75.4453 129.836 70.752C130.092 69.5573 130.305 68.4907 130.476 67.552C130.732 66.6133 131.031 65.4187 131.372 63.968C131.628 62.7733 132.225 61.408 133.164 59.872C134.188 58.2507 135.767 57.44 137.9 57.44C138.327 57.44 138.753 57.4827 139.18 57.568C139.607 57.568 140.076 57.6533 140.588 57.824C140.588 59.1893 140.161 61.7067 139.308 65.376C138.54 68.96 137.388 73.184 135.852 78.048C134.401 82.8267 132.695 87.776 130.732 92.896C133.548 91.5307 136.279 89.7813 138.924 87.648C141.655 85.5147 144.129 83.0827 146.348 80.352C148.567 77.536 150.316 74.5067 151.596 71.264L153.26 72.544C151.98 76.384 149.932 79.8827 147.116 83.04C144.3 86.1973 141.271 88.928 138.028 91.232C134.871 93.536 131.969 95.328 129.324 96.608C126.935 102.325 124.417 107.531 121.772 112.224C119.127 117.003 116.353 120.8 113.452 123.616C110.636 126.432 107.607 127.84 104.364 127.84ZM103.98 123.744C105.687 123.744 107.991 122.037 110.892 118.624C113.879 115.296 117.079 109.536 120.492 101.344C117.079 103.051 113.879 104.8 110.892 106.592C107.991 108.469 105.601 110.432 103.724 112.48C101.847 114.528 100.908 116.789 100.908 119.264C100.908 120.629 101.207 121.696 101.804 122.464C102.401 123.317 103.127 123.744 103.98 123.744ZM155.266 96.864C153.645 96.864 152.365 95.4987 151.426 92.768C150.487 90.0373 150.018 86.9653 150.018 83.552C150.018 79.456 150.701 74.592 152.066 68.96C153.431 63.328 155.223 57.3973 157.442 51.168C159.661 44.9387 162.135 38.8373 164.866 32.864C167.682 26.8907 170.541 21.472 173.442 16.608C176.343 11.744 179.074 7.86133 181.634 4.96C184.194 2.05866 186.413 0.607994 188.29 0.607994C189.826 0.607994 190.893 1.54666 191.49 3.424C192.173 5.216 192.514 6.96533 192.514 8.672C192.514 11.0613 191.959 13.9627 190.85 17.376C189.826 20.7893 188.375 24.4587 186.498 28.384C184.621 32.224 182.445 36.0213 179.97 39.776C177.495 43.5307 174.807 46.9867 171.906 50.144C169.005 53.216 166.061 55.648 163.074 57.44C162.05 59.9147 161.154 62.688 160.386 65.76C159.703 68.832 159.191 71.8613 158.85 74.848C158.509 77.7493 158.338 80.352 158.338 82.656C158.338 83.5947 158.338 84.4053 158.338 85.088C158.423 85.7707 158.509 86.4107 158.594 87.008C159.789 83.5093 161.069 80.1387 162.434 76.896C163.885 73.568 165.421 70.5387 167.042 67.808C168.663 64.992 170.37 62.56 172.162 60.512C174.039 58.3787 176.002 56.7573 178.05 55.648C180.098 54.4533 182.274 53.856 184.578 53.856C186.967 53.856 188.845 54.4533 190.21 55.648C191.661 56.7573 192.685 58.208 193.282 60C193.965 61.7067 194.306 63.4987 194.306 65.376C194.306 68.0213 193.837 70.5813 192.898 73.056C192.045 75.5307 191.149 77.92 190.21 80.224C189.271 82.528 188.802 84.7467 188.802 86.88C188.802 88.5867 189.143 89.824 189.826 90.592C190.594 91.36 191.533 91.744 192.642 91.744C194.605 91.744 196.781 90.8053 199.17 88.928C201.645 87.0507 204.077 84.576 206.466 81.504C208.855 78.3467 210.903 74.9333 212.61 71.264L214.274 72.8C212.482 76.9813 210.306 80.7787 207.746 84.192C205.186 87.52 202.37 90.1653 199.298 92.128C196.226 94.0907 193.026 95.072 189.698 95.072C186.797 95.072 184.578 94.304 183.042 92.768C181.591 91.232 180.866 89.312 180.866 87.008C180.866 85.216 181.207 83.2107 181.89 80.992C182.573 78.7733 183.213 76.512 183.81 74.208C184.493 71.904 184.834 69.728 184.834 67.68C184.834 65.4613 184.365 63.8827 183.426 62.944C182.487 62.0053 181.335 61.536 179.97 61.536C177.837 61.536 175.917 62.3893 174.21 64.096C172.503 65.8027 170.925 68.0213 169.474 70.752C168.109 73.3973 166.786 76.2133 165.506 79.2C164.311 82.1867 163.159 85.0453 162.05 87.776C160.941 90.4213 159.831 92.5973 158.722 94.304C157.613 96.0107 156.461 96.864 155.266 96.864ZM164.738 52.448C167.127 50.5707 169.431 48.1813 171.65 45.28C173.954 42.3787 176.087 39.3067 178.05 36.064C180.013 32.736 181.762 29.4933 183.298 26.336C184.834 23.1787 186.029 20.32 186.882 17.76C187.735 15.2 188.162 13.28 188.162 12C188.162 11.5733 188.119 11.3173 188.034 11.232C187.949 11.0613 187.821 10.976 187.65 10.976C187.053 10.976 185.815 12.1707 183.938 14.56C182.146 16.864 180.055 19.9787 177.666 23.904C175.277 27.8293 172.93 32.2667 170.626 37.216C168.322 42.1653 166.359 47.2427 164.738 52.448Z" fill="black"/>
</svg>
