<?xml version="1.0" encoding="UTF-8"?>
<svg xmlns="http://www.w3.org/2000/svg" id="Layer_1" data-name="Layer 1" version="1.1" viewBox="0 0 1526.5 618.6">
  <defs>
    <style>
      .cls-1 {
        fill: #d9e021;
      }

      .cls-1, .cls-2, .cls-3, .cls-4, .cls-5 {
        stroke-width: 0px;
      }

      .cls-2 {
        fill: #ff0084;
      }

      .cls-3 {
        isolation: isolate;
        opacity: .5;
      }

      .cls-3, .cls-4 {
        fill: #fff;
      }

      .cls-5 {
        fill: #4a1111;
      }
    </style>
  </defs>
  <g>
    <g>
      <g>
        <g>
          <g>
            <path class="cls-2" d="M613.5,532c-6,0-10.8-2.1-14.3-6.3h0c-6-4.8-7.9-11.3-9-17.1-.2-1.3-.4-2.8-.5-4.3,0-1.7,0-3.3.2-5.1.2-1.7.2-3.5,0-5.5,0-.8,0-1.5,0-2.3,0-2.5,0-5-.2-7.6-2.7,0-6.3-.2-11-.2s-9.9,0-14,.2c-.6.7-1,1.3-1.4,1.7l-.4.4c-.2,1.4-.4,2.8-.6,4.2,0,0-1.8,11.7-2.5,16.4-.7,4.6-2.4,9-4.9,12.9-1.5,2.4-3.5,4-5.5,5.8-1.4,1.2-2.9,2.1-4.1,2.9-.3.2-.7.4-1,.6-2.6,1.7-5.4,2.5-8.3,2.5s-3.7-.3-5.6-1c-3.5-1.3-6.7-3.2-9.5-5.7-3.5-3.1-5.6-7.1-6-11.4-.2-2-.3-4-.4-5.9,0-1.3,0-2.6-.2-3.9-.2-1.9,0-3.8.2-5.8.3-2.7,1-5.2,1.9-7.5h0s0-.2,0-.6c.5-4.9,1.3-10.5,2.3-16h-.6c0,0,1.3-8.4,1.3-8.4,1.3-8.4,2.9-17.3,5-27.1l.3-1.4c.8-3.9,1.9-7.9,3.3-12.1.7-2.2,1.4-4.5,2.1-6.7,1.6-5.2,3.3-10.6,5.5-15.9.4-.9.8-1.7,1.2-2.7l1-2.2c2.9-6.2,6-12.5,9.1-18.7,1.6-3.1,3.6-5.8,5.6-8.4l.2-.3c3.6-4.8,8.7-8.3,15-10.2,2.9-.9,6-1.7,9.8-2.7,2.1-.6,4-.8,5.8-.8s3.1.2,4.5.6c.8.2,1.7.4,2.6.6,2.6.6,5.5,1.1,8.4,2.9,7.6,4.4,12.9,9.9,16.2,16.5,0,.2.2.3.2.5,5,10.5,8.4,19.6,10.8,28.6.6,2.1,1,4,1.3,5.7.4,2.1.9,4.1,1.3,6.2,1.3,5.8,2.5,11.7,3.3,17.9,0,1,.2,1.9.3,2.9v.6c.2,1.3.4,2.5.6,3.9.6,4.1,1.1,8.3,1.5,12.5.3,2.9.6,6,.7,8.9v.7c.4,3.6.6,7.1.9,10.7l.5,5.8c0,.9,0,1.7,0,2.5v.8l.3,10.6c0,4.3.2,8.5.3,12.8v.5c0,2.3.2,6.1-2.4,9.5,0,.4-.2.8-.3,1.3l-.4,1.4-1,1c-.3.3-.6.7-1,1-.6.7-1.3,1.3-1.9,2-4.7,4.8-10,7.3-15.9,7.5.2,0-.2,0-.6,0ZM581.4,416.7c-2.3,3.7-4.5,8-6,12.3-.6,1.9-1.2,3.6-1.6,5l11.3-.2c-.6-3.3-1.3-7.5-2.5-11.7-.5-1.9-.9-3.6-1.3-5.3Z"></path>
            <path class="cls-5" d="M583.5,361.9c1,0,2,0,2.9.4,3.2.9,6.6,1,9.5,2.8,5.9,3.4,10.8,7.8,13.9,14,0,0,.2.2.2.3,4.3,8.9,7.9,17.9,10.4,27.5.5,1.7.9,3.6,1.3,5.4,1.6,7.8,3.6,15.6,4.5,23.5.2,1.2.3,2.3.4,3.5.7,5.4,1.4,10.8,2,16.3.3,3.2.6,6.3.8,9.5.4,5.5.9,10.9,1.3,16.5,0,1,0,2,0,2.9,0,2.8.2,5.6.2,8.4.2,5,.2,10,.4,14.9,0,2.3.2,4.6-1.6,6.6-.6.6-.6,1.8-.9,2.8-1,1.1-1.8,2-2.7,2.9-3.3,3.3-7.1,5.5-11.7,5.7h-.8c-3.6,0-7-1-9.5-4-.2-.2-.5-.6-.7-.8-4.5-3.4-6-8.3-6.9-13.5-.2-1.1-.3-2.2-.3-3.3,0-1.3,0-2.8.2-4.1.3-2.9,0-5.7,0-8.6,0-4.2-.2-8.3-.3-12.5v-.6c0-.4-7.9-.6-17.1-.6s-12.9,0-17.9.4c-.6,3.3-3.5,3.7-4,6.9-.4,2.3-.7,4.6-1,6.9-.7,4.7-1.4,9.4-2.2,14.1-.6,3.8-1.9,7.3-4,10.5-1.1,1.7-2.7,3.1-4.3,4.4-1.3,1.1-2.9,2-4.5,2.9-1.6,1-3.3,1.5-5,1.5s-2.3-.2-3.5-.6c-2.8-1-5.3-2.5-7.5-4.5s-3.6-4.4-4-7.4c-.3-3.2-.3-6.4-.6-9.7,0-1.6,0-3.1,0-4.7.2-2,.7-4,1.4-5.9.3-.7.4-1.6.5-2.4.6-7.3,2.5-16.5,3.7-24.1-.2,0-.5,0-.7.2,1.4-9,3.1-17.9,5-26.9,0-.5.2-1,.3-1.4.8-3.9,1.9-7.7,3.1-11.4,2.5-7.4,4.4-15,7.4-22.1.3-.8.7-1.7,1.1-2.5,3.3-7,6.6-14,10.2-20.8,1.4-2.8,3.3-5.3,5.2-7.8,3-4,7.1-6.5,11.9-7.9,3.2-1,6.3-1.8,9.6-2.6,1.2-.6,2.6-.8,4-.8M566,440.3c8.6-.2,17.1-.4,25.9-.6,0-4-1.3-11.7-3.2-19.3-2.3-9.3-3.3-15.2-5.4-17.5-2.9,4-10.2,13.7-13.7,24.1-2.1,6-3.6,11.2-3.6,13.3M583.5,349.6c-2.4,0-4.8.3-7.4,1-4,1-7.1,1.9-10,2.8-7.6,2.3-13.7,6.4-18.2,12.4l-.2.3c-2,2.7-4.3,5.7-6.1,9.3-3.3,6.3-6.3,12.7-9.3,18.9l-1,2.2c-.5,1-1,2-1.3,2.9-2.4,5.6-4.1,11.2-5.7,16.6-.7,2.3-1.3,4.4-2.1,6.6-1.4,4.4-2.6,8.6-3.4,12.7,0,.3,0,.6-.2.9l-.2.6c-2.1,10-3.7,19-5.1,27.5l-2.7,17h.6c-.4,2.5-.7,5.1-1,7.5-1,2.6-1.7,5.4-2,8.3-.2,2.4-.3,4.7-.2,6.9,0,1.2.2,2.4.2,3.7,0,2,.2,4,.4,6.3.6,6,3.4,11.3,8.1,15.5,3.4,3,7.3,5.3,11.4,6.8,2.5,1,5.2,1.4,7.7,1.4,4,0,7.9-1.1,11.6-3.4.3-.2.6-.4,1-.6,1.4-.9,3.2-1.9,4.9-3.4,2.3-1.9,4.8-4.1,6.7-7.1,3-4.7,5-9.8,5.8-15.3.6-4.1,1.3-8.3,1.9-12.4l.2-1.7.4-2.5c0-.4,0-.7.2-1.1,3.1,0,6.6,0,10.2,0h5v1.7c0,.8,0,1.6,0,2.4,0,1.7,0,3.3,0,4.5-.2,2-.3,4-.2,6,0,1.8.2,3.6.6,5.2.8,4.1,2.5,13.6,10.6,20.3,3.3,3.8,9.1,8.1,18.6,8.1h1.3c7.5-.3,14.3-3.4,20.1-9.4.7-.7,1.4-1.5,2.1-2.1s.6-.6.9-1l2-2.1.8-2.8c0-.2,0-.3.2-.5,3-4.8,2.9-9.7,2.8-12.2v-.4c0-4.2-.2-8.3-.3-12.5v-2.5c0,0-.2-4.5-.2-4.5l.2-4v-.7c0-.9,0-1.7,0-2.9-.2-2-.3-4-.5-6-.2-3.5-.6-7.1-.8-10.6v-.9c-.3-2.9-.6-5.9-.8-8.8-.4-4.3-1-8.6-1.5-12.7-.2-1.3-.3-2.6-.5-3.9v-.4c-.2-1-.3-2-.5-3-.7-6.4-2.1-12.5-3.4-18.4-.5-2.1-.9-4-1.3-6.1-.4-1.8-.8-3.7-1.4-6-2.5-9.4-6-18.8-11.2-29.7-.2-.3-.2-.6-.4-.7-3.9-7.7-9.9-13.9-18.6-19-3.8-2.2-7.6-3-10.3-3.6-.8-.2-1.6-.3-2.2-.5-1.9-.6-4-.9-6-.9h0Z"></path>
          </g>
          <g>
            <path class="cls-1" d="M525,520c2.2,2,4.8,3.5,7.5,4.5,2.9,1.1,5.8.8,8.5-.9,1.5-1,3.1-1.8,4.5-2.9,1.6-1.3,3.2-2.7,4.3-4.4,2.1-3.2,3.4-6.7,4-10.5-10.8,2.9-21.7,5.5-32.5,7.9.5,2.4,1.7,4.4,3.7,6.2Z"></path>
            <path class="cls-1" d="M626.1,435.7c-.8-6.8-2.4-13.4-3.8-20.2-10.3,5.3-20.8,10.2-31.5,14.6.7,3.8,1.1,7.2,1,9.5-8.7.2-17.3.4-25.9.6,0-.2,0-.6,0-.9-12.4,4-24.9,7.4-37.6,9.8-1.1,5.6-2.1,11.2-3,16.8.2,0,.5,0,.7-.2-.7,4.4-1.7,9.4-2.5,14.3,35.9-7.4,70.9-19.1,103.5-35.1-.2-1.9-.5-3.9-.7-5.8,0-1-.2-2.2-.3-3.4Z"></path>
            <path class="cls-1" d="M609.7,379.1c-2.2-4.5-5.4-8-9.2-10.9-16.5,9.4-33.8,17.1-52,20.8-2.1,4.2-4.1,8.5-6.1,12.8-.4.8-.7,1.7-1.1,2.5-2,4.6-3.5,9.4-4.9,14.2,26.6-7.3,53.2-16.7,77.6-29.9-1.3-3-2.6-6-4-9,0-.2,0-.2-.2-.4Z"></path>
            <path class="cls-1" d="M630.9,492.8c0-2.8-.2-5.6-.2-8.4,0-1,0-2,0-2.9,0-.7,0-1.4-.2-2.1-11.1,5.1-22.5,9.5-34.1,13.6,0,2.4.2,4.7,0,7.1-.2,1.4-.2,2.8-.2,4.1,0,1.1.2,2.2.3,3.3,1,5.2,2.5,10.1,6.9,13.5.3.2.5.5.7.8,2.7,3.3,6.3,4.2,10.3,4,4.7-.2,8.5-2.4,11.7-5.7.9-.9,1.7-1.8,2.7-2.9.3-1,.3-2.1.9-2.8,1.8-2,1.7-4.3,1.6-6.6,0-4.9-.2-9.9-.3-14.9Z"></path>
          </g>
        </g>
        <path class="cls-3" d="M542.1,507.6c2.1-15,4.4-30.1,7.2-44.9,19.7,1,39.4,2,59,2.9,1.6,19.8,2.1,36.9,2.2,42.1.3,9.1,14.5,9.1,14.2,0-.5-15.7-1.1-31.3-2.3-47.1.2-1.4.2-2.9-.3-4.3-1-11.4-2.4-22.8-4.4-34-3.3-17.6-8.2-52.7-32.3-52.9-24.5-.2-34.4,33.7-40.4,52.2-8.6,26.7-12.6,54.5-16.6,82.1-1.3,9,12.4,12.9,13.6,3.8ZM563.2,412.9c3.4-8.7,8.3-24,17.7-28.2,15.2-6.7,22.5,30.9,26.3,66.6-18.2-.9-36.5-1.8-54.7-2.7.4-1.8.9-3.6,1.3-5.5,2.5-10.2,5.6-20.4,9.5-30.2Z"></path>
      </g>
      <g>
        <g>
          <g>
            <path class="cls-2" d="M1192.8,532c-6,0-10.8-2.1-14.3-6.3h0c-6-4.8-7.9-11.3-9-17.1-.2-1.3-.4-2.8-.5-4.3,0-1.7,0-3.3.2-5.1.2-1.7.2-3.5,0-5.5,0-.8,0-1.5,0-2.3,0-2.5,0-5-.2-7.6-2.7,0-6.3-.2-11-.2s-9.9,0-14,.2c-.6.7-1,1.3-1.4,1.7-.2.2-.3.3-.4.4-.2,1.3-.4,2.7-.6,4l-.7,4.7c-.6,4-1.3,7.9-1.8,11.9-.7,4.6-2.4,9-4.9,12.9-1.5,2.4-3.5,4-5.5,5.8-1.4,1.2-2.9,2.1-4.1,2.9-.3.2-.7.4-1,.6-2.6,1.7-5.4,2.5-8.3,2.5s-3.7-.3-5.6-1c-3.5-1.3-6.7-3.2-9.5-5.7-3.5-3.1-5.6-7.1-6-11.4-.2-2-.3-4-.4-5.9,0-1.3,0-2.6-.2-3.9-.2-1.9,0-3.8.2-5.8.3-2.7,1-5.2,1.9-7.5h0s0-.2,0-.6c.5-4.9,1.3-10.5,2.3-16h-.6c0,0,1.3-8.4,1.3-8.4,1.3-8.4,2.9-17.3,5-27.1l.3-1.4c.8-3.9,1.9-7.9,3.3-12.1.7-2.2,1.4-4.5,2.1-6.7,1.6-5.2,3.3-10.6,5.5-15.9.3-.8.8-1.7,1.2-2.7l1-2.2c2.9-6.2,6-12.5,9.2-18.7,1.6-3.1,3.6-5.8,5.6-8.4l.2-.3c3.6-4.8,8.7-8.3,15-10.2,2.9-.9,6-1.7,9.8-2.7,2.1-.6,4-.8,5.8-.8s3.1.2,4.5.6c.8.2,1.7.4,2.6.6,2.6.6,5.5,1.1,8.4,2.9,7.6,4.4,12.9,9.9,16.2,16.5,0,.2.2.3.2.5,5,10.5,8.4,19.6,10.8,28.6.6,2.1,1,4,1.3,5.7.4,2.1.9,4.1,1.3,6.2,1.3,5.8,2.5,11.7,3.3,17.9,0,1,.2,2.1.4,3v.4c.2,1.3.4,2.6.6,3.9.6,4,1,8.3,1.5,12.5.2,2.9.5,5.8.7,8.6v1c.3,3.5.6,7,.9,10.5l.5,6c0,.9,0,1.7,0,2.5v.8l.3,11.3c0,4,.2,8.1.3,12.1v.5c0,2.3.2,6.1-2.4,9.5,0,.4-.2.8-.3,1.3l-.4,1.4-1,1c-.3.3-.6.7-1,1-.6.7-1.3,1.3-1.9,2-4.7,4.8-10,7.3-15.9,7.5,0,0-.4,0-.8,0ZM1160.7,416.7c-2.3,3.7-4.5,8-6,12.3-.6,1.9-1.2,3.6-1.6,5l11.3-.2c-.6-3.3-1.3-7.5-2.5-11.7-.4-1.9-.9-3.6-1.3-5.3Z"></path>
            <path class="cls-5" d="M1162.7,361.9c1,0,2,0,2.9.4,3.2.9,6.6,1,9.5,2.8,5.9,3.4,10.8,7.8,13.9,14,0,0,.2.2.2.3,4.3,8.9,7.9,17.9,10.4,27.5.5,1.7.9,3.6,1.3,5.4,1.6,7.8,3.6,15.6,4.5,23.5.2,1.2.3,2.3.4,3.5.7,5.4,1.4,10.8,2,16.3.3,3.2.6,6.3.8,9.5.5,5.5.9,10.9,1.3,16.5,0,1,0,2,0,2.9,0,2.8.2,5.6.2,8.4.2,5,.2,10,.4,14.9,0,2.3.2,4.6-1.6,6.6-.6.6-.6,1.8-.9,2.8-1,1.1-1.8,2-2.7,2.9-3.3,3.3-7.1,5.5-11.7,5.7h-.8c-3.6,0-7-1-9.5-4-.2-.2-.5-.6-.7-.8-4.5-3.4-6-8.3-6.9-13.5-.2-1.1-.3-2.2-.3-3.3,0-1.3,0-2.8.2-4.1.3-2.9,0-5.7,0-8.6,0-4.2-.2-8.3-.3-12.5v-.6c0-.4-7.9-.6-17.1-.6s-12.9,0-17.9.4c-.6,3.3-3.5,3.7-4,6.9-.4,2.3-.7,4.6-1,6.9-.7,4.7-1.4,9.4-2.2,14.1-.6,3.8-1.9,7.3-4,10.5-1.1,1.7-2.7,3.1-4.3,4.4-1.3,1.1-2.9,2-4.5,2.9-1.6,1-3.3,1.5-5,1.5s-2.3-.2-3.5-.6c-2.8-1-5.3-2.5-7.5-4.5s-3.6-4.4-4-7.4c-.3-3.2-.3-6.4-.6-9.7,0-1.6,0-3.1,0-4.7.2-2,.7-4,1.4-5.9.3-.7.4-1.6.5-2.4.6-7.3,2.5-16.5,3.7-24.1-.2,0-.5,0-.7.2,1.4-9,3.1-17.9,5-26.9,0-.5.2-1,.3-1.4.8-3.9,1.9-7.7,3.1-11.4,2.5-7.4,4.4-15,7.4-22.1.3-.8.7-1.7,1.1-2.5,3.3-7,6.6-14,10.2-20.8,1.4-2.8,3.3-5.3,5.2-7.8,3-4,7.1-6.5,11.9-7.9,3.2-1,6.3-1.8,9.6-2.6,1.2-.6,2.6-.8,4-.8M1145.4,440.3c8.6-.2,17.1-.4,25.9-.6,0-4-1.3-11.7-3.2-19.3-2.3-9.3-3.3-15.2-5.4-17.5-2.9,4-10.2,13.7-13.7,24.1-2.1,6-3.6,11.2-3.6,13.3M1162.7,349.6c-2.4,0-4.8.3-7.4,1-4,1-7.1,1.9-10,2.8-7.6,2.3-13.7,6.4-18.2,12.4l-.2.3c-2,2.7-4.3,5.7-6.1,9.3-3.3,6.3-6.3,12.7-9.2,18.9l-1,2.2c-.5,1-1,2-1.3,2.9-2.4,5.6-4.1,11.2-5.7,16.6-.7,2.3-1.3,4.4-2.1,6.6-1.4,4.4-2.6,8.6-3.4,12.7,0,.3,0,.6-.2.9l-.2.6c-2.1,10-3.7,19-5.1,27.5l-2.7,17h.6c-.4,2.5-.7,5.1-1,7.5-1,2.6-1.7,5.4-2,8.3-.2,2.4-.3,4.7-.2,6.9,0,1.2.2,2.4.2,3.7,0,2,.2,4,.4,6.3.6,6,3.4,11.3,8.1,15.5,3.4,3,7.3,5.3,11.4,6.8,2.5,1,5.2,1.4,7.7,1.4,4,0,7.9-1.1,11.6-3.4.3-.2.6-.4,1-.6,1.4-.9,3.2-1.9,4.9-3.4,2.3-1.9,4.8-4.1,6.7-7.1,3-4.7,5-9.8,5.8-15.3.6-4.2,1.3-8.4,2-12.6l.2-1.5.4-2.5c0-.4,0-.8.2-1.1,3.1,0,6.6,0,10.2,0h5v1.7c0,.8,0,1.6,0,2.4,0,1.7,0,3.3,0,4.5-.2,2-.3,4-.2,6,0,1.8.2,3.6.6,5.2.8,4.1,2.5,13.6,10.6,20.3,3.3,3.8,9.1,8.1,18.6,8.1h1.3c7.5-.3,14.3-3.4,20.1-9.4.7-.7,1.4-1.5,2.1-2.1.3-.3.6-.6.9-1l2-2.1.8-2.8c0-.2,0-.3.2-.5,3-4.8,2.9-9.7,2.8-12.2v-.4c0-4.2-.2-8.5-.3-12.7v-2.3c0,0-.2-4.5-.2-4.5v-4c0-.2,0-.5,0-.7,0-.9,0-1.7,0-2.9-.2-2-.3-4-.5-6-.2-3.5-.6-7-.8-10.6v-.8c-.3-2.9-.6-5.9-.8-8.9-.4-4.3-1-8.6-1.5-12.7-.2-1.3-.3-2.5-.5-3.9v-.4c-.2-1-.3-2-.5-2.9-.7-6.4-2.1-12.5-3.4-18.4-.5-2.1-.9-4-1.3-6.1-.4-1.8-.8-3.7-1.4-6-2.5-9.4-6-18.8-11.2-29.7-.2-.3-.2-.6-.4-.7-3.9-7.7-9.9-13.9-18.6-19-3.8-2.2-7.6-3-10.3-3.6-.8-.2-1.6-.3-2.2-.5-1.7-.6-3.7-.9-5.9-.9h0Z"></path>
          </g>
          <g>
            <path class="cls-1" d="M1104.3,520c2.2,2,4.8,3.5,7.5,4.5,2.9,1.1,5.8.8,8.5-.9,1.5-1,3.1-1.8,4.5-2.9,1.6-1.3,3.2-2.7,4.3-4.4,2.1-3.2,3.4-6.7,4-10.5-10.8,2.9-21.7,5.5-32.5,7.9.6,2.4,1.8,4.4,3.7,6.2Z"></path>
            <path class="cls-1" d="M1205.4,435.7c-.8-6.8-2.4-13.4-3.8-20.2-10.3,5.3-20.8,10.2-31.5,14.6.7,3.8,1.1,7.2,1,9.5-8.7.2-17.3.4-25.9.6,0-.2,0-.6,0-.9-12.4,4-24.9,7.4-37.6,9.8-1.1,5.6-2.1,11.2-3,16.8.2,0,.5,0,.7-.2-.7,4.4-1.7,9.4-2.5,14.3,35.9-7.4,70.9-19.1,103.5-35.1-.2-1.9-.5-3.9-.7-5.8,0-1-.2-2.2-.3-3.4Z"></path>
            <path class="cls-1" d="M1189,379.1c-2.2-4.5-5.4-8-9.2-10.9-16.5,9.4-33.8,17.1-52,20.8-2.1,4.2-4.1,8.5-6.1,12.8-.4.8-.7,1.7-1.1,2.5-2,4.6-3.5,9.4-4.9,14.2,26.6-7.3,53.2-16.7,77.6-29.9-1.3-3-2.6-6-4-9,0-.2,0-.2-.2-.4Z"></path>
            <path class="cls-1" d="M1210.2,492.8c0-2.8-.2-5.6-.2-8.4,0-1,0-2,0-2.9,0-.7,0-1.4-.2-2.1-11.1,5.1-22.5,9.5-34.1,13.6,0,2.4.2,4.7,0,7.1-.2,1.4-.2,2.8-.2,4.1,0,1.1.2,2.2.3,3.3,1,5.2,2.5,10.1,6.9,13.5.3.2.5.5.7.8,2.7,3.3,6.3,4.2,10.3,4,4.7-.2,8.5-2.4,11.7-5.7.9-.9,1.7-1.8,2.7-2.9.3-1,.3-2.1.9-2.8,1.8-2,1.7-4.3,1.6-6.6,0-4.9-.2-9.9-.3-14.9Z"></path>
          </g>
        </g>
        <path class="cls-3" d="M1121.4,507.6c2.1-15,4.4-30.1,7.2-44.9,19.7,1,39.4,2,59,2.9,1.6,19.8,2.1,36.9,2.2,42.1.3,9.1,14.5,9.1,14.2,0-.5-15.7-1.1-31.3-2.3-47.1.2-1.4.2-2.9-.3-4.3-1-11.4-2.4-22.8-4.4-34-3.3-17.6-8.2-52.7-32.3-52.9-24.5-.2-34.4,33.7-40.4,52.2-8.6,26.7-12.6,54.5-16.6,82.1-1.3,9,12.4,12.9,13.6,3.8ZM1142.5,412.9c3.4-8.7,8.3-24,17.7-28.2,15.2-6.7,22.5,30.9,26.3,66.6-18.2-.9-36.5-1.8-54.7-2.7.4-1.8.9-3.6,1.3-5.5,2.5-10.2,5.6-20.4,9.5-30.2Z"></path>
      </g>
      <g>
        <g>
          <g>
            <path class="cls-2" d="M1407.2,531.2c-3.8,0-7.7-.2-12.1-.7-3.1-.3-6-1.3-8.4-2.2-2.4-.9-4.6-1.9-6.7-3l-1-.5c-3.3-1.6-5.8-4-7.5-7.1-3.5-6.3-4.9-12.3-4.4-18.2,1.2-12.2,1.1-24.8,1-37v-1.7c0-19.4-.2-39-.2-58.1v-17c0-1.2,0-2.3,0-3.4,0-1.3,0-2.5,0-3.7,0-4.4,1.7-7.9,3-10.7l.2-.5c2-4,5.4-6.8,10.3-8.6,3.4-1.3,6.8-1.6,9.8-1.8.7,0,1.4-.2,2.1-.2,1.4-.2,2.9-.2,4.5-.2,5.2,0,10.2.9,15,1.7.7.2,1.5.2,2.2.4,3.9.7,7.8,1.6,11.5,2.5l.9.2c9.8,2.3,19,7.3,27.1,14.8,3.9,3.6,7.5,7.3,10.9,10.9,7.9,8.5,11.7,18.9,13.8,26,2.7,8.8,4,18.3,4.1,28.2v4.6c.8,10.6-1.4,20.5-3.5,27.9-2.2,7.9-5.7,15.2-10.5,21.5-6,8.1-11.5,14.3-17.1,19.4-8.4,7.6-18.6,12.5-31.2,15-4.6,1-9.2,1.5-14.3,1.5ZM1412.9,403.4c.2,3.7.2,7.5.3,11.3,0,18.1,0,36.4,0,54.2v16.2c3.7-.7,6.9-2.5,9.8-5.2,3.8-3.7,7-8.3,10.5-13.8.2-.4.5-.9.6-1.4.3-1.1.6-2.3.9-3.4.9-3.4,1.7-6.7,2.1-9.9,1.1-7.4.2-14.9-.8-22.1-.6-4.6-2.5-8.6-5.5-12.1-3.3-3.8-6.3-7-9.2-9.8-1.1-1-2.4-1.9-3.6-2.4-1.7-.6-3.4-1.2-5.2-1.7Z"></path>
            <path class="cls-5" d="M1398.2,362.7c5.5,0,10.8,1.1,16.1,2.1,4,.7,8.1,1.7,12.1,2.6,9.3,2.1,17.3,6.8,24.2,13.3,3.6,3.4,7.2,7,10.6,10.6,6.3,6.7,9.8,14.9,12.5,23.6,2.6,8.6,3.8,17.5,3.8,26.5v4.8c.7,8.9-1,17.5-3.3,26-2,7.1-5.1,13.6-9.4,19.4-4.9,6.7-10.2,12.9-16.3,18.5-8.1,7.4-17.7,11.4-28.2,13.5-4.3.9-8.6,1.2-13,1.2s-7.5-.2-11.3-.7c-2.4-.2-4.8-1-7-1.8-2.5-.9-4.8-2.1-7.1-3.2-2.1-1-3.6-2.5-4.8-4.5-2.5-4.6-4.1-9.4-3.6-14.7,1.3-13,1.1-26.1,1-39.2-.2-25-.2-50.1-.2-75.1,0-2.4.2-4.8.2-7.2,0-3.1,1.3-5.7,2.6-8.3,1.4-2.9,4-4.5,6.9-5.6,3.4-1.3,7-1.3,10.6-1.7,1.3,0,2.6-.2,3.9-.2M1408.9,491.7c7.2,0,13.4-2.5,18.4-7.3,4.5-4.4,8-9.6,11.3-14.9.6-1,1-2.1,1.3-3.3,1.1-4.6,2.5-9.2,3.2-13.9,1.2-7.9.4-15.9-.8-23.8-.8-5.7-3.1-10.9-6.9-15.2-3.1-3.5-6.3-6.9-9.6-10.2-1.6-1.5-3.6-2.9-5.6-3.6-4.1-1.7-8.5-2.9-12.8-4.2h-.2c-.2,0-.5,0-.9.2v2.6c.2,5.6.5,11.1.5,16.7,0,24.6,0,49.1,0,73.7v3.3h1.8M1398.2,350.3c-1.7,0-3.5,0-5.2.2-.7,0-1.3.2-2.1.2-3.2.3-7.2.6-11.4,2.1-6.4,2.4-11.1,6.3-13.7,11.7l-.2.5c-1.5,3-3.8,7.7-3.6,13.6,0,1,0,2.1,0,3.3,0,1.2,0,2.4,0,3.6v16.8c0,19.1,0,38.8.2,58.2v1.6c0,12.5.2,24.4-1,36.3-.7,7.2,1,14.4,5.1,21.8,2.3,4.2,5.9,7.6,10.2,9.7l1,.5c2.1,1,4.6,2.2,7.3,3.3,2.8,1,6.1,2.1,9.8,2.5,4.6.6,8.7.8,12.8.8s10.5-.5,15.4-1.4c13.8-2.7,24.9-8.1,34.2-16.4,6-5.4,11.7-11.8,17.9-20.2,5.2-7,9-14.9,11.5-23.6,2.1-7.9,4.5-18.3,3.7-29.8v-4.4c0-10.6-1.5-20.6-4.4-30.1-2.3-7.7-6.4-19-15.2-28.4-3.5-3.7-7.2-7.5-11.3-11.3-8.9-8.3-18.9-13.8-29.8-16.3l-1-.2c-3.8-.9-7.7-1.8-11.8-2.5-.7-.2-1.4-.2-2.2-.4-4.8-.8-10.2-1.8-16-1.8h0ZM1419.4,474.8v-6c0-17.7,0-36.1,0-54.1v-.6c2.1,2.1,4.4,4.6,6.8,7.4,2.2,2.5,3.5,5.4,4,8.9,1,6.6,1.7,13.6.8,20.2-.4,2.9-1.2,6-2.1,9.3-.3,1.1-.6,2.2-.8,3.3-3.1,4.6-5.7,8.5-8.7,11.6h0Z"></path>
          </g>
          <g>
            <path class="cls-1" d="M1442.2,457.1c-.6,3-1.5,6-2.2,9-.2,1.1-.7,2.2-1.3,3.3-2.6,4.1-5.3,8.3-8.6,11.9,4.9,13.1,5.3,26.3,1.2,39.4,6.3-2.4,12.1-5.7,17.2-10.4,6.1-5.6,11.4-11.9,16.3-18.5,3.4-4.5,6-9.4,7.9-14.7-6-10-18.5-15.9-30.5-20Z"></path>
            <path class="cls-1" d="M1473.8,415c-2.6-8.6-6.2-16.8-12.5-23.6-3.3-3.6-6.9-7.1-10.5-10.6-9.4,6.4-16.7,15.6-20.9,26.3,1.9,2,3.7,4,5.6,6,3.8,4.3,6,9.4,6.9,15.1,11.6-1.4,23.8-3.1,34.4.2-.6-4.5-1.6-9-2.9-13.5Z"></path>
            <path class="cls-1" d="M1374.4,465.6c0,11.5,0,23-1,34.5-.5,5,1,9.5,3.2,13.9,12.3-4.7,22.6-13,30.5-23.6v-30.2c-9.8,4.9-21.6,6.9-32.7,5.3Z"></path>
            <path class="cls-1" d="M1407,431v-16.3c0-5.6-.3-11.1-.5-16.7v-2.6c.3,0,.6-.2.7-.2-8.1-8.6-12.4-20.3-12.5-32.4h-.4c-3.6.4-7.1.5-10.6,1.7-2.9,1.1-5.5,2.7-6.9,5.6-1.3,2.6-2.7,5.2-2.6,8.3,0,2.4-.2,4.8-.2,7.2,0,11.7,0,23.5,0,35.2,8.7,7.3,21.3,10.2,32.8,10.1Z"></path>
          </g>
        </g>
        <path class="cls-3" d="M1466.2,430c-3.6-22.3-16.5-49.5-39.4-57.4-23.7-8.2-41.9,7.9-45.1,30.9-4.8,33.6-3,68.9.6,102.4.2,2.3,1.4,4,2.9,5.2.8,1.1,2.1,2.1,3.9,2.5,21.6,4.8,43.6-2.8,59-18.6,16.7-17.3,21.9-41.8,18.2-65ZM1395.9,500.3c-2.5-26-3.3-52.1-1.7-78.2.7-11.5-.2-29.8,12.1-35.6,12.5-5.9,25.5,3.3,32.6,13.3,14.6,20.1,19.6,49.8,8.1,72.5-9.4,18.6-30.2,31.2-51.1,28.1Z"></path>
      </g>
      <g>
        <g>
          <g>
            <path class="cls-2" d="M825.4,531.4c-5.6,0-11.3-1.6-16.3-4.6-7.2-4.4-11.6-9.8-13.3-16.7-.2-.6-.4-1.2-.7-1.9-.4-1-.9-2.1-1.2-3.4,0-.4-.2-.8-.3-1.2-.6-2.3-1.3-5-1.3-7.9,0-14.6,0-29,0-43.6,0-10.1.2-20.4.4-30.8,0-2.3.2-4.6.3-6.9.2-2,.2-3.9.3-5.8.2-7,.3-14.1.4-21.3,0-5.6.8-12.8,6.3-18.8,2.5-2.8,5.6-5.1,9.1-6.8s6.7-3,10.9-3.3c.2,0,.5-.2.7-.2.8-.3,1.8-.7,3.1-.9,2.1-.3,4.4-.6,7-.6,2.9,0,5.6,0,8.4-.2,2.3,0,4.6,0,6.9,0s3.3,0,4.9,0c6,0,12.2.2,18.6.6,1.1,0,2.3,0,3.5,0h3.3c4.7,0,8.9,1.3,12.9,2.5.5.2,1,.3,1.5.4.6.2,1,.3,1.3.5,0,0,.2,0,.2,0,11.1,3.2,13.4,11.5,14.1,17.5,1,8.3-2.3,15.2-10,20.3-5,3.4-10.7,5.2-17.1,5.2s-1.3,0-2.1,0c-3.6-.2-7.2-.5-10.7-.7-2.6-.2-5.2-.4-7.9-.6-4.2-.2-8.6-.5-12.7-.7l-3.1-.2c-1.8,0-3.6-.2-5.6-.3,0,5.3,0,12.9,0,18.3,1.6-.2,3.3-.4,4.8-.6,3.7-.4,7.6-.9,11.5-1.2,4.7-.4,9.7-.8,14.7-.9h.5c6.7,0,12.4,1.4,17,4.4,7.6,4.8,11.7,11.5,12.1,20.1.6,12.1-9,22.9-21.2,23.9-.9,0-1.7,0-2.8,0s-2.6,0-3.8-.2c-1,0-2,0-2.9,0-9.9,0-19.8-.2-29.7-.3h-.6v21c.6,0,1,0,1.7-.2,1,0,2-.2,3-.2,10.8-.4,19-.7,26.7-1h1c6.8,0,13,2.4,18.3,7.1,4.6,4,7.2,9.6,7.9,16.3.4,4.4-1.2,8.6-4.8,12.9-5.5,6.4-12.4,9.8-20.5,9.9-5.6,0-11.3.2-16.8.4-2.6,0-5.2.2-7.9.2-1.8,0-3.6,0-5.5.2-4.8.2-9.8.2-14.8.3h0Z"></path>
            <path class="cls-5" d="M851.2,362.5c6.1,0,12.2.2,18.2.6,1.3,0,2.5,0,3.9,0h3.2c4.4,0,8.6,1.4,12.9,2.7.5.2,1,.4,1.5.6,6.7,1.9,9,6,9.8,12.4.8,6.5-2.1,10.9-7.3,14.4-4.2,2.9-8.7,4-13.6,4s-1.1,0-1.7,0c-6.2-.3-12.4-.9-18.5-1.3-5.3-.3-10.6-.6-15.9-.9-4-.2-7.9-.4-12-.6,0,.3,0,31.4,0,31.7,2.1-.2,4-.4,6-.6,5.7-.6,11.3-1.3,17.1-1.8,4.8-.4,9.4-.8,14.2-.9h.4c4.8,0,9.5.8,13.7,3.4,5.6,3.5,8.8,8.3,9.1,15.2.5,9.1-6.8,16.7-15.6,17.4-.7,0-1.5,0-2.2,0-2.2,0-4.4-.2-6.6-.2-10.3,0-20.6-.2-30.9-.3h-5.5v33.4h5.7c1.8,0,3.6-.3,5.3-.4,8.9-.3,17.7-.6,26.6-1h.7c5.4,0,10.1,1.9,14.2,5.6,3.7,3.3,5.4,7.5,5.8,12.3.3,3.3-1.3,6-3.3,8.3-4.1,4.8-9.4,7.6-15.9,7.7-8.3,0-16.5.4-24.8.6-6.7.2-13.4.4-20.2.4h-.2c-4.7,0-9.1-1.3-13-3.7-5-3-9-7-10.6-13-.5-1.8-1.4-3.5-1.8-5.3-.6-2.5-1.4-5.1-1.5-7.6,0-14.5,0-29,0-43.6,0-10.2.2-20.5.4-30.7,0-4.2.6-8.4.6-12.6.2-7.1.3-14.4.4-21.5,0-5.4.9-10.6,4.7-14.8,2.1-2.3,4.5-4,7.3-5.4,2.8-1.3,5.6-2.5,8.6-2.6,1.4,0,2.9-1,4.3-1.2,2.1-.3,4.1-.5,6.2-.5,5.1-.2,10.2-.2,15.3-.2,1.6,0,3.2,0,4.8,0M851.2,350.1c-1.7,0-3.4,0-5.1,0-2.3,0-4.6,0-6.9,0s-5.6,0-8.5.2c-2.9,0-5.4.3-7.8.6-1.7.2-3.2.8-4.1,1.1-4.9.4-9,2.1-12.4,3.8-4.2,2.1-7.9,4.8-11,8.3-6.9,7.7-7.8,16.7-7.9,22.9,0,7.2-.2,14.4-.4,21.3,0,1.7-.2,3.6-.3,5.6-.2,2.3-.3,4.7-.3,7.1-.2,10.4-.4,20.8-.4,30.9,0,14.7-.2,29,0,43.7,0,3.6.9,6.8,1.6,9.4,0,.4.2.8.3,1.2.4,1.7,1,3,1.4,4.1.2.4.4,1,.5,1.2,2.1,8.4,7.5,15.3,16.1,20.5,6,3.6,12.6,5.5,19.4,5.5h.4c5,0,10-.2,14.8-.3,1.8,0,3.6,0,5.5-.2,2.6,0,5.3-.2,7.9-.2,5.5-.2,11.2-.3,16.7-.4,9.8-.2,18.6-4.3,25.2-12.1,4.6-5.5,6.7-11.3,6.2-17.4-.7-8.4-4-15.3-9.9-20.5-6.5-5.7-14-8.6-22.5-8.6h-1.1c-7.3.2-15,.5-25,.9v-8.2c7.9,0,16,.2,24,.2.8,0,1.7,0,2.6,0,1.3,0,2.6.2,4.1.2s2.2,0,3.3-.2c7.4-.6,14.3-4,19.3-9.5,5.2-5.7,7.9-13.1,7.5-20.8-.5-10.6-5.7-19.3-14.9-25-5.7-3.6-12.3-5.2-20.3-5.2h-.6c-5.2,0-10.4.5-15.2.9-3.3.3-6.5.6-9.7,1v-4.9h2.2c4.1.3,8.4.6,12.5.8,2.6.2,5.2.4,7.8.6,3.5.2,7.1.6,10.8.7.8,0,1.6,0,2.4,0,7.6,0,14.5-2.1,20.5-6.2,12.1-8.3,13.6-18.8,12.6-26.2-1.5-11.9-7.7-19.5-18.3-22.6-.4-.2-1-.4-1.8-.6-.5-.2-1-.3-1.5-.4-4.2-1.2-9-2.6-14.5-2.7h-3.4c-1.3,0-2.2,0-3,0-6.3-.5-12.7-.7-18.7-.7h0Z"></path>
          </g>
          <g>
            <path class="cls-1" d="M831.6,395.3v-.9c.2,0-7.3-11.4-7.2-31.1-5.6.6-9.7,2.3-12.5,3.6s-5.2,3.2-7.3,5.4c-3.8,4.2-4.6,9.4-4.7,14.8v1.1c9.2,6.7,20.7,9.8,31.7,7.1Z"></path>
            <path class="cls-1" d="M883.1,426.2c-4.3-2.7-9.2-3.4-14.2-3.4s-7.1.2-10.7.6c-2.5,12.1-1.2,24,3.1,35.2,2.1,0,4.3,0,6.5,0s6,.4,8.9.2c8.8-.7,16-8.3,15.6-17.4-.3-6.9-3.6-11.7-9.1-15.2Z"></path>
            <path class="cls-1" d="M831.6,424.5c-10.2,2.9-22.2,3.5-32.6.6-.2,9-.3,17.9-.4,26.9v4.8c10,4.6,33.1,1.5,33.2,1.5-.9-15.6-.2-32.8-.2-33.8Z"></path>
            <path class="cls-1" d="M830.8,490.9c-10.7,3-21.9,4.4-32.3,2.1v2.5c0,2.5.9,5.1,1.5,7.6.5,1.8,1.4,3.5,1.8,5.3,1.5,6,5.6,9.9,10.6,13,4,2.5,8.6,3.7,13.3,3.7s5.6,0,8.3-.2c-3.7-10.9-6.5-22.8-3.2-34.2Z"></path>
            <path class="cls-1" d="M889.8,508.2c-.4-4.8-2.1-9-5.8-12.3-4.3-3.8-9.3-5.7-15-5.6-4,.2-8,.3-12.1.4-2.6,11.8-1,23.5,3.9,33.6,3.3,0,6.4-.2,9.7-.2,6.6,0,11.8-2.9,15.9-7.7,2-2.3,3.6-5,3.3-8.3Z"></path>
            <path class="cls-1" d="M900.6,378.8c-.8-6.3-3.1-10.5-9.8-12.4-.5-.2-1-.4-1.5-.6-4.2-1.2-8.4-2.5-12.9-2.7-2.3,0-4.7,0-7,0-2.5-.2-4.8-.3-7.3-.4-2.9,10.9-2.9,23.2,1.3,33.5,4.8.3,9.6.7,14.4,1,5.5.3,10.6-.8,15.3-4,5.2-3.4,8.1-7.9,7.3-14.4Z"></path>
          </g>
        </g>
        <path class="cls-3" d="M871.9,506.3c-17.1.9-41.4,2.3-50.2-16.2-5.4-11.4-4.2-26.3-2.9-39.6,17.9,1.1,35.5.6,53.3-1.5,9-1,9-15.3,0-14.2-17.4,2.1-34.8,2.6-52.3,1.6.5-15.2-1.5-37,10.6-47.6,14.5-12.7,36.2-7.1,52.8-3.1,8.9,2.1,12.7-11.5,3.8-13.7-20.8-5.1-44.4-9.6-63.2,4-18.8,13.6-17.1,38.5-18.2,59.1-1.1,20.8-6.4,47.4,6,65.9,13.3,20,38.7,20.6,60.3,19.5,9.1-.5,9.1-14.8,0-14.2Z"></path>
      </g>
      <g>
        <g>
          <g>
            <path class="cls-2" d="M714.7,536.6c-11.5,0-22.5-3.1-32.6-9.1-10.5-6.2-18.2-14.4-23.3-24.4-6.4-12.7-10.5-23.6-12.8-34.4-1.7-8.5-2.4-17.9-1.8-29.4v-1.8c.2-3.5.4-7.1.7-10.8,1.1-13.4,5.6-26,13.4-38.7.4-.6.9-1.3,1.3-2s.8-1.2,1.2-1.8c8-13,19.7-22.2,34.8-27.3,8-2.7,14.6-4.4,20.9-5.6,1.3-.2,2.6-.3,4-.3s3.5.2,5.6.6c1.1.2,2.2.3,3.4.5,2,.2,4,.6,6.1,1,9.4,2.1,16.9,7.4,22.3,11.7,6.7,5.3,11.1,11,13.8,17.5,2.5,6,4.6,12.5,3.4,20,0,.5-.2.9-.2,1.3v.3c-1.2,6.5-5.6,17.5-23,17.5s-1.3,0-1.9,0c-3.1-.2-6-1.4-8.5-3.7-2.9-2.7-5.4-6-7.4-9.9s-3.6-6.1-5.8-7.7c-2.5-1.8-5-2.7-7.6-2.7s-2.1.2-3.3.4c-5,1.3-8.8,2.7-12,4.5-2.8,1.6-4.8,3.5-6.3,5.9-3.1,4.9-5.8,9.4-7.3,14.4-1.3,4.3-2.1,8.8-2.2,13.4,0,2.9,0,5.8,0,8.6v3.6c0,10.1,2.3,19,7.1,27.2,1.6,2.6,3.2,5.3,4.8,7.9,1.3,2.1,3,3.5,5.6,4.5,2.8,1.1,5.7,1.7,8.9,1.7h0c2.1,0,4.4-.2,6.8-.7,1.2-.2,2.1-.8,2.8-1.8s1.5-2.1,2.2-3.2c1.8-2.6,3.7-5.3,5.6-8,.6-1,1.2-2,1.6-3.2-1.3,0-2.5-.2-3.8-.2-1.8,0-3.5.2-5,.4-1.3.2-2.5.3-3.7.3-5,0-9.8-1.7-14.3-5.1-.3-.2-.6-.5-.9-.7h0c-6.7-4.7-9.4-11.7-7.7-20,.6-2.8,1.4-6,3-9,3.6-6.7,9.7-10.4,17.1-10.5,7.2,0,14.5-.2,21.6-.5h2.5c7.4,0,14.2,1.6,20.2,4.8,10.5,5.5,16.7,13.7,18.3,24.4,2.3,14.2-.9,28.1-9.5,42.3-3.3,5.4-7.3,10.9-12.6,17.5-7.8,9.6-17.9,15.8-29.9,18.5-5,1.4-10.2,2-15.2,2Z"></path>
            <path class="cls-5" d="M720.4,357.3c1.5,0,3,.2,4.5.5,3.1.6,6.2.8,9.3,1.4,7.5,1.7,13.8,5.7,19.8,10.5,5.2,4.1,9.4,8.9,12,15,2.2,5.3,4,10.8,3,16.7,0,.6-.2,1-.2,1.6-1.7,9.7-9,12.3-16.8,12.3h-1.7c-1.7,0-3.3-.9-4.5-2.1-2.5-2.4-4.5-5.1-6-8.2-1.9-3.8-4.1-7.3-7.6-9.9-3.5-2.6-7.2-4-11.3-4s-3.2.2-4.8.6c-4.7,1.2-9.3,2.8-13.6,5.2-3.5,2-6.3,4.5-8.6,8-3.2,5-6.2,10.1-8,15.8-1.5,4.9-2.3,9.9-2.5,15.1-.2,4.1,0,8.3,0,12.4,0,10.8,2.5,20.9,7.9,30.3,1.6,2.7,3.2,5.4,4.8,8.1,2.1,3.3,5,5.6,8.6,7.1,3.7,1.5,7.5,2.1,11.3,2.1s5.3-.3,8-.9c2.7-.6,5-2.1,6.6-4.4,2.6-3.7,5.3-7.5,7.9-11.3,2.4-3.6,3.4-7.6,4.4-12.1-4-.4-7.9-.9-11.7-.9s-4,.2-6,.5c-1,.2-1.8.2-2.8.2-3.9,0-7.4-1.4-10.6-3.8-.4-.2-.6-.6-1-.9-4.9-3.3-6.5-7.9-5.2-13.6.6-2.5,1.2-5.2,2.4-7.4,2.5-4.5,6.3-7.2,11.7-7.3,7.6,0,15.2-.3,22.9-.5h1.2c6.1,0,12.1,1.3,17.3,4,7.9,4.1,13.6,10.4,15.2,20,2.2,14-1.6,26.5-8.7,38.2-3.6,5.9-7.8,11.4-12.1,16.7-6.9,8.5-15.7,14-26.4,16.4-4.8,1.1-9.4,1.6-14.1,1.6-10.3,0-20.2-2.7-29.4-8.3-8.9-5.2-16.2-12.4-20.9-21.8-5.3-10.6-9.8-21.3-12.2-32.9-1.9-9.2-2.1-18.5-1.7-27.8.2-4.1.3-8.3.7-12.4,1.1-13,5.6-24.9,12.5-35.9.8-1.3,1.7-2.5,2.5-3.8,7.5-12.1,18.1-20.2,31.5-24.7,6.5-2.2,13.2-4.1,20-5.3,1-.2,2-.3,2.9-.3M720.4,345c-1.7,0-3.3.2-5,.4-6.6,1.1-13.6,2.9-21.8,5.8-16.5,5.6-29.3,15.6-38.1,29.9-.3.5-.6,1-1,1.6-.4.6-1,1.3-1.4,2.1-8.3,13.3-13.1,27.3-14.4,41.4-.3,3.7-.5,7.5-.6,11v1.8c-.6,12.1,0,21.9,1.8,30.9,2.4,11.3,6.6,22.8,13.3,35.9,5.6,11,14.2,20.1,25.7,26.8,11.1,6.6,23.2,10,35.8,10s11.1-.6,16.8-1.9c13.4-3,24.6-10,33.3-20.6,5.5-6.7,9.7-12.5,13.1-18.2,9.5-15.6,12.9-30.8,10.4-46.5-2-12.6-9.4-22.6-21.6-29l-2.4-1.2c9-3.3,14.9-10.5,16.6-20.5v-.3c.2-.5.2-1,.3-1.4,1.4-9-1.1-16.8-3.8-23.2-3.1-7.5-8.2-14-15.6-19.9-6-4.8-14.1-10.5-24.8-12.9-2.4-.6-4.6-.8-6.7-1.1-1.1-.2-2.2-.3-3.3-.5-2.4-.4-4.4-.6-6.6-.6h0ZM695.8,438.1c0-.7,0-1.3,0-2.1.2-4.1.8-8.1,1.9-11.8,1.3-4.1,3.7-8.3,6.7-12.9,1-1.6,2.3-2.8,4.2-3.8,2.8-1.6,6.1-2.8,10.5-4,.6-.2,1.2-.2,1.7-.2.8,0,2.1.2,3.9,1.5,1.3,1,2.5,2.6,4,5.6,2.1,4.1,4.8,7.8,7.9,10.9-5.6.2-11.4.3-17.1.3-9.7,0-17.7,5-22.4,13.7-.6,1-1,1.9-1.3,2.8h0ZM716,483.2c-2.4,0-4.5-.4-6.6-1.3-1.7-.7-2.3-1.4-2.7-2.1-1.6-2.6-3.2-5.2-4.7-7.9-.4-.6-.8-1.3-1.1-2.1.8.7,1.7,1.3,2.5,2,.2.2.6.6,1,.9,5.6,4.1,11.7,6.3,18,6.3h1c-.2.3-.4.6-.6,1-.6.9-1.3,1.7-1.8,2.6-1.8.4-3.4.6-5,.6h0Z"></path>
          </g>
          <g>
            <path class="cls-1" d="M738,433.7c-6.1.2-12.3.3-18.4.4-5.4,0-9.2,2.7-11.7,7.3-1.2,2.2-1.8,4.8-2.4,7.4-1.2,5.6.3,10.2,5.2,13.6.4.2.7.6,1,.9,4,2.9,8.3,4.4,13.3,3.6,8.3-9.4,13.7-20.7,12.9-33.1Z"></path>
            <path class="cls-1" d="M776,457.5c-.4-2.7-1.2-5.1-2.2-7.2-8.9,8.2-19.7,14.1-31.3,18.1-.9,4-1.9,7.6-4,10.8-1.3,1.9-2.6,3.8-4,5.7,8.9,7.5,22,10,34.2,8.5,6.2-11.1,9.4-22.9,7.3-35.9Z"></path>
            <path class="cls-1" d="M650.2,442.5c-.2,8.3,0,16.7,1.8,24.9,1,4.4,2.1,8.7,3.6,12.9,6.5-10,16.7-17.5,28.9-20.3-.7-3.9-1.1-7.9-1.1-12s0-7.6,0-11.4c-11.4-3.5-23.9-1.3-33.2,5.9Z"></path>
            <path class="cls-1" d="M706.5,360c-3,.9-6,1.7-9,2.8-13.4,4.5-24,12.5-31.5,24.7-.8,1.3-1.7,2.5-2.5,3.8-.7,1.2-1.4,2.3-2.1,3.5,11.4-.5,22.6,5.6,29.3,15.2,1-1.7,2.1-3.5,3.2-5.2,2.1-3.4,5-6,8.6-8,1.6-.9,3.3-1.7,4.9-2.4,2.6-11.3,3.2-24-1-34.4Z"></path>
            <path class="cls-1" d="M765.9,384.6c-2.5-6.1-6.8-10.9-12-15-1-.8-2.1-1.6-3.2-2.4.2,11.3-7.9,22.3-16.7,29.7,2.3,2.3,4,5.1,5.4,7.9,1.6,3.1,3.5,5.8,6,8.2s2.9,2,4.5,2.1c8.5.4,16.7-2,18.5-12.3,0-.6.2-1,.2-1.6,1.1-5.9-.6-11.3-2.9-16.6Z"></path>
            <path class="cls-1" d="M718,495.5c-4.5.2-9-.3-13.3-2.1-3.6-1.4-6.5-3.7-8.6-7.1-.6-.9-1-1.7-1.6-2.6-6.5,11.5-10,25.1-9.4,38.4,13.5,8,28.1,10.1,43.6,6.6.4,0,.7-.2,1.1-.3-8.5-8.3-11.8-20.7-11.8-32.9Z"></path>
          </g>
        </g>
        <path class="cls-3" d="M700.1,515.5c24.4,9,54.2-2.6,60.9-29,6.8-26.9-18.6-54.2-46-43.7-8.5,3.3-4.8,17,3.8,13.7,10-3.8,21.7,0,27,9.7,5,9.4,1.9,21.5-5.1,29-19.6,21.1-50.9,4-61.3-17.2-11.1-22.7-8.1-55.3,6.8-75.7,13.7-18.8,49-28.5,59.7-1,3.3,8.4,17.1,4.8,13.7-3.8-9.9-25.4-39.1-34.1-62.9-22.4-26.3,13-37.4,43.6-37.8,71.4-.6,28.5,12.9,58.6,41.2,69Z"></path>
      </g>
      <g>
        <g>
          <g>
            <path class="cls-2" d="M204.1,531.8c-2.9,0-5.9-.7-8.6-2.1-2.3-1.2-4.3-2.6-6-3.9l-.8-.6c-4.8-3.6-7.8-8.7-8.6-15.2-.4-2.9-.4-5.7-.4-8.5v-2.1c0-1.2,0-2.3,0-3.4,0-.9,0-1.7,0-2.5,0-2.4,0-4.8-.2-7.1,0-4.6-.2-9.3-.2-14,0-5.2.5-10.4.8-15.5.2-2,.2-4,.4-6,0-1.3.2-2.8.3-4.1.2-2.2.3-4.4.4-6.5.2-6.2.4-12.3.6-17.2l.2-4.3v-24.4c0-6.3.2-12.1,1.8-18.1,1.1-4.2,2.6-7.7,4.7-10.7,2.4-3.5,5.6-6,9.6-7.2.6-.2,1-.3,1.6-.5,2.9-1,6-2,9.8-2h.6c9.3.2,16,5.7,18,14.6.9,3.8,1.3,7.7,1.7,10.9,1.4,12.6,1.7,25.4,1.8,37.8,0,1.7,0,3.5,0,5.3.2,11.6-.5,22.8-1.2,32.2l-.2,2.7c-.8,11-1.7,22.5-1.5,33.6,0,1.7,0,3.3-.2,4.9,0,1.4-.2,2.7-.2,4,0,1.9.2,3.8.4,5.6.8,6.1-1.5,11.5-6.8,16-2.5,2.1-5.5,4.5-9.1,6.2-3.1,1.5-6.1,2.2-9,2.2Z"></path>
            <path class="cls-5" d="M209.6,362h.4c6.3.2,10.8,3.6,12.1,9.8.7,3.4,1.2,6.9,1.6,10.3,1.7,14.1,1.7,28.2,1.9,42.4.2,10.6-.4,21.1-1.1,31.7-.9,12.2-1.9,24.5-1.7,36.8,0,2.9-.2,6-.2,8.9s.2,4.3.4,6.4c.6,4.5-1.4,7.7-4.7,10.5-2.4,2.1-4.8,4-7.7,5.3-2.1,1-4.2,1.5-6.4,1.5s-3.8-.5-5.8-1.4c-2.1-1.1-4-2.5-6-4-3.9-2.9-5.6-6.7-6.2-11.1-.5-3.3-.3-6.6-.4-9.9,0-2,.2-4,.2-5.9,0-7-.4-14-.2-20.9.2-7.1.8-14.1,1.2-21.2.2-3.6.6-7.1.7-10.7.3-8.3.6-16.7.7-21.6,0-10.4,0-17.4,0-24.4,0-5.6.2-11.1,1.6-16.6.8-3.1,2-6.1,3.8-8.8,1.6-2.3,3.6-3.9,6.3-4.8,3.2-1,6.2-2.3,9.5-2.3M209.6,349.7h0c-4.8,0-8.6,1.3-11.7,2.3-.5.2-1,.3-1.5.5-5.3,1.7-9.8,5-12.9,9.6-2.5,3.6-4.2,7.7-5.5,12.6-1.7,6.6-2,12.8-2,19.6,0,4.8,0,9.4,0,15.3v9c0,1.2,0,2.6-.2,4.2-.2,4.8-.3,10.9-.6,17.1,0,2-.2,4-.4,6.3,0,1.3-.2,2.8-.3,4.2-.2,2-.2,4-.4,6-.3,5.1-.7,10.4-.9,15.7,0,4.8,0,9.7.2,14.3,0,2.3,0,4.8.2,7.1,0,.6,0,1.3,0,2.2,0,1.1,0,2.4,0,3.7v2.1c0,2.8,0,6,.5,9.3,1.1,8.3,4.8,14.8,11,19.4.2.2.6.4.8.6,1.9,1.4,4,3.1,6.9,4.5,3.6,1.8,7.5,2.8,11.3,2.8s7.7-.9,11.6-2.6c4.1-1.9,7.5-4.5,10.6-7.1,8.8-7.5,9.8-15.8,9-21.6-.2-1.6-.3-3.2-.3-4.8s0-2.4,0-3.7c0-1.7.2-3.4.2-5.2,0-10.9.7-21.7,1.5-33.1l.2-2.7c.7-9.6,1.3-20.9,1.2-32.8,0-1.7,0-3.5,0-5.3-.2-12.5-.4-25.4-1.9-38.3-.4-3.4-1-7.5-1.8-11.6-2.5-11.7-11.7-19.1-23.9-19.4,0,0-.3,0-.6,0h0Z"></path>
          </g>
          <g>
            <path class="cls-1" d="M222.9,482.9c-10.8,8.5-23.7,14.1-37.1,16.3,0,3.3,0,6.6.4,9.8.6,4.4,2.4,8.3,6.2,11.1,1.9,1.4,3.7,2.9,6,4,4.1,2.1,8.2,1.7,12.1,0,2.9-1.3,5.3-3.3,7.7-5.3,3.3-2.8,5.3-6,4.7-10.5-.3-2.1-.4-4.3-.4-6.4s.3-6,.2-8.9c0-3.3,0-6.7.2-10.1Z"></path>
            <path class="cls-1" d="M225.6,424.5c0-4.2-.2-8.4-.2-12.6-10.9,9-23.9,15.1-37.4,19.2,0,2.9-.2,6.1-.3,9.2-.2,3.6-.5,7.1-.7,10.7-.2,4.4-.6,9-.9,13.4,14-3.3,27.4-9.3,39-17.8.5-7.3.7-14.7.6-22.1Z"></path>
            <path class="cls-1" d="M210,362c-3.5,0-6.7,1.2-9.9,2.2-2.7.9-4.8,2.5-6.3,4.8-1.8,2.7-3,5.7-3.8,8.8-1.4,5.4-1.6,11-1.6,16.6v5.6c12.7-5.1,24.6-12.1,35-21.2-.3-2.4-.7-4.7-1.2-7-1.3-6.2-5.9-9.5-12.1-9.8Z"></path>
          </g>
        </g>
        <path class="cls-3" d="M209.8,511.2c-3.7-45.1-3.3-90.3,1.2-135.4,1-9.1-13.3-9-14.2,0-4.5,45-4.9,90.2-1.2,135.4.8,9,15,9.1,14.2,0Z"></path>
      </g>
      <g>
        <g>
          <g>
            <path class="cls-2" d="M1016,527.8c-2.2,0-4.3-.2-6.2-.6-4.4-.9-9-2.1-13.4-4.5-7.1-4-9-9.8-9.2-13.9v-.2c-.2-2.9-.4-5.8-.4-8.8,0-8,.2-16.2.3-24.3.2-6.5.3-13.1.6-19.5v-2.3c.3-7.1.6-15,.9-22.9,0-2.9.3-5.8.5-8.6,0-1.7.2-3.4.3-5.2s.2-3.7.2-5.6v-24c0-3.4.2-6.1.6-8.6.3-2.2,1.2-4,1.8-5.5l.2-.5c1.7-3.6,4-6.7,6.9-9.4,2.5-2.2,5.4-3.4,8.6-3.6,1,0,2,0,3.1,0,3.1,0,7.7.4,12,3.5,6.5,4.8,10.5,11.2,11.8,19,1.1,6.7,1.7,13.7,1.7,20.8v3c0,4.5,0,9.2,0,13.9-.2,5.1-.4,10.2-.6,15.2,0,2.1-.2,4.3-.3,6.4v.2c0,5.9-.4,11.7-.6,17.3-.3,6.7-.6,13.5-.6,20.2,1.8-.2,3.6-.4,5.4-.7,4.2-.6,8.5-.9,12.8-.9s3.7,0,5.6.2c4.6.3,9.1,1.3,13.3,2.9,2.9,1.1,5.4,2.9,7.6,5.6,2.9,3.3,4.8,6.7,6,10.4,1.8,5.7,2.2,14.3-6.5,22.5-6,5.6-13,6.3-17.9,6.3h-12.3c-2.6,0-5,0-7.1,0h-.8c-4.7,0-9.4.6-14.3,1.3h-.5c-3.2.7-6.3,1.1-9.5,1.1Z"></path>
            <path class="cls-5" d="M1010.7,366.1c2.9,0,5.7.4,8.3,2.3,5.2,3.8,8.3,8.7,9.4,15.1,1.1,6.6,1.6,13.2,1.7,19.8,0,5.6.2,11.1,0,16.7-.2,7.1-.6,14.4-.9,21.5v.2c-.2,14-1.6,27.9-1.3,41.9v2.7c4.4-.5,8.4-.9,12.5-1.4,4-.6,7.9-.9,11.9-.9s3.5,0,5.2.2c4,.2,7.8,1,11.5,2.5,2.1.8,3.7,2.1,5.2,3.8,2.1,2.5,3.8,5.2,4.8,8.3,2.1,6.5-.2,11.7-4.8,16.2-3.9,3.6-8.6,4.6-13.6,4.7-4.1,0-8.2,0-12.3,0s-4.7,0-7.1,0h-1c-5.1,0-10.1.6-15.2,1.3-2.9.4-6,.9-9,.9s-3.3-.2-4.9-.5c-4-.9-8-1.8-11.7-3.9-3.6-2-5.8-4.8-6-8.9-.2-2.9-.4-5.7-.4-8.6,0-8.1.2-16.1.3-24.2.2-7.2.4-14.5.6-21.7.2-7.6.5-15.2.8-22.9.2-4.6.5-9.1.7-13.7,0-2,.2-4,.2-6v-24c0-2.6.2-5.2.5-7.8.2-1.4,1-2.9,1.6-4.3,1.3-2.8,3.1-5.2,5.4-7.3,1.4-1.3,3-1.9,4.8-2,.9-.2,1.7-.2,2.7-.2M1010.7,353.7h0c-1.3,0-2.4,0-3.4,0-4.7.2-9,2-12.5,5.1-3.6,3.2-6.4,7-8.4,11.4l-.2.4c-.8,1.7-1.9,4.1-2.4,7.2-.4,2.8-.6,5.7-.6,9.4v24c0,1.7,0,3.6-.2,5.3,0,1.7-.2,3.4-.3,5.1-.2,2.9-.3,5.8-.5,8.7-.3,7.4-.6,14.4-.8,22.9v2.2c-.3,6.4-.5,13.1-.6,19.7-.2,8.2-.2,16.3-.3,24.4,0,3.3.2,6.3.4,9.2v.2c.6,8,4.9,14.8,12.4,18.9,5.1,2.9,10.3,4.1,15.2,5.2,2.4.5,4.8.7,7.5.7s7.1-.5,10.2-.9h.5c4.7-.7,9.2-1.3,13.5-1.3h.7c2.2,0,4.6,0,7.3,0h12.4c9.2,0,16.3-2.7,22.1-8,11.7-11,10.1-22.9,8.1-29-1.4-4.4-3.8-8.6-7.1-12.5-2.9-3.4-6.3-5.9-10.2-7.3-4.8-1.8-9.9-2.9-15.2-3.3-2-.2-4-.2-6-.2-4,0-8,.2-11.9.7,0-4.2.3-8.5.6-12.9.2-5.6.6-11.5.6-17.4v-.2c0-2.1.2-4.3.3-6.4.2-5,.5-10.2.6-15.3.2-4.8,0-9.4,0-14v-3c0-7.4-.6-14.7-1.8-21.7-1.6-9.5-6.3-17.2-14.2-23-5.6-4.1-11.6-4.6-15.6-4.6h0Z"></path>
          </g>
          <g>
            <path class="cls-1" d="M1030,403.2c0-6.7-.6-13.3-1.7-19.8-.2-1.3-.5-2.4-.9-3.6-7.7,9.8-19.4,16.7-31.9,20.9v10.6c0,2,0,4-.2,6-.2,4.3-.5,8.5-.7,12.8,13.3-2.9,25.7-9.1,35.4-18.3,0-2.9,0-5.7,0-8.6Z"></path>
            <path class="cls-1" d="M1027.9,486.3v-2.7c-.2-11,.6-22,1-32.9-10.2,7.9-22.4,13.3-35.4,16.3,0,2.9-.2,5.9-.2,8.7-.2,8.1-.2,16.1-.3,24.2,0,2.9.2,5.7.4,8.6,0,.6.2,1.2.2,1.7,13.3-4.7,24.8-13.6,34.9-24,0,0-.3,0-.6,0Z"></path>
            <path class="cls-1" d="M1078.9,498.6c-1-3.1-2.7-5.8-4.8-8.3-1.4-1.7-3.1-3-5.2-3.8-3.6-1.4-7.5-2.2-11.3-2.5-2.5,12.5-7.6,25-15.2,35.4,6,0,12.1,0,18,0s9.8-1,13.6-4.7c4.7-4.4,6.9-9.6,4.8-16.1Z"></path>
          </g>
        </g>
        <path class="cls-3" d="M1063.1,495.2c-13.1-.6-26.4-.5-39.4-1.8-7.3-.7-7.9-2.5-8-9.6-.2-6.7.2-13.5.4-20.2.5-26.3,1-52.5,1.5-78.9.2-9.1-14-9.1-14.2,0-.6,33-2.1,66-1.9,99,0,11,3.5,20.5,15.2,23.1,14.6,3.2,31.4,1.8,46.3,2.5,9.3.5,9.2-13.7,0-14.2Z"></path>
      </g>
      <g>
        <g>
          <g>
            <path class="cls-2" d="M266.6,530.3c-2.8,0-5.6-.6-8.3-1.9-7.7-3.6-12.5-10-14-18.6-.5-2.5-.4-5-.2-7.4.2-3.4.5-6.7.7-10.1.2-1.6.2-3.2.4-4.8l.2-3.3c.4-5.8.9-11.5,1.3-17.3,0-1.4.2-2.9.2-4.4v-1.2c0-3.2,0-6.3.2-9.5,0-6.9.2-14,.5-21,.3-8,1-16.1,1.5-23.9.2-1.9.2-3.9.4-5.8.3-4.2.7-8.6,1.3-13.4.2-1.7.8-3.3,1.2-4.3,0-.2.2-.5.2-.7.2-.6.6-1.2.7-1.6,0,0,0-.2.2-.3,2.6-8.2,8.6-13,17-13.8,2.5-.2,5-.2,7.4-.2h1c2.9,0,7,1,10.4,5.3,2.9,3.8,6,7.9,8.5,12.7,1,1.8,2.1,3.6,3.5,5.5,1.2,1.7,2.4,3.4,3.5,5.4,3.3,5.7,6.5,11.5,9.7,17.1,3,5.4,6.1,10.9,9.2,16.3.3.6.6,1,.9,1.6.4-12.5.6-25.9.5-40.9,0-4.2.2-8.3.7-12.1.8-6,3.5-11.2,7.9-15.2.8-.7,1.7-1.5,3-2.1,4.1-2,8.3-3,12.5-3s7.5.9,11,2.5c7.5,3.6,12,10.3,12.5,18.9.2,2.2,0,4.4,0,6.4,0,.7,0,1.4,0,2.2s0,1.3,0,2c0,.8,0,1.4,0,2.1v8.8c0,5.6,0,11.3,0,17.1-.2,11.8-.5,22.5-1.2,33.3-.6,9.9-1.7,19.8-2.7,29.5l-.5,4.4c-.6,6-2,12.1-4.2,18.6-2.5,7.1-9.7,15-19.8,15.3-.5,0-1,0-1.6,0-.9,0-1.8.2-2.9.2s-1.3,0-1.9,0c-5.2-.6-8.7-3.5-11.7-6.2-6.3-5.8-11.1-12.6-15.6-19.2-1-1.4-2-2.9-3-4.3-1.7-2.4-3-4.8-4.4-7.1-.7-1.3-1.3-2.5-2.1-3.6-1.3-2.3-2.8-4.6-4.2-6.8-1.3-2.1-2.7-4.4-4-6.6-.2,4.8-.5,9.7-.8,14.4v.2c-.3,5.2-.6,10.6-1.2,15.9-.6,5.5-1.3,11-2.2,16.6-1.1,6.9-5.6,12.5-13.1,16.4-2.5,1.3-5.1,1.9-7.9,1.9Z"></path>
            <path class="cls-5" d="M348.4,363.6c2.8,0,5.6.6,8.3,2,5.6,2.7,8.6,7.5,9,13.6.2,2.7,0,5.4-.2,8,0,1.4-.2,2.9-.2,4.3,0,8.6.2,17.2,0,25.8-.2,11-.5,22.1-1.2,33-.7,11.3-2,22.5-3.1,33.7-.6,5.9-2,11.7-3.9,17.3-1.7,5.2-7.1,10.9-14.2,11.1-1.4,0-2.9.2-4.4.2s-.8,0-1.3,0c-3.3-.4-5.9-2.5-8.3-4.7-7.1-6.5-12.2-14.7-17.7-22.5-2.3-3.3-4.1-7-6.2-10.4-3.3-5.6-6.7-11-10.1-16.5-2.2-3.7-4.2-7.5-6.3-11.3-.7-1.2-1.3-2.5-2.1-3.6-.2,0-.2,0-.4.2-.2,2.1-.4,4.2-.4,6.3,0,3.3,0,6.4-.2,9.7-.2,6.3-.6,12.7-1,19-.3,5.2-.6,10.6-1.2,15.8-.6,5.4-1.3,10.9-2.1,16.2-1,5.9-5.1,9.4-9.9,12-1.6.8-3.3,1.2-5,1.2s-3.8-.5-5.7-1.3c-6.1-2.9-9.4-7.7-10.6-14.1-.3-1.9-.3-4-.2-5.9.3-4.9.7-9.8,1.1-14.8.6-6.9,1-13.7,1.5-20.6.2-2,.2-4,.2-6,.2-10.2.2-20.2.6-30.4.4-9.8,1.2-19.7,1.9-29.5.3-4.4.7-8.7,1.2-13.1.2-1.2.7-2.4,1.1-3.5.3-.7.7-1.4,1-2.1,1.8-5.8,5.6-9,11.7-9.6,2.6-.2,5.2-.2,7.8-.2h0c2.3,0,4,1.1,5.5,2.9,2.9,3.7,5.7,7.5,7.9,11.8,2,3.9,4.9,7.3,7.1,11.1,6.3,11.1,12.5,22.4,19,33.5,3.6,6.2,7.4,12.3,11.5,18.3,0-.6.2-1.1.2-1.7,1-19.7,1.3-39.4,1.3-59.2s.2-7.5.6-11.3c.6-4.4,2.5-8.4,6-11.4.5-.4,1-.9,1.5-1.1,3.5-1.4,6.8-2.2,10.1-2.2M348.4,351.2c-5,0-10.1,1.2-15.1,3.6-2,1-3.4,2.1-4.4,3.1-5.5,5-9,11.6-9.9,19-.6,4-.8,8.4-.8,12.9,0,6.3,0,12.5,0,18.3-2.9-5.1-5.8-10.3-8.8-15.5-1.2-2.1-2.5-4-3.7-5.8-1.2-1.7-2.3-3.3-3.1-4.8-2.7-5.2-6-9.6-9-13.6-3.8-5-9.3-7.7-15.2-7.7h-1c-2.4,0-5.1,0-7.9.2-10.6,1-18.6,7.4-22.1,17.5-.2.5-.6,1.3-1,2.1,0,.2-.2.3-.2.6-.6,1.3-1.3,3.3-1.7,5.9-.6,4.8-1,9.4-1.3,13.6-.2,1.9-.2,3.8-.4,5.8-.6,7.9-1.1,16-1.5,24.1-.3,7.1-.4,14.3-.5,21.2,0,3.1,0,6.3-.2,9.4v1.2c0,1.4,0,2.9-.2,4.1-.4,5.8-.9,11.7-1.3,17.5l-.2,3.2c-.2,1.6-.2,3.2-.4,4.8-.2,3.3-.6,6.7-.7,10.2-.2,2.7-.2,5.6.3,8.8,1.9,10.7,8,18.7,17.5,23.2,3.6,1.7,7.2,2.5,10.9,2.5s7.4-.9,10.7-2.6c9.4-4.9,14.8-12,16.3-20.9,1-5.6,1.7-11.3,2.3-16.9.4-3.6.6-7.2.9-10.8,1.3,2.3,2.8,4.9,4.5,7.5,1,1.3,1.9,2.8,2.9,4.2,4.8,6.9,9.7,14,16.6,20.3,2.7,2.4,7.6,6.9,15.2,7.8.9,0,1.7.2,2.6.2,1.3,0,2.5,0,3.4-.2.5,0,1,0,1.3,0,13.1-.4,22.4-10.4,25.5-19.5,2.4-7,3.9-13.5,4.5-20,.2-1.5.3-3,.5-4.4,1-9.7,2.1-19.7,2.7-29.7.7-10.9,1-21.7,1.2-33.6.2-5.8,0-11.7,0-17.3v-8.8c0-.4,0-1,0-1.7,0-.6,0-1.3.2-2.2,0-.7,0-1.3,0-2.1,0-2.1.2-4.5,0-7.1-.6-10.7-6.4-19.4-15.9-24-4.4-2.3-9-3.4-13.7-3.4h0Z"></path>
          </g>
          <g>
            <path class="cls-1" d="M291.6,387.6c-2.2-4.3-5-8-7.9-11.8-1.4-1.8-3.2-2.9-5.5-2.9s-5.2,0-7.8.2c-6,.6-9.8,3.7-11.7,9.6-.2.8-.7,1.4-1,2.1-.4,1.2-1,2.3-1.1,3.5-.5,4.4-1,8.7-1.2,13.1-.3,4.8-.7,9.5-1,14.3,15-4.7,29.1-11.9,41.4-21.4-1.6-2.1-3.1-4.3-4.4-6.7Z"></path>
            <path class="cls-1" d="M316.9,493.5c3.6,5.2,7.5,10.2,12.2,14.6,2.4,2.1,4.9,4.3,8.3,4.7,1.8.2,3.7-.2,5.6-.2,7.1-.2,12.5-6,14.2-11.1,1.9-5.6,3.3-11.3,3.9-17.3.5-4.7,1-9.4,1.4-14-14.3,9-29.6,17-45.6,23.4Z"></path>
            <path class="cls-1" d="M250.5,509.7c1.3,6,4.6,10.4,10.4,13.1,3.6,1.7,7.3,1.9,10.6.2,4.8-2.5,9-6.1,9.9-12,.3-2.1.6-4.3,1-6.4-10.6,2.5-21.3,4.2-31.9,5.2Z"></path>
            <path class="cls-1" d="M285.8,459.8c.2-3.3,0-6.4.2-9.7,0-2.1.3-4.2.4-6.3.2,0,.2,0,.4-.2.7,1.2,1.4,2.5,2.1,3.6,2.1,3.7,4.1,7.5,6.3,11.3,2.1,3.5,4.1,6.9,6.3,10.3,23.6-9.2,45.4-22.8,63.6-39.7,0-4,.2-7.9.3-11.9.2-8.6,0-17.2,0-25.8s.2-2.9.2-4.3c0-1.1,0-2.3.2-3.4-10,12.9-22.1,23.9-35.4,32.8-.2,10.7-.5,21.5-1,32.2,0,.6,0,1.1-.2,1.7-4.2-6.1-8-12.1-11.5-18.3-1.1-2-2.2-4-3.3-6-19,9.9-39.8,16.5-61.1,19.8,0,5.1-.2,10.2-.2,15.3,0,2,0,4-.2,6-.3,4.6-.7,9.2-1,13.8,11.3-1.2,22.4-3.5,33.3-6.7.2-4.9.4-9.8.6-14.7Z"></path>
          </g>
        </g>
        <path class="cls-3" d="M355.5,387.9c.2-9.1-14-9.1-14.2,0-.4,28.7.6,57.8-1.3,86.5-.3,4.4-1,11.4-7.4,7.2-2.2-1.4-4-6.2-5.3-8.3-3.5-6-6.9-12-10.4-17.9-7.2-12.5-14.4-25.1-21.7-37.5-4.4-7.5-9.5-18.7-20.1-17.7-11.5,1.1-11.8,13.1-12.5,22.1-2.2,27.9-2.9,56-2.3,84,.2,9.1,14.4,9.1,14.2,0-.3-14.6-.3-29.3,0-43.9.4-14.4.2-29.6,2.5-43.8.6-3.6-.2-4.4,2.1-.2,1.7,3.3,3.8,6.5,5.6,9.8,3.5,6,6.9,12,10.4,17.9,7.5,12.9,14.5,26.1,22.4,38.6,4.5,7.2,11,14.2,20.4,12.9,10.1-1.3,15.1-11.1,16-20.2,1.5-14.5.6-29.6.9-44.2.2-15.2.5-30.3.7-45.4Z"></path>
      </g>
      <g>
        <g>
          <g>
            <path class="cls-2" d="M1250.6,530.3c-2.8,0-5.6-.6-8.3-1.9-7.7-3.6-12.5-10-14-18.6-.5-2.5-.4-5-.2-7.4.2-3.4.5-6.7.7-10.1.2-1.6.2-3.2.4-4.8l.2-3c.5-5.9.9-11.7,1.3-17.5,0-1.4.2-2.9.2-4.4v-1.2c0-3.2,0-6.3.2-9.5,0-6.9.2-14,.5-21,.3-8,1-16.1,1.5-24,.2-1.9.2-3.8.4-5.8.3-4.2.7-8.6,1.3-13.4.2-1.7.8-3.3,1.2-4.3,0-.2.2-.5.2-.7.2-.6.6-1.2.7-1.6,0,0,0-.2.2-.3,2.6-8.2,8.6-13,17-13.8,2.5-.2,5-.2,7.4-.2h1c2.9,0,7,1,10.4,5.3,2.9,3.8,6,7.9,8.5,12.7,1,1.8,2.1,3.6,3.5,5.5,1.2,1.7,2.4,3.4,3.5,5.4,3.3,5.7,6.5,11.5,9.7,17.1,3,5.4,6.1,10.9,9.2,16.3.3.6.6,1,.9,1.6.4-12.5.6-25.9.5-40.9,0-4.2.2-8.3.7-12.1.8-6,3.5-11.2,7.9-15.2.8-.7,1.7-1.5,3-2.1,4.1-2,8.3-3,12.5-3s7.5.9,11,2.5c7.5,3.6,12,10.3,12.5,18.9.2,2.2,0,4.4,0,6.4,0,.7,0,1.4,0,2.2s0,1.3,0,2c0,.8,0,1.5,0,2.1v8.8c0,5.6,0,11.3,0,17.1-.2,11.8-.5,22.5-1.2,33.3-.6,9.9-1.7,19.8-2.7,29.5l-.5,4.4c-.6,6-2,12.1-4.2,18.6-2.5,7.1-9.7,15-19.8,15.3-.5,0-1,0-1.6,0-.9,0-1.8.2-2.9.2s-1.3,0-1.9,0c-5.2-.6-8.7-3.5-11.7-6.2-6.3-5.8-11.1-12.6-15.6-19.2-1-1.4-2-2.9-3-4.3-1.7-2.4-3-4.8-4.4-7.1-.7-1.3-1.3-2.5-2.1-3.6-1.3-2.3-2.8-4.6-4.2-6.9-1.3-2.1-2.7-4.4-4-6.5-.2,4.8-.5,9.7-.8,14.4v.2c-.3,5.2-.6,10.6-1.2,15.9-.6,5.5-1.3,11-2.2,16.6-1.1,6.9-5.6,12.5-13.1,16.4-2.5,1.3-5.2,1.9-7.9,1.9Z"></path>
            <path class="cls-5" d="M1332.5,363.6c2.8,0,5.6.6,8.3,2,5.6,2.7,8.6,7.5,9,13.6.2,2.7,0,5.4-.2,8,0,1.4-.2,2.9-.2,4.3,0,8.6.2,17.2,0,25.8-.2,11-.5,22.1-1.2,33-.7,11.3-2,22.5-3.1,33.7-.6,5.9-2,11.7-3.9,17.3-1.7,5.2-7.1,10.9-14.2,11.1-1.4,0-2.9.2-4.4.2s-.8,0-1.3,0c-3.3-.4-5.9-2.5-8.3-4.7-7.1-6.5-12.2-14.7-17.7-22.5-2.3-3.3-4.1-7-6.2-10.4-3.3-5.6-6.7-11-10.1-16.5-2.2-3.7-4.2-7.5-6.3-11.3-.7-1.2-1.3-2.5-2.1-3.6-.2,0-.2,0-.4.2-.2,2.1-.4,4.2-.4,6.3,0,3.3,0,6.4-.2,9.7-.2,6.3-.6,12.7-1,19-.3,5.2-.6,10.6-1.2,15.8-.6,5.4-1.3,10.9-2.1,16.2-1,5.9-5.1,9.4-9.9,12-1.6.8-3.3,1.2-5,1.2s-3.8-.5-5.7-1.3c-6.1-2.9-9.4-7.7-10.6-14.1-.3-1.9-.3-4-.2-5.9.3-4.9.7-9.8,1.1-14.8.6-6.9,1-13.7,1.5-20.6.2-2,.2-4,.2-6,.2-10.2.2-20.2.6-30.4.4-9.8,1.2-19.7,1.9-29.5.3-4.4.7-8.7,1.2-13.1.2-1.2.7-2.4,1.1-3.5.3-.7.7-1.4,1-2.1,1.8-5.8,5.6-9,11.7-9.6,2.6-.2,5.2-.2,7.8-.2h0c2.3,0,4,1.1,5.5,2.9,2.9,3.7,5.7,7.5,7.9,11.8,2,3.9,4.9,7.3,7.1,11.1,6.3,11.1,12.5,22.4,19,33.5,3.6,6.2,7.4,12.3,11.5,18.3,0-.6.2-1.1.2-1.7,1-19.7,1.3-39.4,1.3-59.2s.2-7.5.6-11.3c.6-4.4,2.5-8.4,6-11.4.5-.4,1-.9,1.5-1.1,3.5-1.4,6.7-2.2,10.1-2.2M1332.5,351.2c-5,0-10.1,1.2-15.1,3.6-2,1-3.4,2.1-4.4,3.1-5.5,5-9,11.6-9.9,19-.6,4-.8,8.4-.8,12.9,0,6.3,0,12.5,0,18.3-2.9-5.1-5.8-10.3-8.8-15.5-1.2-2.1-2.5-4-3.7-5.8-1.2-1.7-2.3-3.3-3.1-4.8-2.7-5.2-6-9.6-9-13.6-3.8-5-9.3-7.7-15.2-7.7h-1c-2.4,0-5.1,0-7.9.2-10.6,1-18.7,7.4-22.1,17.6-.2.5-.6,1.3-1,2.1,0,.2-.2.3-.2.6-.6,1.3-1.3,3.3-1.7,5.9-.6,4.8-1,9.3-1.3,13.6-.2,1.9-.2,3.9-.4,5.8-.6,7.9-1.1,16-1.5,24.1-.3,7.1-.4,14.3-.5,21.2,0,3.1,0,6.3-.2,9.4v1.2c0,1.4,0,2.9-.2,4.1-.4,5.8-.9,11.7-1.3,17.5l-.2,3.1c-.2,1.6-.2,3.2-.4,4.8-.2,3.3-.6,6.7-.7,10.2-.2,2.7-.2,5.6.3,8.8,1.9,10.7,8,18.7,17.5,23.2,3.6,1.7,7.2,2.5,10.9,2.5s7.4-.9,10.7-2.6c9.4-4.9,14.8-12,16.3-20.9,1-5.6,1.7-11.3,2.3-16.9.4-3.6.6-7.2.9-10.8,1.3,2.3,2.8,4.9,4.5,7.5,1,1.3,1.9,2.8,2.9,4.2,4.8,6.9,9.7,14,16.6,20.3,2.7,2.4,7.6,6.9,15.2,7.8.9,0,1.7.2,2.6.2,1.3,0,2.5,0,3.4-.2.5,0,1,0,1.3,0,13.1-.4,22.4-10.4,25.5-19.5,2.4-7,3.9-13.5,4.5-20,.2-1.5.3-3,.5-4.4,1-9.7,2.1-19.7,2.7-29.7.7-10.9,1-21.7,1.2-33.6.2-5.8,0-11.7,0-17.3v-8.8c0-.4,0-1,0-1.7,0-.6,0-1.3.2-2.2,0-.7,0-1.3,0-2.1,0-2.1.2-4.5,0-7.1-.6-10.7-6.4-19.4-15.9-24-4.4-2.3-9-3.4-13.7-3.4h0Z"></path>
          </g>
          <g>
            <path class="cls-1" d="M1275.6,387.6c-2.2-4.3-5-8-7.9-11.8-1.4-1.8-3.2-2.9-5.5-2.9s-5.2,0-7.8.2c-6,.6-9.8,3.7-11.7,9.6-.2.8-.7,1.4-1,2.1-.4,1.2-1,2.3-1.1,3.5-.5,4.4-1,8.7-1.2,13.1-.3,4.8-.7,9.5-1,14.3,15-4.7,29.1-11.9,41.4-21.4-1.6-2.1-3.1-4.3-4.4-6.7Z"></path>
            <path class="cls-1" d="M1300.9,493.5c3.6,5.2,7.5,10.2,12.2,14.6,2.4,2.1,4.9,4.3,8.3,4.7,1.8.2,3.7-.2,5.6-.2,7.1-.2,12.5-6,14.2-11.1,1.9-5.6,3.3-11.3,3.9-17.3.5-4.7,1-9.4,1.4-14-14.3,9-29.7,17-45.6,23.4Z"></path>
            <path class="cls-1" d="M1234.5,509.7c1.3,6,4.6,10.4,10.4,13.1,3.6,1.7,7.3,1.9,10.6.2,4.8-2.5,9-6.1,9.9-12,.3-2.1.6-4.3,1-6.4-10.6,2.5-21.2,4.2-31.9,5.2Z"></path>
            <path class="cls-1" d="M1269.8,459.8c.2-3.3,0-6.4.2-9.7,0-2.1.3-4.2.4-6.3.2,0,.2,0,.4-.2.7,1.2,1.4,2.5,2.1,3.6,2.1,3.7,4.1,7.5,6.3,11.3,2.1,3.5,4.1,6.9,6.3,10.3,23.6-9.2,45.4-22.8,63.6-39.7,0-4,.2-7.9.3-11.9.2-8.6,0-17.2,0-25.8s.2-2.9.2-4.3c0-1.1,0-2.3.2-3.4-10,13-22.1,23.9-35.4,32.9-.2,10.7-.5,21.5-1,32.2,0,.6,0,1.1-.2,1.7-4.2-6.1-8-12.1-11.5-18.3-1.1-2-2.2-4-3.3-6-19,9.9-39.8,16.5-61.1,19.8,0,5.1-.2,10.2-.2,15.3,0,2,0,4-.2,6-.3,4.6-.7,9.2-1,13.8,11.3-1.2,22.4-3.5,33.3-6.7.2-5,.4-9.8.6-14.8Z"></path>
          </g>
        </g>
        <path class="cls-3" d="M1339.5,387.9c.2-9.1-14-9.1-14.2,0-.4,28.7.6,57.8-1.3,86.5-.3,4.4-1,11.4-7.4,7.2-2.2-1.4-4-6.2-5.3-8.3-3.5-6-6.9-12-10.4-17.9-7.2-12.5-14.4-25.1-21.7-37.5-4.4-7.5-9.5-18.7-20.1-17.7-11.5,1.1-11.8,13.1-12.5,22.1-2.2,27.9-2.9,56-2.3,84,.2,9.1,14.4,9.1,14.2,0-.3-14.6-.3-29.3,0-43.9.4-14.4.2-29.6,2.5-43.8.6-3.6-.2-4.4,2.1-.2,1.7,3.3,3.8,6.5,5.6,9.8,3.5,6,6.9,12,10.4,17.9,7.5,12.9,14.5,26.1,22.4,38.6,4.5,7.2,11,14.2,20.4,12.9,10.1-1.3,15.1-11.1,16-20.2,1.5-14.5.6-29.6.9-44.2.3-15.2.6-30.3.7-45.4Z"></path>
      </g>
      <g>
        <g>
          <g>
            <path class="cls-2" d="M451.6,524.8c-5,0-9.8-1.9-13.9-5.6l-.6-.6c-.5-.5-1-.9-1.5-1.3-2.5-2.2-3.9-4.8-4.6-6.6-2.3-5.4-3.3-10.1-2.9-14.8.8-12.9.7-25.9.6-38.7,0-5,0-10.2,0-15.2,0-7.4-.2-15-.4-22.3,0-2.3-.2-4.5-.2-6.8s0-1.8-.2-2.7l-1.5-.2c-4.1-.3-8.3-.6-12.5-.9-.8,0-1.7,0-2.5,0h-1.9c-.8,0-1.8,0-2.9,0-2.3,0-4.8-.2-7.3-.8-3.4-.7-6.3-2.6-8.3-5.6-.5-.7-1.3-1.4-2.1-2.3-3.6-3.5-5.7-8.9-5.6-14.4,0-5.2,2.2-9.8,6-13.1,2-1.7,4-3.5,6.1-5.1,4.4-3.3,9.5-4.9,15.9-4.9s2.3,0,3.6.2c2.2.2,4.4.2,6.6.3,4.2,0,8.5,0,12.7,0s10,0,15,0,3.9,0,5.7.2c2.2,0,4.4.2,6.4.2h1.1c3.4,0,6.8-.2,10.2-.4,2,0,4-.2,6-.2.8,0,1.6,0,2.4,0s2.1,0,3.2,0h1.3c2.1.2,4.2.2,6.3.2s4.4,0,6.2-.3c1.1-.2,2.3-.2,3.6-.2,2.5,0,4.8.2,6.8.6,6.5.9,11.8,4.6,15.6,10.8,1.7,2.9,2.9,5.4,3.8,7.9,2.9,8.3,0,17.9-7.1,23.6-5.6,4.4-11.9,6.4-19.4,6.4h-.9c-6.8-.2-13.8-.2-20.5-.2h-4.8c0,0,0,2.3.2,3.3.2,3.3.3,6.6.3,10,.2,18.7.4,40.9.6,63.2,0,5.8-.2,10.2-.6,14.4-.9,8.3-5.6,15.2-13,19.3-3.6,1.7-7.1,2.7-10.8,2.7Z"></path>
            <path class="cls-5" d="M501.5,369c2,0,4,.2,6,.5,5,.6,8.5,3.6,11,7.8,1.3,2.1,2.5,4.4,3.3,6.7,2.1,6-.2,12.7-5.2,16.6-4.6,3.6-9.8,5.2-15.6,5.2h-.7c-9.8-.2-19.5-.2-29.4-.2h-2.8c.2,2.4.3,4.5.4,6.7.2,4.3.4,8.6.5,12.9.2,21.1.4,42.1.6,63.2,0,4.5,0,9.1-.6,13.6-.7,6.5-4.4,11.5-9.9,14.6-2.5,1.3-5.1,2.1-7.7,2.1s-6.7-1.3-9.8-4c-.7-.6-1.4-1.3-2.2-2-1.3-1.2-2.3-2.7-3-4.4-1.7-3.8-2.8-7.8-2.5-12,1.1-18.1.5-36.2.6-54.3,0-9.8-.3-19.5-.6-29.3,0-2.7-.3-5.3-.6-8.2-1.7-.2-3.3-.4-4.9-.6-4.8-.4-9.7-.8-14.5-1-1,0-1.9,0-2.8,0h-1.9c-.9,0-1.7,0-2.5,0-2.1,0-4.3-.2-6.3-.6-1.9-.4-3.4-1.5-4.5-3.1-.8-1.2-1.8-2.2-2.9-3.2-4.3-4.1-5.6-13.4.2-18.4,1.9-1.7,3.8-3.3,5.8-4.8,3.6-2.9,7.9-3.6,12.2-3.6s2.1,0,3.2.2c2.3.2,4.7.3,7,.3,9.2,0,18.5,0,27.7.2,4,0,8.2.3,12.2.3h1.2c5.5,0,10.9-.5,16.3-.6h2.1c1,0,2,0,2.9,0,2.6,0,5.2.2,7.8.2s4.6,0,7-.4c.9-.2,1.8-.3,2.8-.3M501.5,356.7c-1.5,0-2.9,0-4.4.2-1.6.2-3.3.3-5.5.3s-3.9,0-6-.2h-1.3c-1.2-.2-2.3-.2-3.3-.2s-1.8,0-2.6,0c-2.1,0-4.1.2-6,.2-3.5.2-6.7.3-10,.4h-1c-2,0-4,0-6.2-.2-1.9,0-3.9-.2-5.9-.2-5,0-10.1,0-15,0s-8.5,0-12.7,0-4,0-6.2-.2c-1.4,0-2.8-.2-4-.2-7.8,0-14.3,2.1-19.7,6.2-2.3,1.7-4.4,3.6-6.3,5.3h-.2c-5,4.4-7.9,10.6-8,17.6-.2,7.2,2.6,14.3,7.5,19,.3.3,1.1,1,1.3,1.3,2.9,4.2,7.3,7.1,12.1,8.1,2.9.6,5.7.8,8.3,1,1.2,0,2.3,0,3.2,0h1.9c.6,0,1.4,0,2.1,0,2.8.2,5.6.4,8.4.6,0,1.3,0,2.6,0,4,.2,7.3.4,14.8.4,22.2s0,10.3,0,15.3c0,12.6.2,25.6-.6,38.2-.3,5.7.7,11.3,3.5,17.6,1,2.4,2.8,5.8,6.3,8.8.5.4,1,.9,1.4,1.3l.6.6c5.2,4.6,11.4,7.1,18,7.1s9.3-1.2,13.6-3.6c9.4-5.2,15.1-13.7,16.2-24,.5-4.4.6-9,.6-15.1,0-22.4-.3-44.6-.6-63.2,0-2.4,0-4.8-.2-7.1,6.2,0,12.6,0,18.8.2h1c8.8,0,16.6-2.6,23.2-7.7,9.2-7.2,13-19.7,9.2-30.5-1-2.8-2.4-5.6-4.3-8.9-4.7-7.9-11.6-12.6-20-13.7-2.2-.3-4.8-.6-7.7-.6h0Z"></path>
          </g>
          <g>
            <path class="cls-1" d="M434.8,471.2c0,8.4-.2,16.8-.6,25.2,0,1.5,0,2.9.2,4.3,13-4,24.8-11,35.4-20.2,0-9.9-.2-19.8-.2-29.8-9.5,9.5-21.8,15.9-34.7,20.5Z"></path>
            <path class="cls-1" d="M467.3,405.7c-11.5-2.1-23-1.4-34.5-1.3v.2c.2,0,.6,0,.8,0,.2,2.9.5,5.5.6,8.2.2,8.3.5,16.5.6,24.8,12.5-2.9,24.8-6.9,34.5-15.2,0-2.7-.2-5.4-.3-8.1-.7-2.9-1.3-5.7-1.6-8.6Z"></path>
            <path class="cls-1" d="M432.8,404.4h-1c-1-.2-2.1-.2-3.1-.3-4.8-.4-9.7-.8-14.4-1-2.2-.2-4.5,0-6.7,0l3.7-33.9c1,0,2.1,0,3.1.2,2.3.2,4.6.3,7,.3,4.4,0,8.8,0,13.3,0,.6,11.5-1,23.2-1.8,34.8Z"></path>
            <path class="cls-1" d="M484,369.4c-1.7,0-3.4,0-5.1,0-4.2.2-8.3.4-12.5.6-.2,12-.7,23.9,1,35.9.4,0,.7,0,1.1.2v-.4h2.7c9.6,0,19.2,0,28.8.2-2.6-12.1-5.2-24.2-5.4-36.3-3.6.2-7.1,0-10.6,0Z"></path>
          </g>
        </g>
        <path class="cls-3" d="M503,377.4c-33.5.5-66.9-.6-100.3-3.4-9.1-.8-9,13.5,0,14.2,14,1.2,28.1,2,42.1,2.6,2.7,37.1,2.7,74.2,0,111.2-.6,9.1,13.6,9,14.2,0,2.6-36.9,2.6-73.9,0-110.8,14.6.4,29.2.6,43.9.3,9.1-.2,9.2-14.4,0-14.2Z"></path>
      </g>
      <g>
        <g>
          <g>
            <path class="cls-2" d="M100.2,530.5c-4.1,0-8.4-1.2-13.1-3.7-1.3-.7-2.2-1.7-2.8-2.3,0,0-.2-.2-.2-.2-.3-.3-.7-.6-1.1-1-.6-.5-1.1-1-1.7-1.5-.6-.6-1.6-1.4-2.4-2.7-.2-.2-.2-.5-.4-.7-.8-1.3-1.7-2.6-2.3-4.4-1.4-3.8-2.7-7.8-4-11.5l-.8-2.3c-1-3-2.1-6-3-9.1-2.1-6.2-4.2-12.5-6.4-18.7-5.2-14.3-9.3-29.1-12.1-44.3-.8-4.2-1.7-8.5-2.5-12.6-.7-3.5-1.5-7.1-2.1-10.8-1-5.2-2.1-10.9-2.8-16.8-.6-4.5-.3-9,.6-13.3.8-3.8,2.9-7,6-9.5,4.6-3.6,10.1-5.5,16.8-5.5s1.3,0,2.1,0c5.9.3,9.4,4,11.6,6.7,4.4,5.6,6.2,11.7,7.5,17.5,1.3,6,2.6,12.1,4,18,2.5,11.1,4.9,22.3,7.3,33.5.2,1,.5,2.1.8,3.2,1-3.4,2.1-6.8,2.9-10.2,2.8-10.3,6.3-20.8,10.9-32,.3-.8.6-1.7,1-2.5,2.4-5.9,4.8-12,8.3-17.8,2.4-3.9,5.2-8.3,9.1-12,4.9-4.5,10.6-6.8,16.8-6.8h1.3c11.5.6,18.6,10.2,18.8,19,0,2.9-.2,5.6-.4,8.3,0,.8-.2,1.7-.2,2.5,0,1.5-.6,3-1.2,4.4l-.6,1.3c-1,2.1-2.1,4.4-3.4,6.5-1.5,2.5-2.6,5.4-3.8,8.4-.5,1.2-.9,2.3-1.3,3.5-4.4,10.9-7.9,22.2-10.6,32-3.4,12-7.5,24.6-12.1,37.4-1.7,4.6-2.9,9.2-4.3,14.1-.5,1.7-1,3.3-1.4,5.1-1.3,4.5-3.2,10.5-6.3,16.2-1.5,2.8-2.9,4.6-5.6,6-2.7,4-6.6,6.7-11.5,7.9-1.6.5-3.3.7-5.1.7Z"></path>
            <path class="cls-5" d="M147.9,363.4h1c8.4.5,12.9,7.3,12.9,13,0,3.4-.3,6.8-.6,10.2,0,.7-.2,1.4-.6,2.1-1.2,2.5-2.4,5-3.8,7.4-2.5,4-3.8,8.5-5.6,12.8-4.4,10.6-7.7,21.6-10.9,32.6-3.6,12.5-7.5,24.8-11.9,37.1-2.3,6.4-4,13-5.9,19.6-1.5,5.2-3.3,10.2-5.8,15-1.4,2.6-2,3.2-4.4,4.1-2,3.7-5,5.8-8.7,6.7-1.3.3-2.5.5-3.6.5-3.6,0-6.9-1.3-10.2-3-.7-.4-1.2-1.1-1.7-1.7-1-.8-1.8-1.6-2.8-2.5-.5-.4-1-.9-1.3-1.3-.8-1.3-1.7-2.6-2.2-4-1.7-4.5-3.2-9.1-4.8-13.7-3.2-9.4-6.1-18.7-9.5-28-5.2-14.1-9-28.5-11.8-43.2-1.4-7.9-3.2-15.6-4.7-23.5-1-5.5-2.1-10.9-2.7-16.4-.5-3.7-.3-7.5.5-11.3.6-2.5,1.8-4.4,3.8-6,3.9-3.1,8.3-4.1,12.9-4.1s1.1,0,1.7,0c3.1.2,5.2,2,7.1,4.4,3.5,4.4,5.1,9.6,6.3,14.9,3.7,17.1,7.5,34.3,11.3,51.5,1.6,7.2,4,14.1,6.7,21.1,1-.8,1.2-1.9,1.5-2.9,2.5-8.3,5.2-16.6,7.5-25,2.9-10.6,6.5-21,10.6-31.3,2.6-6.6,5.1-13.3,8.8-19.3,2.4-3.8,4.7-7.6,8-10.7,3.6-3.3,7.8-5.1,12.7-5.1M147.9,351h0c-7.9,0-14.9,2.9-21,8.4-4.6,4.3-7.5,9-10.2,13.3-3.8,6.2-6.3,12.6-8.8,18.7-.3.8-.6,1.6-1,2.5-2.7,6.8-5.2,13.3-7.2,19.8-1-4.4-1.9-8.8-2.9-13.2-1.3-6-2.7-12.1-4-18.1-1.3-6.2-3.5-13.5-8.6-20-1.7-2.1-6.8-8.5-16.1-9-.8,0-1.6,0-2.4,0-8.1,0-15,2.3-20.7,6.8-4.3,3.4-7.1,7.9-8.2,13-1,4.9-1.3,10.1-.6,15.3.7,6.1,1.9,12.3,2.9,17.3.7,3.6,1.4,7.4,2.2,10.9.9,4.1,1.7,8.3,2.5,12.5,2.9,15.5,7,30.7,12.4,45.3,2.2,6.1,4.4,12.5,6.3,18.6,1,3,2.1,6.1,3.1,9.1l.8,2.3c1.3,3.8,2.6,7.7,4,11.7.9,2.3,2,4.1,2.9,5.5.2.2.2.4.4.6,1.2,2.1,2.7,3.3,3.5,4.1.6.6,1.3,1.1,1.8,1.6.2.2.6.5.8.7.7.7,2.1,2.3,4.4,3.5,5.6,3,10.8,4.5,16,4.5s4.5-.3,6.7-.9c5.9-1.5,10.8-4.7,14.2-9.2,3.2-2,5-4.5,6.7-7.8,3.4-6.3,5.4-12.6,6.8-17.5.5-1.7,1-3.4,1.4-5.1,1.3-4.8,2.6-9.4,4.2-13.7,4.6-12.9,8.7-25.7,12.1-37.8,2.9-10.1,6.1-20.9,10.4-31.3.5-1.3,1-2.5,1.4-3.6,1-2.8,2.1-5.4,3.3-7.5,1.4-2.4,2.6-4.8,3.6-7,.2-.4.4-.9.6-1.3,1-2.1,1.6-4.3,1.8-6.6,0-.8.2-1.6.2-2.4.2-2.7.5-5.7.4-9-.2-5.9-2.5-11.8-6.4-16.3-4.6-5.2-11.1-8.3-18.2-8.7-.7,0-1.3,0-1.8,0h0Z"></path>
          </g>
          <g>
            <path class="cls-1" d="M56,427c.2,1,.4,2,.6,3,10.9-6,20.5-15,28.6-24.8-1.5-6.7-2.9-13.4-4.4-20.1-.2-1.2-.6-2.4-.9-3.6-7.3,9.3-17.7,15.9-29,20.4,0,.6.2,1,.3,1.6,1.6,7.9,3.3,15.6,4.8,23.5Z"></path>
            <path class="cls-1" d="M91.8,434.9c-7.3,10.4-16.6,18.7-27.5,25,1.1,3.4,2.2,6.8,3.5,10.2,3.4,9.3,6.3,18.6,9.5,28,.2.5.3,1,.5,1.4,10.7-11.7,17.9-26.2,21-42.1-2.7-7-5.2-13.8-6.7-20.9,0-.5-.2-1-.3-1.6Z"></path>
            <path class="cls-1" d="M109.1,425.6c-.4,1.4-.9,2.8-1.3,4.2-2.2,8.1-4.8,16.1-7.2,24.2,5,15.9,10.1,33.3,22.1,44.1h0c1.9-6.6,3.6-13.3,5.9-19.7,2.7-7.6,5.2-15.2,7.7-22.9-14.5-2.5-22.2-16.8-27.2-29.9Z"></path>
            <path class="cls-1" d="M137.3,366.9c-.6.5-1.3,1-2,1.6-3.3,3.1-5.7,6.9-8,10.7-3.4,5.6-5.8,11.6-8.2,17.7,5.7,10.7,15.9,22.3,27,26.7,1.7-5,3.4-9.9,5.4-14.8,1.7-4.3,3.2-8.7,5.6-12.8.2-.5.5-1,.8-1.4-10.2-6.6-18.1-16.5-20.5-27.7Z"></path>
          </g>
        </g>
        <path class="cls-3" d="M136.4,377.5c-6.7,19-13.3,38-19.9,57-3.3,9.5-6.7,19-10,28.5s-3.3,9.5-5,14.3c-.9,2.5-2.2,10.4-4.3,12-2.5,1.9-2.6-2.8-3.4-5.7-1.3-4.7-2.4-9.4-3.6-14.2-2.4-9.4-4.7-18.9-7-28.4-4.6-19-9-37.9-13.3-57-2-8.9-15.7-5.2-13.7,3.8,5.5,24.4,11.2,48.6,17.2,72.9,2.7,11,4.6,23,8.7,33.6,2.7,6.8,7.9,12.7,15.8,11.6,7.5-1,11.1-7.8,13.6-14.2,4.4-11.7,8.3-23.7,12.5-35.6,8.7-24.9,17.5-49.8,26.2-74.8,3-8.5-10.7-12.2-13.7-3.6Z"></path>
      </g>
    </g>
    <g>
      <path class="cls-4" d="M128.7,570.4h-9.4v31.1c0,1.8-.4,3.1-1.2,4s-1.8,1.3-3.1,1.3-2.3-.5-3.2-1.3-1.2-2.2-1.2-4v-31.1h-9.4c-1.5,0-2.5-.3-3.3-1s-1.1-1.5-1.1-2.6.4-2,1.1-2.6,1.8-1,3.3-1h27.5c1.5,0,2.6.3,3.3,1,.7.6,1.1,1.5,1.1,2.6s-.4,1.9-1.1,2.6c-.6.7-1.7,1-3.3,1Z"></path>
      <path class="cls-4" d="M144.8,567.4v11.8c1-1.2,2-2.1,2.9-2.8s2.1-1.2,3.2-1.5c1.2-.3,2.5-.5,3.7-.5,2,0,3.8.4,5.4,1.3s2.8,2.1,3.7,3.7c.6,1,1,2,1.1,3.2s.3,2.5.3,4v15.2c0,1.6-.4,2.8-1.1,3.6-.7.8-1.7,1.2-2.9,1.2-2.6,0-4-1.6-4-4.8v-13.5c0-2.5-.4-4.5-1.1-5.9s-2.2-2.1-4.3-2.1-2.7.4-3.8,1.2c-1.1.8-2,1.9-2.5,3.3-.4,1.2-.6,3.3-.6,6.3v10.6c0,1.6-.3,2.8-1,3.6-.7.8-1.7,1.3-2.9,1.3-2.6,0-4-1.6-4-4.8v-34.5c0-1.6.3-2.9,1-3.6.7-.8,1.7-1.2,2.9-1.2s2.2.4,2.9,1.2c.7.8,1,2.1,1,3.6Z"></path>
      <path class="cls-4" d="M195.3,592.5h-15.6c0,1.8.4,3.4,1.1,4.8s1.7,2.5,2.9,3.1c1.2.7,2.5,1,3.9,1s1.8,0,2.6-.3c.8-.2,1.6-.6,2.3-1s1.4-1,2.1-1.5,1.4-1.3,2.5-2.2c.4-.3,1-.6,1.7-.6s1.5.2,2,.6c.5.5.8,1.1.8,1.9s-.3,1.6-.9,2.5c-.6,1-1.4,1.9-2.5,2.8s-2.5,1.6-4.3,2.2-3.7.9-6,.9c-5.1,0-9.1-1.4-11.9-4.4-2.9-2.9-4.3-6.9-4.3-11.9s.3-4.5,1-6.6c.7-2,1.7-3.7,3.1-5.2s3-2.5,5-3.3,4.1-1.2,6.5-1.2,5.8.6,8,2,3.9,3,5,5.1c1.1,2.1,1.7,4.2,1.7,6.3s-.6,3.3-1.7,3.9-2.9,1-5,1ZM179.8,588h14.4c-.2-2.7-1-4.8-2.2-6.1s-2.9-2.1-5-2.1-3.6.7-4.9,2.1-2.1,3.4-2.3,6.1Z"></path>
      <path class="cls-4" d="M238.6,599.6l-6.8-27.2v29.5c0,1.7-.4,2.9-1.1,3.6s-1.7,1.2-2.9,1.2-2.1-.4-2.9-1.2c-.7-.8-1.1-2.1-1.1-3.7v-33.9c0-1.9.5-3.1,1.4-3.8,1-.6,2.3-1,4-1h2.7c1.6,0,2.8.2,3.5.5.7.3,1.3.8,1.6,1.6s.7,2,1.2,3.7l6.2,23.4,6.2-23.4c.5-1.7.9-2.9,1.2-3.7s.9-1.3,1.6-1.6,1.9-.5,3.5-.5h2.7c1.7,0,2.9.3,4,1,1,.6,1.4,1.9,1.4,3.8v33.9c0,1.7-.4,2.9-1.1,3.6s-1.7,1.2-2.9,1.2-2.1-.4-2.9-1.2c-.7-.8-1.1-2.1-1.1-3.6v-29.5l-6.8,27.2c-.5,1.7-.8,3.1-1.1,3.9s-.8,1.6-1.6,2.2c-.8.7-1.8,1-3.2,1s-1.9-.2-2.5-.6c-.7-.5-1.3-1-1.7-1.7s-.7-1.4-1-2.3c0-.7-.2-1.6-.4-2.5Z"></path>
      <path class="cls-4" d="M293.5,602.3c-1.9,1.5-3.8,2.6-5.6,3.3-1.8.7-3.8,1.1-6,1.1s-3.8-.4-5.4-1.2c-1.5-.8-2.8-1.9-3.6-3.3-.9-1.3-1.3-2.9-1.3-4.5s.7-4,2.1-5.6,3.3-2.5,5.7-3.1c.5,0,1.7-.4,3.7-.8s3.7-.8,5.2-1.1,3-.8,4.7-1.3c0-2.1-.6-3.6-1.3-4.6s-2.3-1.5-4.7-1.5-3.6.3-4.6.9c-1,.6-1.9,1.4-2.6,2.5s-1.3,1.9-1.5,2.2-1,.6-1.9.6-1.7-.3-2.3-.9c-.6-.6-1-1.3-1-2.2,0-1.4.5-2.8,1.5-4s2.5-2.4,4.6-3.3c2.1-.9,4.7-1.3,7.9-1.3s6.3.4,8.3,1.3c2,.8,3.4,2.1,4.3,3.9.8,1.8,1.3,4.1,1.3,7.1v4.8c0,1.3,0,2.8,0,4.4,0,1.5.2,3.1.7,4.7s.7,2.7.7,3.2c0,.8-.4,1.6-1.2,2.2s-1.7,1-2.6,1-1.6-.4-2.5-1.2c-.8-.9-1.7-2-2.5-3.4ZM292.9,590.7c-1.2.4-2.9.9-5.1,1.3-2.2.5-3.8.8-4.6,1-.9.2-1.7.6-2.5,1.3s-1.2,1.6-1.2,2.7.5,2.2,1.3,3.1c1,.9,2.1,1.3,3.6,1.3s3-.3,4.4-1c1.3-.7,2.3-1.6,2.9-2.7.7-1.2,1.1-3.2,1.1-6v-1.1h0Z"></path>
      <path class="cls-4" d="M330.7,602.2v-.8c-1,1.2-2.1,2.2-3.2,3s-2.1,1.3-3.4,1.7c-1.2.4-2.5.6-4,.6s-3.6-.4-5.3-1.2c-1.6-.8-3-2-4.2-3.5s-2.1-3.3-2.7-5.3-1-4.2-1-6.6c0-5,1.2-8.9,3.6-11.7s5.6-4.2,9.6-4.2,4.2.4,5.8,1.2,3.1,2,4.6,3.6v-11.7c0-1.7.3-2.9,1-3.7.6-.9,1.6-1.3,2.8-1.3s2.1.4,2.8,1.2,1,1.9,1,3.4v35.1c0,1.5-.3,2.6-1,3.4s-1.6,1.1-2.7,1.1-2-.4-2.7-1.2c-.6-.8-1-1.9-1-3.3ZM315,590.4c0,2.1.3,4,1,5.6.6,1.5,1.6,2.7,2.8,3.4,1.2.8,2.5,1.2,3.8,1.2s2.7-.4,3.8-1.1c1.2-.7,2.1-1.8,2.8-3.3s1-3.4,1-5.6-.3-4-1-5.5-1.6-2.7-2.8-3.5-2.5-1.2-3.9-1.2-2.8.4-3.9,1.3c-1.1.8-2.1,2-2.7,3.6s-1,3.3-1,5.2Z"></path>
      <path class="cls-4" d="M392,599.2l-6.9-25.6-7,25.6c-.6,2-1,3.3-1.3,4.2s-.9,1.6-1.7,2.3c-.8.6-1.8,1-3.2,1s-2-.2-2.6-.6c-.7-.4-1.3-1-1.7-1.7-.4-.7-.8-1.6-1-2.6s-.5-1.9-.7-2.8l-7.1-28.8c-.4-1.7-.6-2.9-.6-3.8s.4-2.1,1.2-2.8,1.7-1.1,2.9-1.1c1.6,0,2.6.5,3.2,1.5.6,1,1,2.5,1.4,4.4l5.6,25,6.3-23.4c.5-1.8.9-3.2,1.3-4s1-1.7,1.8-2.5c.9-.7,2-1,3.4-1s2.6.3,3.4,1c.8.7,1.3,1.5,1.7,2.3.3.9.7,2.2,1.3,4.1l6.3,23.4,5.6-25c.2-1.3.6-2.3.8-3.1s.6-1.4,1.3-2,1.4-.9,2.6-.9,2.1.4,2.9,1.1,1.2,1.7,1.2,2.8-.2,2.1-.6,3.8l-7.1,28.8c-.5,2-.9,3.3-1.2,4.3-.3.9-.9,1.7-1.7,2.4s-1.8,1-3.3,1-2.4-.3-3.2-1-1.3-1.4-1.7-2.2c-.6-.9-1-2.3-1.6-4.3Z"></path>
      <path class="cls-4" d="M445.5,590.5c0,2.4-.4,4.6-1.1,6.6s-1.8,3.7-3.2,5.2c-1.4,1.4-3.1,2.5-5,3.3-2,.8-4.1,1.2-6.6,1.2s-4.6-.4-6.5-1.2c-1.9-.8-3.6-1.9-5-3.3s-2.5-3.2-3.2-5.2-1.1-4.1-1.1-6.6.4-4.6,1.1-6.6,1.8-3.7,3.2-5.2,3-2.5,5-3.3c2-.8,4.1-1.2,6.5-1.2s4.6.4,6.6,1.2,3.6,1.9,5.1,3.3c1.4,1.4,2.5,3.2,3.2,5.2.7,1.9,1,4.1,1,6.5ZM437.5,590.5c0-3.3-.7-5.8-2.1-7.6-1.4-1.8-3.3-2.7-5.8-2.7s-2.9.4-4.1,1.2-2.1,2-2.8,3.6c-.6,1.6-1,3.4-1,5.6s.3,3.9,1,5.5c.6,1.6,1.5,2.8,2.7,3.6s2.5,1.3,4.1,1.3c2.4,0,4.4-.9,5.8-2.7,1.5-1.9,2.2-4.4,2.2-7.6Z"></path>
      <path class="cls-4" d="M459.7,595.2v6.7c0,1.6-.4,2.9-1.1,3.6-.8.8-1.7,1.2-2.9,1.2s-2.1-.4-2.9-1.2c-.7-.8-1.1-2-1.1-3.6v-22.2c0-3.6,1.3-5.4,3.9-5.4s2.3.4,2.9,1.3c.6.9.9,2.1,1,3.7,1-1.7,1.9-2.9,2.9-3.7,1-.9,2.3-1.3,4-1.3s3.3.4,4.8,1.3c1.6.9,2.4,2,2.4,3.3s-.3,1.7-1,2.4-1.4,1-2.1,1-1-.2-2.1-.6-2.1-.6-2.9-.6c-1.2,0-2.1.3-2.9,1-.7.6-1.3,1.5-1.7,2.7s-.7,2.6-.9,4.3c-.2,1.8-.2,3.8-.2,6.2Z"></path>
      <path class="cls-4" d="M477.1,601.9v-34.5c0-1.6.3-2.8,1-3.6.7-.8,1.7-1.2,2.9-1.2s2.1.4,2.9,1.2c.7.8,1.1,2,1.1,3.6v34.5c0,1.6-.4,2.9-1.1,3.6s-1.7,1.2-2.9,1.2-2.1-.4-2.9-1.3c-.6-.8-1-2-1-3.6Z"></path>
      <path class="cls-4" d="M515.2,602.2v-.8c-1,1.2-2.1,2.2-3.2,3s-2.1,1.3-3.4,1.7c-1.2.4-2.5.6-4,.6s-3.6-.4-5.3-1.2c-1.6-.8-3-2-4.2-3.5s-2.1-3.3-2.7-5.3-1-4.2-1-6.6c0-5,1.2-8.9,3.6-11.7s5.6-4.2,9.6-4.2,4.2.4,5.8,1.2,3.1,2,4.6,3.6v-11.7c0-1.7.3-2.9,1-3.7.6-.9,1.6-1.3,2.8-1.3s2.1.4,2.8,1.2,1,1.9,1,3.4v35.1c0,1.5-.3,2.6-1,3.4s-1.6,1.1-2.7,1.1-2-.4-2.7-1.2c-.6-.8-1-1.9-1-3.3ZM499.5,590.4c0,2.1.3,4,1,5.6.6,1.5,1.6,2.7,2.8,3.4,1.2.8,2.5,1.2,3.8,1.2s2.7-.4,3.8-1.1c1.2-.7,2.1-1.8,2.8-3.3s1-3.4,1-5.6-.3-4-1-5.5c-.7-1.5-1.6-2.7-2.8-3.5s-2.5-1.2-3.9-1.2-2.8.4-3.9,1.3c-1.1.8-2.1,2-2.7,3.6s-1,3.3-1,5.2Z"></path>
      <path class="cls-4" d="M575.4,590.5c0,2.4-.4,4.6-1.1,6.6s-1.8,3.7-3.2,5.2c-1.4,1.4-3.1,2.5-5,3.3-2,.8-4.1,1.2-6.6,1.2s-4.6-.4-6.5-1.2-3.6-1.9-5-3.3-2.5-3.2-3.2-5.2-1.1-4.1-1.1-6.6.4-4.6,1.1-6.6,1.8-3.7,3.2-5.2,3-2.5,5-3.3c2-.8,4.1-1.2,6.5-1.2s4.6.4,6.6,1.2,3.6,1.9,5.1,3.3c1.4,1.4,2.5,3.2,3.2,5.2.7,1.9,1,4.1,1,6.5ZM567.5,590.5c0-3.3-.7-5.8-2.1-7.6s-3.3-2.7-5.8-2.7-2.9.4-4.1,1.2-2.1,2-2.8,3.6c-.6,1.6-1,3.4-1,5.6s.3,3.9,1,5.5,1.5,2.8,2.7,3.6,2.5,1.3,4.1,1.3c2.4,0,4.4-.9,5.8-2.7,1.5-1.9,2.2-4.4,2.2-7.6Z"></path>
      <path class="cls-4" d="M581.1,575h1.9v-2.4c0-2.5.3-4.4,1-6s1.7-2.5,3.2-3.2,3.6-1,6.2-1c4.7,0,7,1.1,7,3.4s-.2,1.3-.7,1.9c-.5.6-1,.8-1.7.8s-.9,0-1.6-.2c-.8,0-1.4-.2-1.9-.2-1.4,0-2.4.4-2.8,1.3s-.6,2.1-.6,3.6v1.9h2c3,0,4.5,1,4.5,2.8s-.4,2.1-1.2,2.5c-.8.3-1.9.6-3.3.6h-2v21.1c0,1.6-.4,2.8-1.1,3.6s-1.7,1.3-2.9,1.3-2.1-.4-2.8-1.3c-.7-.8-1.1-2.1-1.1-3.6v-21.1h-2.2c-1.2,0-2.1-.2-2.8-.8-.6-.6-1-1.2-1-2.1,0-2.1,1.4-3,4-3Z"></path>
      <path class="cls-4" d="M651.2,601.2l-2.1-5.4h-17.4l-2.1,5.5c-.8,2.1-1.5,3.6-2.1,4.4-.6.7-1.5,1.1-2.8,1.1s-2.1-.4-2.9-1.2c-.9-.8-1.3-1.7-1.3-2.7s0-1.2.3-1.8c.2-.6.5-1.5,1-2.6l10.9-27.8c.3-.8.7-1.7,1.1-2.9.5-1.1.9-2.1,1.4-2.8.5-.7,1.1-1.3,2-1.8.8-.5,1.8-.7,3-.7s2.2.2,3,.7c.8.5,1.4,1,2,1.7s1,1.5,1.3,2.3.8,1.9,1.3,3.3l11.2,27.6c.9,2.1,1.3,3.6,1.3,4.6s-.4,1.9-1.3,2.7-1.8,1.3-3,1.3-1.3-.2-1.7-.4c-.5-.2-.9-.6-1.2-1-.3-.4-.7-1-1-1.9s-.9-1.6-1.1-2.2ZM634.1,589.2h12.8l-6.4-17.6-6.3,17.6Z"></path>
      <path class="cls-4" d="M673.5,578.8v1c1.4-1.8,2.9-3.2,4.6-4s3.6-1.3,5.7-1.3,4,.5,5.6,1.3c1.7,1,2.9,2.2,3.7,3.9.6,1,.9,2,1,3.2.2,1.1.2,2.5.2,4.3v14.8c0,1.6-.4,2.8-1.1,3.6-.7.8-1.7,1.2-2.9,1.2s-2.1-.4-2.9-1.3-1.1-2.1-1.1-3.6v-13.3c0-2.6-.4-4.6-1.1-6s-2.2-2.1-4.4-2.1-2.7.4-3.9,1.3-2,2-2.5,3.5c-.4,1.2-.6,3.4-.6,6.7v10c0,1.6-.4,2.9-1.1,3.6s-1.7,1.2-2.9,1.2-2.1-.4-2.9-1.3c-.7-.9-1.1-2.1-1.1-3.6v-23c0-1.5.3-2.6,1-3.4.6-.7,1.6-1.1,2.7-1.1s1.3.2,1.9.5c.6.3,1,.8,1.3,1.5.4.5.6,1.3.6,2.3Z"></path>
      <path class="cls-4" d="M702.8,575h.9v-4.8c0-1.3,0-2.3,0-3,0-.7.2-1.3.6-1.9s.8-1,1.3-1.3c.6-.3,1.3-.5,2-.5,1,0,1.9.4,2.8,1.1.6.5.9,1.1,1,1.8.2.7.2,1.7.2,3.1v5.4h2.9c1.1,0,2,.2,2.6.8.6.6.9,1.2.9,2.1s-.4,1.8-1.3,2.2-2.1.6-3.6.6h-1.5v14.7c0,1.3,0,2.2.2,2.9,0,.6.3,1.2.7,1.7.4.4,1,.6,1.8.6s1.1,0,1.9-.2,1.4-.2,1.9-.2,1.2.2,1.7.8c.5.6.8,1.2.8,1.9,0,1.3-.7,2.3-2.1,2.9-1.4.7-3.4,1-6,1s-4.4-.4-5.6-1.3-2.1-2-2.5-3.5-.6-3.5-.6-6v-15.3h-1c-1.1,0-2.1-.2-2.6-.8-.6-.6-.9-1.3-.9-2.1s.3-1.5,1-2.1,1.3-.7,2.5-.7Z"></path>
      <path class="cls-4" d="M727.5,570.6c-1.1,0-2.1-.3-2.9-1-.8-.7-1.2-1.7-1.2-2.9s.4-2.1,1.2-2.8,1.7-1.1,2.8-1.1,2,.3,2.8,1c.8.6,1.2,1.6,1.2,2.9s-.4,2.2-1.2,2.9c-.7.7-1.7,1-2.7,1ZM731.5,578.9v23c0,1.6-.4,2.8-1.1,3.6-.8.8-1.7,1.2-2.9,1.2s-2.1-.4-2.9-1.3c-.7-.9-1.1-2.1-1.1-3.6v-22.8c0-1.6.4-2.8,1.1-3.6s1.7-1.2,2.9-1.2,2.1.4,2.9,1.2c.7.8,1.1,1.9,1.1,3.3Z"></path>
      <path class="cls-4" d="M761.5,613.2v-11.3c-1.5,1.5-3.2,2.7-4.8,3.5-1.7.8-3.5,1.2-5.6,1.2s-4.8-.6-6.7-2c-2.1-1.3-3.6-3.2-4.8-5.6-1.2-2.5-1.7-5.3-1.7-8.6s.6-6.3,1.7-8.7,2.8-4.3,4.8-5.6,4.4-1.9,6.9-1.9,4,.5,5.7,1.3c1.7.9,3.2,2.2,4.4,4v-1c0-1.4.3-2.5,1-3.3s1.6-1.1,2.7-1.1,2,.4,2.7,1.1,1,1.8,1,3.3v34.4c0,3.6-1.3,5.3-3.7,5.3s-2.5-.5-3-1.4-.7-2.1-.7-3.7ZM745.9,590.4c0,2.1.3,4,1,5.6s1.6,2.7,2.7,3.4c1.1.7,2.4,1.1,3.6,1.1s2.7-.4,3.9-1.1,2.1-1.9,2.9-3.4c.7-1.5,1.1-3.4,1.1-5.7s-.2-3-.6-4.3c-.4-1.3-1-2.4-1.7-3.2-.7-.9-1.5-1.5-2.5-1.9-1-.4-1.9-.6-3-.6-2.1,0-3.9.9-5.3,2.6-1.3,1.8-2.1,4.3-2.1,7.5Z"></path>
      <path class="cls-4" d="M797.8,602.3v-1c-1,1.2-2,2.2-3,3s-2.2,1.4-3.4,1.8c-1.3.4-2.7.6-4.3.6s-3.6-.4-5.2-1.2-2.7-1.9-3.6-3.3c-1-1.7-1.5-4.1-1.5-7.3v-15.8c0-1.6.4-2.8,1.1-3.6s1.7-1.2,2.9-1.2,2.1.4,2.9,1.2c.7.8,1.1,2,1.1,3.6v12.8c0,1.8.2,3.4.5,4.7.3,1.3.9,2.2,1.7,2.9s1.9,1,3.3,1,2.6-.4,3.8-1.2,2.1-1.8,2.6-3.1c.5-1.1.6-3.6.6-7.4v-9.7c0-1.6.4-2.8,1.1-3.6s1.7-1.2,2.9-1.2,2.1.4,2.9,1.2c.7.8,1.1,2,1.1,3.6v23.1c0,1.5-.3,2.6-1,3.4-.7.8-1.6,1.1-2.7,1.1s-2-.4-2.7-1.2c-.7-.9-1-1.9-1-3.3Z"></path>
      <path class="cls-4" d="M835.4,592.5h-15.6c0,1.8.4,3.4,1.1,4.8s1.7,2.5,2.9,3.1c1.2.7,2.5,1,3.9,1s1.8,0,2.6-.3c.8-.2,1.6-.6,2.3-1s1.4-1,2.1-1.5,1.4-1.3,2.5-2.2c.4-.3,1-.6,1.7-.6s1.5.2,2,.6c.5.5.8,1.1.8,1.9s-.3,1.6-.9,2.5c-.6,1-1.4,1.9-2.5,2.8s-2.5,1.6-4.3,2.2-3.7.9-6,.9c-5.1,0-9.1-1.4-11.9-4.4-2.9-2.9-4.3-6.9-4.3-11.9s.3-4.5,1-6.6c.7-2,1.7-3.7,3.1-5.2s3-2.5,5-3.3,4.1-1.2,6.5-1.2,5.8.6,8,2,3.9,3,5,5.1c1.1,2.1,1.7,4.2,1.7,6.3s-.6,3.3-1.7,3.9-2.9,1-5,1ZM819.8,588h14.4c-.2-2.7-1-4.8-2.2-6.1s-2.9-2.1-5-2.1-3.6.7-4.9,2.1-2.1,3.4-2.3,6.1Z"></path>
      <path class="cls-4" d="M874.3,596.3c0,2.2-.6,4-1.6,5.6s-2.6,2.8-4.8,3.6c-2.1.8-4.6,1.2-7.6,1.2s-5.3-.5-7.4-1.3c-2.1-.9-3.6-2-4.5-3.3-1-1.3-1.4-2.6-1.4-4s.3-1.6,1-2.2,1.4-1,2.4-1,1.5.2,1.9.6c.5.4.9,1,1.3,1.7.8,1.4,1.8,2.5,2.9,3.2,1.1.7,2.7,1,4.7,1s2.9-.3,3.9-1c1-.7,1.5-1.5,1.5-2.5,0-1.4-.6-2.5-1.6-3.1-1-.6-2.8-1.3-5.2-1.8-2.8-.7-5-1.4-6.7-2.1-1.7-.7-3.1-1.7-4.1-2.9-1-1.2-1.5-2.7-1.5-4.5s.5-3.1,1.4-4.5c1-1.4,2.4-2.5,4.2-3.4s4.1-1.3,6.7-1.3,3.9.2,5.6.6,3,1,4.1,1.7,1.9,1.5,2.5,2.4c.6.9.9,1.7.9,2.5s-.3,1.7-1,2.2c-.6.6-1.5.9-2.6.9s-1.5-.2-2.1-.7c-.6-.5-1.3-1.2-2-2.1-.6-.8-1.3-1.4-2.1-1.9-.8-.5-1.9-.7-3.3-.7s-2.6.3-3.6,1-1.4,1.3-1.4,2.3.3,1.5,1,2.1c.7.6,1.7,1,2.9,1.3s2.9.8,4.9,1.3c2.5.6,4.5,1.3,6,2.1,1.6.9,2.8,1.8,3.6,2.9.7,1.2,1.1,2.5,1.1,4Z"></path>
      <path class="cls-4" d="M884.2,606.8c-1.3,0-2.4-.4-3.3-1.2s-1.4-1.9-1.4-3.3.5-2.2,1.3-3.1c1-.9,2-1.3,3.3-1.3s1.7.2,2.5.8,1.3,1.3,1.7,2.2.6,2.2.6,3.6-.4,3.7-1.2,5.4-1.8,3-3,4-2.2,1.5-3.2,1.5-1.1-.2-1.5-.6-.6-.9-.6-1.3c0-.8.4-1.4,1.2-1.9,2.4-1.3,3.5-2.9,3.5-4.8Z"></path>
      <path class="cls-4" d="M919.3,568.1l9.7,28.7,9.7-28.9c.5-1.5.9-2.5,1.1-3.2.2-.6.6-1.1,1.3-1.6.6-.5,1.3-.7,2.4-.7s1.4.2,2.1.6c.6.4,1.1.9,1.5,1.5s.6,1.3.6,1.8,0,.9-.2,1.3-.2,1-.5,1.4-.3,1-.6,1.5l-10.4,27.9c-.4,1-.7,2.1-1.1,3s-.8,1.8-1.3,2.5-1.1,1.3-1.9,1.8-1.8.7-2.9.7-2.1-.2-2.9-.7c-.8-.5-1.4-1-2-1.8-.5-.7-1-1.6-1.3-2.5-.4-1-.7-2-1.1-3l-10.2-27.7c-.2-.5-.3-1-.6-1.5-.2-.5-.3-1-.5-1.6s-.2-1-.2-1.4c0-1,.4-1.9,1.2-2.7s1.8-1.2,3-1.2,2.5.5,3.2,1.3c.6.9,1.2,2.3,1.8,4.3Z"></path>
      <path class="cls-4" d="M956.8,570.6c-1.1,0-2.1-.3-2.9-1-.8-.7-1.2-1.7-1.2-2.9s.4-2.1,1.2-2.8,1.7-1.1,2.8-1.1,2,.3,2.8,1c.8.6,1.2,1.6,1.2,2.9s-.4,2.2-1.2,2.9c-.7.7-1.6,1-2.7,1ZM960.7,578.9v23c0,1.6-.4,2.8-1.1,3.6-.8.8-1.7,1.2-2.9,1.2s-2.1-.4-2.9-1.3-1.1-2.1-1.1-3.6v-22.8c0-1.6.4-2.8,1.1-3.6s1.7-1.2,2.9-1.2,2.1.4,2.9,1.2,1.1,1.9,1.1,3.3Z"></path>
      <path class="cls-4" d="M976.2,578.8v1c1.4-1.8,2.9-3.2,4.6-4s3.6-1.3,5.7-1.3,4,.5,5.6,1.3c1.7,1,2.9,2.2,3.7,3.9.6,1,.9,2,1,3.2.2,1.1.2,2.5.2,4.3v14.8c0,1.6-.4,2.8-1.1,3.6-.7.8-1.7,1.2-2.9,1.2s-2.1-.4-2.9-1.3-1.1-2.1-1.1-3.6v-13.3c0-2.6-.4-4.6-1.1-6s-2.2-2.1-4.4-2.1-2.7.4-3.9,1.3-2,2-2.5,3.5c-.4,1.2-.6,3.4-.6,6.7v10c0,1.6-.4,2.9-1.1,3.6s-1.7,1.2-2.9,1.2-2.1-.4-2.9-1.3c-.7-.9-1.1-2.1-1.1-3.6v-23c0-1.5.3-2.6,1-3.4.6-.7,1.6-1.1,2.7-1.1s1.3.2,1.9.5c.6.3,1,.8,1.3,1.5.4.5.6,1.3.6,2.3Z"></path>
      <path class="cls-4" d="M1005.5,575h.9v-4.8c0-1.3,0-2.3,0-3,0-.7.2-1.3.6-1.9.3-.6.8-1,1.3-1.3.6-.3,1.3-.5,2-.5,1,0,1.9.4,2.8,1.1.6.5.9,1.1,1,1.8.2.7.2,1.7.2,3.1v5.4h2.9c1.1,0,2,.2,2.6.8.6.6.9,1.2.9,2.1s-.4,1.8-1.3,2.2-2.1.6-3.6.6h-1.5v14.7c0,1.3,0,2.2.2,2.9s.3,1.2.7,1.7c.4.4,1,.6,1.8.6s1.1,0,1.9-.2,1.4-.2,1.9-.2,1.2.2,1.7.8c.5.6.8,1.2.8,1.9,0,1.3-.7,2.3-2.1,2.9-1.4.7-3.4,1-6,1s-4.4-.4-5.6-1.3-2.1-2-2.5-3.5-.6-3.5-.6-6v-15.3h-1c-1.1,0-2.1-.2-2.6-.8-.6-.6-.9-1.3-.9-2.1s.3-1.5,1-2.1,1.3-.7,2.5-.7Z"></path>
      <path class="cls-4" d="M1046.3,602.3c-1.9,1.5-3.8,2.6-5.6,3.3-1.8.7-3.8,1.1-6,1.1s-3.8-.4-5.4-1.2c-1.5-.8-2.8-1.9-3.6-3.3-.9-1.3-1.3-2.9-1.3-4.5s.7-4,2.1-5.6,3.3-2.5,5.7-3.1c.5,0,1.7-.4,3.7-.8s3.7-.8,5.2-1.1,3-.8,4.7-1.3c0-2.1-.6-3.6-1.3-4.6s-2.3-1.5-4.7-1.5-3.6.3-4.6.9c-1,.6-1.9,1.4-2.6,2.5s-1.3,1.9-1.5,2.2-1,.6-1.9.6-1.7-.3-2.3-.9c-.6-.6-1-1.3-1-2.2,0-1.4.5-2.8,1.5-4s2.5-2.4,4.6-3.3c2.1-.9,4.7-1.3,7.9-1.3s6.3.4,8.3,1.3c2,.8,3.4,2.1,4.3,3.9.8,1.8,1.3,4.1,1.3,7.1v4.8c0,1.3,0,2.8,0,4.4,0,1.5.2,3.1.7,4.7s.7,2.7.7,3.2c0,.8-.4,1.6-1.2,2.2s-1.7,1-2.6,1-1.6-.4-2.5-1.2c-.8-.9-1.7-2-2.5-3.4ZM1045.8,590.7c-1.2.4-2.9.9-5.1,1.3-2.2.5-3.8.8-4.6,1-.9.2-1.7.6-2.5,1.3s-1.2,1.6-1.2,2.7.5,2.2,1.3,3.1c1,.9,2.1,1.3,3.6,1.3s3-.3,4.4-1c1.3-.7,2.3-1.6,2.9-2.7.7-1.2,1.1-3.2,1.1-6v-1.1h0Z"></path>
      <path class="cls-4" d="M1090.2,580.2v23.2c0,2.6-.3,4.9-.9,6.8-.6,1.9-1.5,3.5-2.7,4.8-1.3,1.3-2.9,2.1-4.9,2.8-2,.6-4.5.9-7.5.9s-5.2-.4-7.4-1.2-3.8-1.7-5-3c-1.2-1.2-1.7-2.5-1.7-3.7s.3-1.7,1-2.4,1.4-1,2.4-1,2.2.5,3.1,1.5c.4.6.9,1,1.3,1.6s1,1,1.5,1.3c.6.4,1.2.6,2,.9.8.2,1.7.2,2.7.2,2.1,0,3.6-.3,4.8-.9,1.1-.6,1.9-1.3,2.4-2.4s.7-2.1.8-3.3.2-3.1.2-5.7c-1.2,1.7-2.6,3-4.3,3.9s-3.5,1.3-5.7,1.3-5-.7-7-2.1c-2-1.3-3.5-3.3-4.6-5.7-1-2.5-1.6-5.3-1.6-8.5s.3-4.5,1-6.5c.6-1.9,1.6-3.6,2.8-4.8,1.2-1.3,2.6-2.3,4.2-3,1.6-.6,3.3-1,5.2-1s4.2.4,5.9,1.3,3.2,2.2,4.6,4v-1.1c0-1.3.3-2.5,1-3.2.7-.8,1.6-1.1,2.6-1.1,1.5,0,2.5.5,3.1,1.5s1,2.7,1,4.6ZM1067.1,590.3c0,3.3.7,5.6,2.1,7.3,1.4,1.7,3.3,2.5,5.5,2.5s2.5-.3,3.7-1c1.2-.7,2.1-1.7,2.9-3.2s1.1-3.2,1.1-5.2c0-3.3-.7-5.8-2.1-7.6s-3.3-2.7-5.6-2.7-4.1.9-5.5,2.6c-1.3,1.7-2.1,4.2-2.1,7.4Z"></path>
      <path class="cls-4" d="M1119,592.5h-15.6c0,1.8.4,3.4,1.1,4.8s1.7,2.5,2.9,3.1c1.2.7,2.5,1,3.9,1s1.8,0,2.6-.3c.8-.2,1.6-.6,2.3-1s1.4-1,2.1-1.5c.6-.6,1.4-1.3,2.5-2.2.4-.3,1-.6,1.7-.6s1.5.2,2,.6c.5.5.8,1.1.8,1.9s-.3,1.6-.9,2.5-1.4,1.9-2.5,2.8c-1.1.9-2.5,1.6-4.3,2.2s-3.7.9-6,.9c-5.1,0-9.1-1.4-11.9-4.4-2.9-2.9-4.3-6.9-4.3-11.9s.3-4.5,1-6.6c.7-2,1.7-3.7,3.1-5.2,1.3-1.4,3-2.5,5-3.3s4.1-1.2,6.5-1.2,5.8.6,8,2c2.2,1.3,3.9,3,5,5.1,1.1,2.1,1.7,4.2,1.7,6.3s-.6,3.3-1.7,3.9-2.9,1-5,1ZM1103.5,588h14.4c-.2-2.7-1-4.8-2.2-6.1-1.3-1.3-2.9-2.1-5-2.1s-3.6.7-4.9,2.1-2.1,3.4-2.3,6.1Z"></path>
      <path class="cls-4" d="M1135.4,606.8c-1.3,0-2.4-.4-3.3-1.2s-1.4-1.9-1.4-3.3.5-2.2,1.3-3.1c1-.9,2-1.3,3.3-1.3s1.7.2,2.5.8,1.3,1.3,1.7,2.2.6,2.2.6,3.6-.4,3.7-1.2,5.4-1.8,3-3,4-2.2,1.5-3.2,1.5-1.1-.2-1.5-.6-.6-.9-.6-1.3c0-.8.4-1.4,1.2-1.9,2.3-1.3,3.5-2.9,3.5-4.8Z"></path>
      <path class="cls-4" d="M1168.8,572.3c0-1.8.5-3.5,1.4-4.9,1-1.5,2.3-2.7,4.1-3.6s4-1.3,6.4-1.3,4.6.5,6.3,1.3c1.8,1,3.1,2.1,4,3.6.9,1.5,1.3,3,1.3,4.6s-.7,4-2.1,5.7c-1.4,1.6-3.6,3.3-6.3,4.9,1,1.1,1.9,2.2,2.7,3.3.9,1,1.7,2,2.5,2.9s1.5,1.6,2.1,2.2c.3-.6.7-1.6,1.3-3.1s1.2-2.5,1.7-3.3c.6-.6,1.3-1,2.3-1s1.7.3,2.5,1,1,1.4,1,2.4-.3,2.1-.9,3.6c-.6,1.6-1.5,3.3-2.6,5.2.7.6,1.8,1.6,3.4,2.9s2.5,2.1,2.9,2.6c.4.5.6,1,.6,1.8s-.4,1.8-1.1,2.5-1.5,1-2.5,1-1.8-.3-2.6-.9c-.9-.6-2.7-2-5.5-4.3-1.3,1.2-2.5,2.1-3.9,2.9s-2.8,1.3-4.4,1.7-3.3.6-5.2.6-4.6-.3-6.6-1c-1.9-.7-3.6-1.7-4.8-2.9s-2.2-2.5-2.9-4c-.6-1.5-1-2.9-1-4.4s.2-2.8.7-4c.5-1.2,1.1-2.3,2-3.3s1.9-1.9,3.1-2.8c1.3-.9,2.7-1.7,4.3-2.6-1.4-1.8-2.5-3.5-3.3-4.9-.8-1.3-1.2-2.9-1.2-4.4ZM1177,586.2c-2,1.1-3.5,2.3-4.4,3.4-1,1.1-1.5,2.5-1.5,4s.2,1.7.6,2.5.9,1.6,1.6,2.3,1.5,1.3,2.4,1.6,1.9.6,2.9.6,2-.2,2.9-.5c1-.3,1.8-.8,2.6-1.3.9-.6,1.7-1.3,2.6-2.1-1.7-1.6-3.3-3.2-4.7-4.8-1.2-1.4-2.9-3.3-4.8-5.7ZM1180,578.3c2-1.3,3.4-2.3,4.3-3.2s1.3-1.9,1.3-3.2-.5-2.2-1.3-3-2-1.2-3.3-1.2-2.5.4-3.3,1.3-1.3,1.8-1.3,2.9.2,1.2.5,1.9.8,1.3,1.3,2c.5.6,1.2,1.4,2,2.5Z"></path>
      <path class="cls-4" d="M1239,599.6l-6.8-27.2v29.5c0,1.7-.4,2.9-1.1,3.6s-1.7,1.2-2.9,1.2-2.1-.4-2.9-1.2-1.1-2.1-1.1-3.7v-33.9c0-1.9.5-3.1,1.4-3.8,1-.6,2.3-1,4-1h2.7c1.6,0,2.8.2,3.5.5.7.3,1.3.8,1.6,1.6s.7,2,1.2,3.7l6.2,23.4,6.2-23.4c.5-1.7.9-2.9,1.2-3.7s.9-1.3,1.6-1.6,1.9-.5,3.5-.5h2.7c1.7,0,2.9.3,4,1,1,.6,1.4,1.9,1.4,3.8v33.9c0,1.7-.4,2.9-1.1,3.6s-1.7,1.2-2.9,1.2-2.1-.4-2.9-1.2c-.7-.8-1.1-2.1-1.1-3.6v-29.5l-6.8,27.2c-.5,1.7-.8,3.1-1.1,3.9s-.8,1.6-1.6,2.2c-.8.7-1.8,1-3.2,1s-1.9-.2-2.5-.6c-.7-.5-1.3-1-1.7-1.7s-.7-1.4-1-2.3c0-.7-.2-1.6-.4-2.5Z"></path>
      <path class="cls-4" d="M1293.9,602.3c-1.9,1.5-3.8,2.6-5.6,3.3-1.8.7-3.8,1.1-6,1.1s-3.8-.4-5.4-1.2c-1.5-.8-2.8-1.9-3.6-3.3-.9-1.3-1.3-2.9-1.3-4.5s.7-4,2.1-5.6,3.3-2.5,5.7-3.1c.5,0,1.7-.4,3.7-.8s3.7-.8,5.2-1.1,3-.8,4.7-1.3c0-2.1-.6-3.6-1.3-4.6s-2.3-1.5-4.7-1.5-3.6.3-4.6.9c-1,.6-1.9,1.4-2.6,2.5s-1.3,1.9-1.5,2.2-1,.6-1.9.6-1.7-.3-2.3-.9c-.6-.6-1-1.3-1-2.2,0-1.4.5-2.8,1.5-4s2.5-2.4,4.6-3.3c2.1-.9,4.7-1.3,7.9-1.3s6.3.4,8.3,1.3c2,.8,3.4,2.1,4.3,3.9.8,1.8,1.3,4.1,1.3,7.1v4.8c0,1.3,0,2.8,0,4.4,0,1.5.2,3.1.7,4.7s.7,2.7.7,3.2c0,.8-.4,1.6-1.2,2.2s-1.7,1-2.6,1-1.6-.4-2.5-1.2c-.8-.9-1.6-2-2.5-3.4ZM1293.4,590.7c-1.2.4-2.9.9-5.1,1.3-2.2.5-3.8.8-4.6,1-.9.2-1.7.6-2.5,1.3s-1.2,1.6-1.2,2.7.5,2.2,1.3,3.1c1,.9,2.1,1.3,3.6,1.3s3-.3,4.4-1c1.3-.7,2.3-1.6,2.9-2.7.7-1.2,1.1-3.2,1.1-6v-1.1h0Z"></path>
      <path class="cls-4" d="M1329.1,603.1l-7.1-11.6-4.3,4v6.3c0,1.5-.4,2.7-1.2,3.6s-1.7,1.3-2.8,1.3-2.2-.4-2.9-1.2c-.7-.8-1-2-1-3.6v-34c0-1.7.3-3.1,1-4,.7-1,1.7-1.3,2.9-1.3s2.2.4,2.9,1.3c.7.9,1.1,2.1,1.1,3.7v19.3l9-9.4c1.1-1.2,2-2,2.5-2.4s1.3-.6,2.1-.6,1.8.3,2.5,1c.6.6,1,1.4,1,2.4s-1.1,2.7-3.3,4.7l-4.2,3.9,8.2,12.9c.6,1,1,1.7,1.3,2.1.2.5.4,1,.4,1.4,0,1.3-.3,2.3-1,3-.7.7-1.6,1.1-2.7,1.1s-1.7-.2-2.2-.8-1.5-1.6-2.4-3Z"></path>
      <path class="cls-4" d="M1363.5,592.5h-15.6c0,1.8.4,3.4,1.1,4.8s1.7,2.5,2.9,3.1c1.2.7,2.5,1,3.9,1s1.8,0,2.6-.3c.8-.2,1.6-.6,2.3-1s1.4-1,2.1-1.5c.6-.6,1.4-1.3,2.5-2.2.4-.3,1-.6,1.7-.6s1.5.2,2,.6c.5.5.8,1.1.8,1.9s-.3,1.6-.9,2.5-1.4,1.9-2.5,2.8c-1.1.9-2.5,1.6-4.3,2.2s-3.7.9-6,.9c-5.1,0-9.1-1.4-11.9-4.4-2.9-2.9-4.3-6.9-4.3-11.9s.3-4.5,1-6.6c.7-2,1.7-3.7,3.1-5.2,1.3-1.4,3-2.5,5-3.3s4.1-1.2,6.5-1.2,5.8.6,8,2c2.2,1.3,3.9,3,5,5.1,1.1,2.1,1.7,4.2,1.7,6.3s-.6,3.3-1.7,3.9-2.9,1-5,1ZM1347.9,588h14.4c-.2-2.7-1-4.8-2.2-6.1-1.3-1.3-2.9-2.1-5-2.1s-3.6.7-4.9,2.1-2.1,3.4-2.3,6.1Z"></path>
      <path class="cls-4" d="M1384.7,595.2v6.7c0,1.6-.4,2.9-1.1,3.6-.8.8-1.7,1.2-2.9,1.2s-2.1-.4-2.9-1.2c-.7-.8-1.1-2-1.1-3.6v-22.2c0-3.6,1.3-5.4,3.9-5.4s2.3.4,2.9,1.3.9,2.1,1,3.7c1-1.7,1.9-2.9,2.9-3.7,1-.9,2.3-1.3,4-1.3s3.3.4,4.8,1.3c1.6.9,2.4,2,2.4,3.3s-.3,1.7-1,2.4-1.4,1-2.1,1-1-.2-2.1-.6c-1.1-.4-2.1-.6-2.9-.6-1.2,0-2.1.3-2.9,1s-1.3,1.5-1.7,2.7-.7,2.6-.9,4.3c-.2,1.8-.2,3.8-.2,6.2Z"></path>
      <path class="cls-4" d="M1427.1,596.3c0,2.2-.6,4-1.6,5.6s-2.6,2.8-4.8,3.6c-2.1.8-4.6,1.2-7.6,1.2s-5.3-.5-7.4-1.3c-2.1-.9-3.6-2-4.5-3.3-1-1.3-1.4-2.6-1.4-4s.3-1.6,1-2.2c.6-.6,1.4-1,2.4-1s1.5.2,1.9.6c.5.4.9,1,1.3,1.7.8,1.4,1.8,2.5,2.9,3.2,1.1.7,2.7,1,4.7,1s2.9-.3,3.9-1c1-.7,1.5-1.5,1.5-2.5,0-1.4-.6-2.5-1.6-3.1-1-.6-2.8-1.3-5.2-1.8-2.8-.7-5-1.4-6.7-2.1-1.7-.7-3.1-1.7-4.1-2.9-1-1.2-1.5-2.7-1.5-4.5s.5-3.1,1.4-4.5c1-1.4,2.4-2.5,4.2-3.4s4.1-1.3,6.7-1.3,3.9.2,5.6.6,3,1,4.1,1.7,1.9,1.5,2.5,2.4c.6.9.9,1.7.9,2.5s-.3,1.7-1,2.2c-.6.6-1.5.9-2.6.9s-1.5-.2-2.1-.7c-.6-.5-1.3-1.2-2-2.1-.6-.8-1.3-1.4-2.1-1.9-.8-.5-1.9-.7-3.3-.7s-2.6.3-3.6,1-1.4,1.3-1.4,2.3.3,1.5,1,2.1c.7.6,1.7,1,2.9,1.3s2.9.8,4.9,1.3c2.5.6,4.5,1.3,6,2.1,1.6.9,2.8,1.8,3.6,2.9.7,1.2,1.1,2.5,1.1,4Z"></path>
    </g>
  </g>
  <g>
    <g>
      <path class="cls-4" d="M50.2,220c-10.9,0-20.4-1.7-28.1-5.1-8.7-3.8-15.5-10.9-20.3-21.2-.4-.8-.6-1.6-.7-2.4-.7-4.5-1.1-9.5-1.1-14.8,0-11,3.5-27.8,10.8-51.3,6.7-21.4,10-36.7,10-45.3s-.6-6.6-8.1-20.5C5.7,46.5,2.4,37.3,2.4,30.6s1.8-10.9,5.2-15.5c3.2-4.3,8.1-7.8,14.7-10.7.5-.2.9-.4,1.4-.5,4.8-1.2,9.4-2.1,13.8-2.8,4.6-.7,9.3-1.1,13.9-1.1s10.9.6,15.7,1.9c5,1.3,9.9,3.4,14.7,6.3.5.3.9.6,1.4,1,3.3,2.9,5,6,5.3,9.5.1,1.8.1,3.5-.2,5.2,0,.2-.1.5-.2.7-.9,3.7-3.3,10.1-7.2,19.5-4.9,11.6-5.9,14.5-6.1,15.3-.5,1.6-.8,3.2-1.1,5-.3,1.6-.4,3.5-.4,5.5,0,2.9.4,5.3,1.2,7.3.2.5.4,1,.7,1.5,1-1.8,1.9-3.5,2.8-5.1,3-5.4,8.1-8.5,13.9-8.5s7.3,1.1,10.8,3.3c.6.4,1.2.9,1.7,1.4,9.2,9.4,14.8,23.2,16.6,41v.4c.8,13.8,1.6,27.6,2.4,41.2v.5c0,20.4-2.8,35-8.5,44.9-5.9,10.3-14.3,17.3-24.7,21-1,.3-1.9.5-3,.5-3.8,0-9.9.1-18.2.4-8.3.2-14.7.3-18.8.3Z"></path>
      <path class="cls-4" d="M180,224.6c-7.3,0-13.8-.8-19.4-2.4-6.3-1.8-13.1-6.1-20.9-13.2-7.9-7.2-14-18-18.8-32.9-4.5-14.1-6.7-29.7-6.7-46.4s.3-13.6.9-21,1.9-17.7,3.8-30.8c.1-.4.2-.8.3-1.2,6.9-23.1,12.8-39.3,18.1-49.7,6.4-12.4,15-19.6,25.7-21.4s13.9-2.2,15.4-2.3c2.3-.2,4.4-.3,6.4-.3,5.8,0,11,.9,15.6,2.7,4.9,1.9,9.4,5.2,13.6,9.7,10.3,11.5,18.1,26.3,23.3,43.9,5.1,17.4,7.6,43.1,7.6,78.4v23.5c0,.4,0,.8-.1,1.2-1.6,12.1-5.2,23.2-10.7,32.9-5.8,10.4-14.1,18.3-24.6,23.5-.2.1-.3.2-.5.2-8.6,3.7-18.4,5.6-29,5.6ZM176.4,76.8c.8.3,1.9.4,3.1.4s2.1,0,2.9-.4v-8.3c0-3.2-.1-5.8-.3-7.8-.2-1.7-.7-4-1.5-6.8-.4-1.4-.8-2.7-1.3-3.7-.8,1.4-1.4,2.7-1.7,4-.5,2-.8,4.3-1,6.8-.2,2.9-.2,5.1-.2,6.6v9.2Z"></path>
      <path class="cls-4" d="M295.1,219.7c-7.2,0-13.9-1-20.1-2.8-.2-.1-.5-.1-.7-.2-10-3.9-18.1-10.6-24.2-19.7-5.7-8.6-9.8-18.3-12.1-29-.1-.6-.2-1.3-.2-1.9,0-2.3-.1-6.4-.2-12.7-.2-6.2-.2-11.1-.2-14.6,0-12.1.7-21.4,2.1-28.2,1.4-6.9,3.5-13.1,6.1-18.3.9-1.7,2.3-3.2,4-4,2.6-1.3,5.4-1.9,8.4-1.9s7.7,1.5,14.1,5.2c1.2.7,2.1,1.2,2.9,1.6-1.7-3.3-5-7.9-11.2-13.9-11.2-10.9-16.9-21.7-16.9-32.3v-3c0-7,2.1-13.5,6.3-19.4,3.7-5.3,8.7-10,14.9-13.9.4-.2.7-.4,1.1-.6,8.4-3.8,17.7-5.7,27.7-5.7s18,1.8,25.8,5.5c8.2,3.8,14.7,9.8,19.3,17.6.1.1.1.2.2.4,2.1,4.1,3.2,8.3,3.2,12.7s-.5,6.7-1.6,9.7c-1,2.8-2.8,6-5.5,9.8-2.8,4-6.8,6.5-12,7.7,12,8.5,19.5,16.6,22.7,24.6,6.7,12.8,10,27.8,10,44.5s-1.6,23.2-4.7,34c-3.2,10.8-7.9,20.8-14.1,29.7-.2.3-.5.7-.8,1-5.6,6-12.4,10.6-20.2,13.7-7.8,2.9-15.9,4.4-24.1,4.4ZM290.1,44.7c1,.8,3.2,2.3,8.1,5.4-.4-1.4-.8-3-1.3-4.7-.7-2.7-1.5-4.5-2-5.2-.2,0-.6,0-1,.2-1.1.5-2,1.2-2.8,2.3-.7.9-.9,1.5-1,2Z"></path>
      <path class="cls-4" d="M469.3,217.6c-4.3,0-9.1-.3-14.2-.8-4.7-.5-8.3-.8-10.8-.9-.7,0-1.3-.2-2-.3-6.2-1.8-11.9-4.3-16.8-7.2-5.8-3.5-10.2-8.3-12.9-14.1-.2-.5-.4-1-.6-1.6-1.6-6.5-2.5-13-2.5-19.2,0-11,2.6-23,7.8-35.7,4.7-11.6,9.7-23.5,14.6-35.3,4.2-10.2,6.5-19.6,6.7-27.8-3.4-12.3-6.8-24.9-10.1-37.5-.2-.7-.3-1.5-.3-2.3,0-5.1,1.2-9.8,3.5-13.9,2.4-4.2,5.6-7.5,9.6-9.7,3.5-1.9,8.2-3.3,14.2-4.1,5.2-.7,11.4-1,18.2-1s18.2.8,26.1,2.5c9.1,1.9,16.2,5.5,21,10.7,1.2,1.4,2.8,3.5,6,9.8,2.6,5.3,4,11,4,17s-.5,6.6-1.5,9.4c-.3.9-.8,1.7-1.3,2.4-2.3,3.1-6.8,6.8-14.7,6.8s-1.5,0-2.2,0c0,4.1-.4,7-1.1,9.2-1.2,4.1-4.3,7.4-9.2,9.8-1.2.6-2.6.9-4,.9-3,0-4.9.4-6,.8,0,7.8,2.4,16.3,6.8,25.4,5.2,10.8,10.3,21.5,15.4,31.7,5.8,11.7,8.7,22.9,8.7,33.3s-.9,12.5-2.8,18.6c-.3.9-.7,1.8-1.3,2.6-5.4,7.6-12.6,13.1-21.3,16.2-8.1,2.9-17.1,4.4-27,4.4Z"></path>
      <path class="cls-4" d="M587.2,218.5c-8.9,0-17.8-.8-26.3-2.5-9.1-1.8-16.1-4.1-21.5-7.3s-9.8-7-13-11.4c-3.7-5-5.5-11-5.5-18,0-10.9,2.2-22.5,6.5-34.7l12-34.1c3.7-10.5,5.6-19.8,5.6-27.8s-.3-7.6-.8-10.7c-.5-2.9-1.6-6.4-3.2-10.5-2.2-4.2-4.5-8.7-6.8-13.5-2.9-6.1-4.4-11.9-4.4-17.5s.3-5.4,1-8c.3-1.3,1-2.6,1.9-3.7,5-5.9,11.4-9.9,18.8-12,6.5-1.8,14.2-2.8,22.7-2.8s11,.2,15.9.5c4.6.3,10.3.6,17,1h.2c4,.3,7.2,1.3,9.6,3.1,1.4,1.1,3.1,2.7,5.4,5.1,3.4,3.8,6.2,8,8.2,12.5,2.2,4.9,3.4,9.7,3.4,14.4s-1.2,9.6-3.7,13.8c-.4.7-.9,1.3-1.4,1.8-3.3,3.3-7.7,5.1-12.7,5.1h-.3c0,1.2,0,2.3,0,3.1v1.9c.7,0,1.5-.2,2.2-.2,3.2,0,6.9,1.2,11.4,3.7,5.5,3,9.2,9,11.2,18.2,0,.2,0,.5,0,.7,1.4,10.2,3,20.6,4.6,30.7,0,.5,0,.9,0,1.4v11.4c0,3.7,0,7.5.2,11.3v.4c0,19-1,32.2-2.9,40.5-2.2,9.3-5.7,16.2-10.6,21-4.8,4.7-11.4,8.1-19.8,10.2-7.4,2-15.9,2.9-25.2,2.9ZM594.8,83.2c.5,0,.8,0,1.1,0,.3,0,.9-.5,1.9-1.4-1.3,0-2,.3-2.4.5s-.3.2-.3.2c0,.2-.2.4-.2.5,0,0,0,.1,0,.1Z"></path>
      <path class="cls-4" d="M687.2,220c-10.9,0-20.4-1.7-28.1-5.1-8.6-3.8-15.5-10.9-20.3-21.2-.4-.8-.6-1.6-.7-2.4-.7-4.5-1.1-9.5-1.1-14.8,0-11,3.5-27.8,10.8-51.3,6.7-21.4,10-36.7,10-45.3s-.6-6.6-8.1-20.5c-7-12.9-10.3-22.1-10.3-28.8s1.8-10.9,5.2-15.5c3.2-4.3,8.1-7.8,14.7-10.7.5-.2.9-.4,1.4-.5,4.8-1.2,9.4-2.1,13.8-2.8,4.6-.7,9.3-1.1,13.9-1.1s10.9.6,15.7,1.9c5,1.3,9.9,3.4,14.7,6.3.5.3.9.6,1.4,1,3.3,2.9,5,6.1,5.3,9.5,0,1.8,0,3.5-.2,5.2,0,.2,0,.5,0,.7-.9,3.8-3.3,10.1-7.2,19.5-4.8,11.6-5.9,14.5-6.1,15.3-.5,1.6-.8,3.2-1.1,5-.3,1.6-.4,3.5-.4,5.5,0,2.9.4,5.3,1.2,7.3.2.5.4,1,.7,1.5,1-1.8,1.9-3.5,2.8-5.1,3-5.4,8.1-8.5,13.9-8.5s7.3,1.1,10.8,3.3c.6.4,1.2.8,1.7,1.4,9.2,9.4,14.8,23.2,16.6,41v.4c.8,13.9,1.6,27.6,2.4,41.3v.5c0,20.4-2.8,35-8.5,44.9-5.9,10.3-14.3,17.3-24.7,21-1,.3-1.9.5-3,.5-3.8,0-9.9.1-18.2.4-8.5.1-14.8.2-18.9.2Z"></path>
      <path class="cls-4" d="M804.4,218c-11.2,0-21.9-2.5-31.8-7.4-10.8-5.3-17.9-12.5-20.9-21.5,0-.3-.2-.6-.3-.9-1.3-5.6-1.9-11.6-1.9-17.8,0-12.1,3.9-28.1,12-48.9,7.2-18.4,10.8-32.3,10.8-41.1s-.3-6.2-.8-9.4c-.5-3.1-1.3-6-2.2-8.4-1-2.7-2.9-6.9-5.7-12.4-3.6-7.2-5.3-13.2-5.3-18.6s1.2-8.8,3.5-13.5c2.8-5.6,8.3-9.8,16.3-12.5,6.6-2.2,14.4-3.4,23.1-3.4s15.6.8,22.3,2.4c8.9,2.2,14,5.2,16.5,9.8,1.5,2.8,2.7,5.8,3.5,9.1.8,3.4,1.2,6.3,1.2,9,0,6.8-3,16.3-9.3,29.2-6.9,14.3-7.5,19.2-7.5,20.3,0,1.6.2,3.2.6,4.8.4,1.5,2.6,8.2,10.6,31.9,6.9,20.4,10.3,36.5,10.3,49.2s-1.7,19.2-5.1,28.8c0,.4-.3.8-.5,1.2-3.7,7-9.3,12.2-16.8,15.5-6.6,3.1-14.3,4.6-22.6,4.6Z"></path>
      <path class="cls-4" d="M885.7,221.2c-10.1,0-18.9-1.4-25.9-4.1-8.1-3.1-14.6-9.2-19.2-17.9-.4-.8-.7-1.6-.8-2.4-.7-3.6-1.3-7.8-1.6-12.6-.3-4.6-.5-9.2-.5-13.6,0-12.5,1.4-28.2,4.2-46.6,2.7-17.8,4.3-29.5,4.8-34.7,0-1.3.5-2.5,1.1-3.7,2.6-4.6,7.2-10.6,14-18.1h-1c-3.4,0-7.2-1-11.7-3-2.5-1.1-4.3-3.2-5-5.8-2-7.3-3.3-12.6-4.1-16.1-.9-3.9-1.3-8.4-1.3-13.2s.9-10.5,2.6-14.8c1-2.5,3-4.4,5.5-5.2,6.8-2.2,13.9-4,21.1-5.1s15.1-1.7,23.5-1.7c15.6,0,30.4,2.2,44.2,6.6,1.5.5,2.9,1.4,4,2.5l5.3,5.9c.6.7,1.2,1.5,1.6,2.4,1.5,3.3,2.2,6.6,2.2,9.8,0,6.3-2.8,12.4-8.2,18.1-3.7,3.8-7.2,7.4-10.5,10.8-1.5,1.8-3.7,4.1-6.8,7.1,2.4.5,4.9,1.5,7.6,3.1,1,.6,1.8,1.3,2.5,2.2l4.1,5.3c1.2,1.6,1.9,3.5,1.9,5.5,0,8.3,2,23.8,6,46.1,4.3,23.7,6.3,40.1,6.3,50.3s-.6,14.4-1.8,21.1c-.2.9-.4,1.7-.8,2.5-3.8,7.5-9.4,13.2-16.7,17-1.3.7-2.7,1-4.2,1h-.8c-1.8-.2-3.4-.3-4.7-.3-1.2-.1-2.2-.1-3-.1-1.5,0-5.4.1-15,.8-8.5.6-14.6.9-18.9.9Z"></path>
      <path class="cls-4" d="M1072.8,217.3c-4.3,0-9.1-.3-14.2-.8-4.7-.5-8.3-.8-10.8-.9-.7,0-1.3-.2-2-.3-6.2-1.8-11.9-4.3-16.8-7.2-5.8-3.5-10.1-8.3-12.8-14.1-.2-.5-.4-1-.6-1.6-1.6-6.5-2.4-12.9-2.4-19.1,0-11,2.6-23,7.8-35.6,4.7-11.5,9.6-23.4,14.5-35.3,4.2-10.2,6.5-19.5,6.7-27.7-3.4-12.3-6.8-24.9-10.1-37.4-.2-.7-.3-1.5-.3-2.3,0-5.1,1.2-9.8,3.4-13.8,2.4-4.2,5.6-7.5,9.6-9.7,3.5-1.9,8.1-3.3,14.2-4.1,5.2-.7,11.3-1,18.1-1s18.2.8,26.1,2.5c9.1,1.9,16.1,5.5,21,10.7,1.2,1.4,2.8,3.5,5.9,9.8,2.6,5.3,4,11,4,16.9s-.5,6.6-1.5,9.4c-.3.9-.8,1.7-1.3,2.4-2.3,3.1-6.8,6.8-14.7,6.8s-1.5,0-2.2,0c0,4-.4,7-1.1,9.2-1.2,4.1-4.3,7.4-9.2,9.8-1.2.6-2.6.9-4,.9-3,0-4.9.4-6,.8.2,7.8,2.4,16.3,6.7,25.3,5.2,10.8,10.3,21.5,15.3,31.6,5.8,11.7,8.7,22.9,8.7,33.3s-.9,12.4-2.8,18.6c-.3.9-.7,1.8-1.3,2.6-5.4,7.6-12.6,13.1-21.2,16.2-7.8,2.8-16.8,4.2-26.7,4.2Z"></path>
      <path class="cls-4" d="M1174.8,219.7c-10.9,0-20.3-1.7-28.1-5.1-8.6-3.8-15.5-10.9-20.3-21.1-.4-.8-.6-1.6-.7-2.4-.7-4.5-1.1-9.4-1.1-14.7,0-11,3.5-27.8,10.8-51.2,6.6-21.4,10-36.6,10-45.2s-.6-6.5-8.1-20.4c-7-12.9-10.3-22.1-10.3-28.8s1.8-10.9,5.2-15.5c3.2-4.3,8-7.8,14.7-10.7.5-.2.9-.4,1.4-.5,4.8-1.2,9.4-2.1,13.7-2.8,4.6-.7,9.2-1.1,13.9-1.1s10.9.6,15.7,1.9c4.9,1.3,9.9,3.4,14.6,6.3.5.3.9.6,1.4,1,3.3,2.9,5,6,5.3,9.5,0,1.8,0,3.5-.2,5.2,0,.2,0,.5,0,.7-.9,3.8-3.3,10.1-7.2,19.5-4.8,11.5-5.9,14.5-6.1,15.2-.5,1.6-.8,3.2-1.1,4.9-.3,1.6-.4,3.5-.4,5.5,0,2.9.4,5.3,1.2,7.2.2.5.4,1,.7,1.5,1-1.8,1.9-3.5,2.8-5,3-5.4,8.1-8.5,13.9-8.5s7.2,1.1,10.8,3.3c.6.4,1.2.9,1.7,1.4,9.2,9.4,14.7,23.2,16.6,40.9v.4c.8,13.8,1.6,27.6,2.4,41.2v.5c0,20.3-2.8,35-8.5,44.8-5.9,10.2-14.2,17.3-24.7,20.9-.9.3-1.9.5-3,.5-3.8,0-9.9.1-18.1.4-8.3.2-14.7.3-18.8.3Z"></path>
      <path class="cls-4" d="M1304.4,218.3c-8.9,0-17.8-.8-26.3-2.5-9.1-1.7-16.1-4.1-21.4-7.3-5.4-3.2-9.7-7-12.9-11.4-3.7-4.9-5.5-11-5.5-17.9,0-10.8,2.2-22.5,6.4-34.6l12-34c3.7-10.5,5.5-19.8,5.5-27.8s-.3-7.6-.8-10.7c-.5-2.9-1.6-6.4-3.2-10.5-2.2-4.2-4.5-8.7-6.8-13.5-2.9-6-4.4-11.9-4.4-17.5s.3-5.4,1-8c.3-1.4,1-2.6,1.9-3.7,5-5.9,11.4-9.9,18.8-12,6.5-1.8,14.1-2.8,22.7-2.8s11,.2,15.9.5c4.6.3,10.3.6,17,1h.2c4,.3,7.2,1.3,9.6,3.1,1.4,1.1,3.1,2.7,5.4,5.1,3.4,3.8,6.2,8,8.2,12.5,2.2,4.9,3.4,9.7,3.4,14.4s-1.2,9.6-3.7,13.8c-.4.7-.9,1.3-1.4,1.8-3.3,3.3-7.7,5.1-12.7,5.1h-.3c0,1.2,0,2.3,0,3.1v1.9c.7,0,1.4-.2,2.2-.2,3.2,0,6.8,1.2,11.4,3.7,5.5,3,9.1,9,11.2,18.1,0,.2,0,.5,0,.7,1.4,10.3,3,20.6,4.6,30.6,0,.5,0,.9,0,1.4v11.4c0,3.7,0,7.5.2,11.2v.4c0,19-1,32.2-2.9,40.5-2.2,9.3-5.7,16.2-10.6,21-4.8,4.7-11.4,8.1-19.7,10.2-7.6,1.9-16,2.9-25.3,2.9ZM1312,83.2c.5,0,.8,0,1,0,.3,0,.9-.5,1.9-1.3-1.2,0-2,.3-2.4.5-.2,0-.3.2-.3.2,0,.2-.2.4-.2.5q0,0,0,0Z"></path>
      <path class="cls-4" d="M1474.9,219c-5.8,0-11-.7-15.5-2-5.3-1.5-10-4.7-14-9.2-2.1-2.5-4-5.3-5.5-8.5-.4.8-.8,1.7-1.2,2.5-3.5,6.8-9.2,11.5-17,14.1-6.4,2.1-13.4,3.1-20.9,3.1s-8.3-.3-12.2-1c-4.4-.7-8.5-2.1-12.1-4-3.7-2-7.1-4.7-10.2-8.2-2.9-3.3-5.5-7.5-7.6-12.4-.2-.5-.4-1.1-.6-1.7-1.3-5.8-1.9-11.7-1.9-17.7,0-11.4,2.9-23.6,8.7-36.2,5.1-11.2,10.5-22.9,16-34.8,4.8-10.5,7.3-20.1,7.3-28.6s-.3-8.4-1-11.2c-.4-1.6-1.6-5.5-5.2-13.6-3.7-8.2-5.4-13.8-5.4-18.2s.7-6.6,2.1-10.1c.4-.9.8-1.7,1.5-2.5,4.6-5.5,10.7-9.2,18.2-11.1,6.3-1.5,13.5-2.3,21.7-2.3h9.2c4.8,0,9.5,0,14-.2l14.1-.5h.3c8,0,14.9.4,20.5,1.2,6.1.9,12.4,2.8,18.9,5.7.9.4,1.7,1,2.5,1.7,5.2,5,7.9,10.9,7.9,17.5s-1.6,9.8-5.1,17.2c-3.3,7-3.8,9.6-3.9,10.2,0,.4,0,.7-.2,1-1.3,5.5-1.9,10.5-1.9,15,0,8.8,2.3,18.7,6.8,29.3,4.9,11.6,9.9,22.9,14.7,33.9,0,.1,0,.3.2.4,5.5,14.3,8.4,28.1,8.4,41s-1.2,14.6-3.8,20c-2.9,6.1-7.7,10.6-14.4,13.3-5,2.1-10.4,3.7-16.2,5-6.2,1.3-11.9,1.9-17.2,1.9ZM1437.2,93.9c-.5,3.2-.6,4.8-.6,5.5,0,1.2,0,2.3,0,3.1,0,6.3,1.3,15.6,3.8,27.6,2.6-14.1,3.9-23.5,3.9-28.2s-.6-5.9-1.7-8.2c-.3-.7-.5-.8-.8-.9-1.8,0-3.2.4-4.2,1-.2,0-.3,0-.3,0Z"></path>
    </g>
    <g>
      <path class="cls-2" d="M79.4,22.5c-.8,3.3-3.1,9.3-6.8,18.2s-5.9,14.3-6.4,16.2c-.6,2-1,4-1.3,6.1-.3,2.1-.5,4.4-.5,6.8,0,4.1.6,7.6,1.8,10.6s3.5,6.2,6.9,9.6c3.7.7,6.4-.6,8.1-3.7,1.7-3.1,3.3-5.9,4.7-8.5,1.5-2.6,3.5-3.9,6.1-3.9s4,.7,6.1,2c7.8,8,12.5,19.9,14.1,35.6.8,13.8,1.6,27.6,2.4,41.3,0,18.6-2.4,32-7.3,40.4-4.9,8.4-11.5,14-19.9,17-3.9,0-10,.1-18.4.4-8.4.2-14.6.4-18.7.4-9.7,0-17.9-1.5-24.5-4.4s-11.9-8.5-15.8-16.7c-.6-4-1-8.5-1-13.3,0-10,3.5-26.2,10.4-48.7,7-22.4,10.4-38.4,10.4-47.9s-3.1-13.4-9.2-24.7c-6.1-11.3-9.2-19.5-9.2-24.5s1.1-7.1,3.4-10.1c2.3-3,6-5.6,11.2-7.9,4.5-1.1,8.9-2,13-2.7,4.1-.6,8.3-1,12.5-1s9.3.5,13.5,1.6c4.1,1.1,8.2,2.8,12.3,5.2,1.5,1.3,2.2,2.5,2.3,3.5,0,1.1-.1,2.2-.2,3.1Z"></path>
      <path class="cls-2" d="M207.5,21.5c9.4,10.5,16.5,24,21.4,40.4s7.3,41.7,7.3,75.8v23.5c-1.5,11-4.7,20.9-9.6,29.7s-11.9,15.4-20.7,19.8c-7.8,3.2-16.3,4.9-25.7,4.9s-12.1-.7-17-2.1c-4.9-1.4-10.6-5.1-17.2-11.2-6.6-6.1-12.1-15.7-16.3-29-4.2-13.3-6.3-27.8-6.3-43.7s.3-13.1.8-20.3c.6-7.2,1.8-17.3,3.8-30.2,6.6-22.3,12.5-38.4,17.5-48.2s11.4-15.3,19.2-16.6c7.8-1.3,12.7-2,14.7-2.2s3.9-.2,5.7-.2c4.7,0,8.8.7,12.4,2.1,3.3,1.5,6.7,3.9,10,7.5ZM179.6,40.2c-2.9,0-5.3,1.3-7,4-1.8,2.7-3,5.3-3.6,7.9-.6,2.6-1.1,5.4-1.2,8.5-.2,3.1-.2,5.4-.2,7v10.9c0,2.4,1.2,4.3,3.5,5.7,2.3,1.4,5.2,2.1,8.6,2.1s6-.7,8.4-2.1c2.3-1.4,3.5-3.3,3.5-5.7v-9.9c0-3.6-.1-6.5-.4-8.7-.2-2.3-.8-5.1-1.8-8.4s-2.1-6-3.4-8.1c-1.4-2.2-3.5-3.2-6.4-3.2Z"></path>
      <path class="cls-2" d="M334.1,31.9c1.5,2.8,2.2,5.6,2.2,8.5s-.4,4.7-1.1,6.7-2.2,4.6-4.4,7.6c-2.2,3.1-6,4.6-11.5,4.6s-5.7-.6-8.3-1.9c-1.6-1.5-3.4-6.2-5.5-14.2-2-8-5.5-12-10.3-12s-2.6.2-4.4.7c-2.9,1.1-5.3,3-7.2,5.5-1.9,2.5-2.8,5.1-2.8,7.9s.6,3.2,1.7,4.9c1.1,1.6,10.3,7.6,27.4,17.8,17.1,10.3,27.3,19.6,30.6,28,6.1,11.6,9.2,25.2,9.2,40.8s-1.5,21.5-4.4,31.4-7.2,19-12.9,27.1c-4.7,5-10.4,8.9-17,11.5-6.6,2.7-13.5,4-20.6,4s-12.1-.8-17.5-2.4c-8.3-3.3-14.9-8.7-20-16.4s-8.7-16.3-10.8-25.9c0-2.4-.1-6.8-.2-12.9-.2-6.2-.2-11-.2-14.4,0-11.4.6-20.2,1.9-26.4,1.3-6.2,3.1-11.6,5.3-16.1,1.3-.7,2.7-1,4.4-1s5,1.3,9.6,4,7.6,4,9.1,4,3.4-.5,4.9-1.4,2.8-2.6,4.1-5.1c-1-6.9-6.2-15-15.7-24.1s-14.2-17.8-14.2-25.8v-3c0-5.1,1.5-9.9,4.6-14.2,3.1-4.4,7.2-8.2,12.4-11.5,7.3-3.3,15.3-4.9,24-4.9s15.4,1.5,22,4.6c6.8,3,11.9,7.7,15.6,14Z"></path>
      <path class="cls-2" d="M514.2,25.5c1,1.1,2.5,3.6,4.5,7.7,2,4,3,8.4,3,12.9s-.3,4.6-1,6.4c-1.6,2.1-4.1,3.2-7.5,3.2s-3.1-.2-4.4-.6c-1.5-.8-4.4-3.4-8.7-7.8-4.4-4.4-8.1-6.6-11.2-6.6s-2.2.3-3.6,1c-1.5.6-2.4,1.3-2.8,2.1-.4.7-.7,1.6-.8,2.5.8,3.7,4.4,6.2,10.8,7.4,6.4,1.2,9.6,4.2,9.6,9.1s-.2,6.9-.7,8.5-2,3.1-4.6,4.4c-4.2,0-7.6.6-10.3,1.8-2.7,1.2-4.2,3.6-4.7,7.2,0,9.4,2.5,19.4,7.6,30.1s10.2,21.3,15.4,31.8,7.8,20.3,7.8,29.4-.8,10.7-2.4,16c-4.4,6.1-10,10.5-17,13s-14.9,3.8-23.8,3.8-8.5-.2-13.3-.7c-4.9-.5-8.6-.8-11.2-1-5.5-1.6-10.4-3.7-14.7-6.3s-7.4-6-9.3-10.2c-1.5-5.8-2.2-11.5-2.2-17,0-9.9,2.4-20.6,7.2-32.3,4.8-11.6,9.6-23.4,14.6-35.3,4.9-11.9,7.4-22.7,7.4-32.4-3.6-12.8-7-25.6-10.4-38.6,0-3.6.8-6.7,2.3-9.5,1.5-2.7,3.6-4.8,6.1-6.2,2.5-1.4,6.2-2.4,11-3,4.9-.6,10.5-1,17-1s17,.8,24.3,2.3c7,1.4,12.4,4.1,16,7.9Z"></path>
      <path class="cls-2" d="M615.6,20c2.7,3.1,5,6.5,6.7,10.2,1.7,3.7,2.5,7.3,2.5,10.7s-.8,6.5-2.4,9.2c-1.6,1.6-3.7,2.4-6.3,2.4s-5.1-1-7.5-2.9c-2.4-2.4-4.8-4.9-7-7.5-3.4-3.1-6.5-4.6-9.2-4.6s-2.8.4-4.6,1.3c-1.8.9-2.7,2.5-2.7,5s.5,3.9,1.6,4.9,4.6,2,10.8,3.2c6.1,1.1,9.2,3.6,9.2,7.3.2,2.4.2,4.3.2,5.6,0,2.1-.2,3.9-.5,5.3-.3,1.5-1.7,2.4-4.1,2.9h-3.6c-2.8,0-5.1.4-7,1.3s-3.4,2.2-4.4,3.8c-1,1.7-1.5,3.3-1.5,4.9,0,5.3,1.4,8.2,4.2,8.6,2.8.5,4.9.7,6.2.7,3.4,0,7.4-2.8,12.1-8.5,4.7-5.7,7.9-8.5,9.7-8.5s4,.8,7,2.5c3.1,1.7,5.3,5.8,6.8,12.3,1.5,10.4,3,20.6,4.6,30.8v11.4c0,3.9,0,7.8.2,11.6,0,18.1-.9,30.9-2.7,38.5-1.8,7.5-4.5,13.1-8.1,16.6-3.6,3.6-8.9,6.2-15.7,7.9s-14.5,2.5-23.1,2.5-16.6-.8-24.6-2.3-14.2-3.6-18.6-6.2c-4.4-2.6-7.8-5.6-10.3-9s-3.8-7.6-3.8-12.6c0-9.9,2-20.4,5.9-31.7,4-11.2,8-22.6,12-34.1s6.1-21.8,6.1-30.8-.3-8.6-1-12.3c-.6-3.6-1.9-7.9-3.9-12.7-2.3-4.2-4.6-8.7-6.9-13.6-2.3-4.9-3.5-9.4-3.5-13.6s.2-3.9.7-5.8c3.9-4.5,8.7-7.6,14.4-9.2s12.5-2.4,20.3-2.4,10.6.2,15.3.5,10.4.6,17.2,1c2.3.2,3.9.6,4.9,1.3,1.2.8,2.6,2.2,4.4,4.1Z"></path>
      <path class="cls-2" d="M716.3,22.5c-.8,3.3-3.1,9.3-6.8,18.2s-5.9,14.3-6.4,16.2c-.6,2-1,4-1.3,6.1-.3,2.1-.5,4.4-.5,6.8,0,4.1.6,7.6,1.8,10.6s3.5,6.2,6.9,9.6c3.7.7,6.4-.6,8.1-3.7,1.7-3.1,3.3-5.9,4.7-8.5s3.5-3.9,6.1-3.9,4,.7,6.1,2c7.8,8,12.5,19.9,14.1,35.6.8,13.8,1.6,27.6,2.4,41.3,0,18.6-2.4,32-7.3,40.4-4.9,8.4-11.5,14-19.9,17-3.9,0-10,.1-18.4.4-8.4.2-14.6.4-18.7.4-9.7,0-17.9-1.5-24.5-4.4s-11.9-8.5-15.8-16.7c-.6-4-1-8.5-1-13.3,0-10,3.5-26.2,10.4-48.7,7-22.4,10.4-38.4,10.4-47.9s-3.1-13.4-9.2-24.7c-6.1-11.3-9.2-19.5-9.2-24.5s1.1-7.1,3.4-10.1c2.3-3,6-5.6,11.2-7.9,4.5-1.1,8.9-2,13-2.7,4.1-.6,8.3-1,12.5-1s9.3.5,13.5,1.6c4.1,1.1,8.2,2.8,12.3,5.2,1.5,1.3,2.2,2.5,2.3,3.5,0,1.1,0,2.2-.2,3.1Z"></path>
      <path class="cls-2" d="M832,18.8c1.1,2.1,2,4.5,2.7,7,.6,2.6,1,4.9,1,6.8,0,5.3-2.8,13.8-8.4,25.2-5.6,11.5-8.4,19.6-8.4,24.3s.3,4.8,1,7.2c.6,2.3,4.2,13.1,10.8,32.4,6.6,19.3,9.8,34.7,9.8,46.3s-1.5,17.1-4.6,25.7c-2.8,5.2-6.9,9-12.5,11.5s-11.9,3.8-19,3.8-19.1-2.1-27.8-6.4c-8.7-4.3-14.1-9.7-16.4-16.4-1.1-5-1.7-10.3-1.7-15.8,0-10.8,3.8-26,11.4-45.6,7.6-19.6,11.4-34.4,11.4-44.4s-.3-7.2-1-10.9c-.6-3.7-1.5-7.1-2.7-10.1-1.1-3-3.2-7.4-6.1-13.2-2.9-5.8-4.4-10.7-4.4-14.6s.8-6.1,2.5-9.5,5.4-6.1,11.2-8c5.7-1.9,12.5-2.9,20.3-2.9s14.2.7,20.1,2.2c6.1,1.5,9.7,3.3,10.8,5.4Z"></path>
      <path class="cls-2" d="M938.1,23.6c1,2.2,1.5,4.3,1.5,6.1,0,3.9-1.9,7.9-5.7,11.8-3.8,3.9-7.4,7.6-10.8,11.1-1.8,2.4-5.9,6.4-12.5,12.2s-10.6,9.6-12.1,11.6-2.8,4-3.6,6c-.9,2.1-1.3,4-1.3,5.9,0,4.6,2.2,6.9,6.6,6.9s2.6-.5,4-1.5,3.5-4.4,6.4-10.4,6-9,9.2-9,3.9.7,6.3,2.2l4.1,5.3c0,8.9,2.1,24.8,6.2,47.7s6.2,39.2,6.2,48.7-.6,13.3-1.7,19.5c-2.9,5.8-7.2,10.1-12.9,13.1-1.9-.2-3.6-.3-5-.4-1.4-.1-2.5-.1-3.5-.1-2.4,0-7.6.3-15.7.8-8,.6-14,.8-18.1.8-9.1,0-16.6-1.2-22.7-3.5-6.1-2.3-10.9-6.9-14.4-13.7-.6-3.2-1.1-7.1-1.5-11.5-.3-4.4-.5-8.8-.5-13,0-12.1,1.4-27.2,4.1-45.3,2.7-18,4.4-29.8,4.9-35.3,3.4-6,11.2-15.3,23.4-27.9s18.6-19.3,19-20.1c.2-1.6-.4-3.2-1.8-4.6-1.4-1.5-2.9-2.3-4.5-2.7-5.7,0-11.2,4-16.5,11.9-5.3,7.9-10.2,11.9-14.6,11.9s-4.8-.7-8-2.2c-1.9-7.1-3.3-12.3-4-15.7-.7-3.3-1.1-7.1-1.1-11.3s.6-8.2,1.9-11.4c6.3-2.1,12.9-3.7,19.7-4.7,6.8-1.1,14.2-1.6,22.1-1.6,14.7,0,28.5,2.1,41.5,6.1l5.4,6.3Z"></path>
      <path class="cls-2" d="M1117.7,25.5c1,1.1,2.5,3.6,4.5,7.7,2,4,3,8.3,3,12.9s-.3,4.6-1,6.4c-1.6,2.1-4.1,3.2-7.5,3.2s-3.1-.2-4.4-.6c-1.5-.8-4.4-3.4-8.7-7.8-4.4-4.4-8.1-6.6-11.1-6.6s-2.2.3-3.6,1c-1.5.6-2.4,1.3-2.8,2.1-.4.7-.7,1.6-.8,2.5.8,3.7,4.4,6.2,10.8,7.4s9.6,4.2,9.6,9.1-.2,6.9-.7,8.5-2,3.1-4.6,4.4c-4.2,0-7.6.6-10.3,1.8-2.7,1.2-4.2,3.6-4.7,7.1,0,9.4,2.5,19.4,7.6,30,5.1,10.7,10.2,21.2,15.4,31.7,5.2,10.5,7.8,20.3,7.8,29.3s-.8,10.7-2.4,16c-4.4,6.1-10,10.5-17,13-6.9,2.5-14.9,3.8-23.7,3.8s-8.5-.2-13.3-.7-8.6-.8-11.1-1c-5.5-1.6-10.4-3.7-14.7-6.3-4.3-2.6-7.4-6-9.3-10.2-1.5-5.8-2.2-11.5-2.2-17,0-9.8,2.4-20.6,7.1-32.2,4.8-11.6,9.6-23.4,14.5-35.2,4.9-11.9,7.4-22.6,7.4-32.3-3.6-12.8-7-25.6-10.4-38.5,0-3.5.8-6.7,2.3-9.4s3.5-4.8,6.1-6.2c2.5-1.4,6.2-2.4,11-3s10.5-1,17-1,17,.8,24.2,2.3c7,1.4,12.4,4,16,7.8Z"></path>
      <path class="cls-2" d="M1203.9,22.6c-.8,3.3-3.1,9.3-6.8,18.2-3.7,8.9-5.9,14.3-6.4,16.2-.6,2-1,4-1.3,6.1s-.5,4.4-.5,6.8c0,4.1.6,7.6,1.8,10.6,1.2,3,3.5,6.2,6.9,9.6,3.7.7,6.4-.6,8.1-3.7s3.3-5.9,4.7-8.5,3.5-3.9,6.1-3.9,4,.7,6.1,1.9c7.8,8,12.4,19.8,14,35.6.8,13.8,1.6,27.5,2.4,41.2,0,18.5-2.4,32-7.3,40.3-4.8,8.4-11.5,14-19.9,16.9-3.9,0-10,.1-18.4.4-8.4.2-14.6.4-18.7.4-9.7,0-17.8-1.5-24.5-4.4-6.6-2.9-11.9-8.5-15.7-16.7-.6-4-1-8.5-1-13.3,0-10,3.5-26.2,10.4-48.6s10.4-38.3,10.4-47.8-3.1-13.4-9.2-24.7-9.2-19.5-9.2-24.5,1.1-7.1,3.4-10.1,6-5.6,11.1-7.9c4.5-1.1,8.8-2,13-2.7,4.1-.6,8.3-1,12.5-1s9.3.5,13.4,1.6,8.2,2.8,12.2,5.2c1.5,1.3,2.2,2.5,2.3,3.5.3,1.3.2,2.3,0,3.3Z"></path>
      <path class="cls-2" d="M1332.7,20.1c2.7,3.1,5,6.5,6.7,10.2s2.5,7.3,2.5,10.7-.8,6.5-2.4,9.2c-1.6,1.6-3.7,2.4-6.3,2.4s-5.1-1-7.5-2.9c-2.4-2.4-4.8-4.9-7-7.5-3.4-3.1-6.5-4.6-9.2-4.6s-2.8.4-4.6,1.3c-1.8.9-2.7,2.5-2.7,5s.5,3.9,1.6,4.8c1,1,4.6,2,10.8,3.1,6.1,1.1,9.2,3.6,9.2,7.3.2,2.4.2,4.3.2,5.6,0,2.1-.2,3.9-.5,5.3-.3,1.5-1.7,2.4-4.1,2.9h-3.6c-2.7,0-5.1.4-7,1.3s-3.4,2.2-4.4,3.8c-1,1.7-1.5,3.3-1.5,4.9,0,5.3,1.4,8.1,4.2,8.6,2.8.5,4.9.7,6.2.7,3.4,0,7.4-2.8,12.1-8.5s7.9-8.5,9.7-8.5,4,.8,7,2.5c3.1,1.7,5.3,5.8,6.8,12.2,1.5,10.3,3,20.6,4.6,30.8v11.4c0,3.9,0,7.8.2,11.6,0,18.1-.9,30.9-2.7,38.4-1.8,7.5-4.5,13-8.1,16.6s-8.8,6.2-15.6,7.9c-6.8,1.7-14.5,2.5-23,2.5s-16.6-.8-24.6-2.3-14.2-3.6-18.5-6.2c-4.4-2.6-7.8-5.6-10.3-9s-3.8-7.6-3.8-12.6c0-9.8,2-20.4,5.9-31.6,4-11.2,8-22.6,12-34,4-11.5,6.1-21.7,6.1-30.8s-.3-8.6-1-12.2c-.6-3.6-1.9-7.9-3.9-12.7-2.3-4.2-4.6-8.7-6.9-13.6-2.3-4.8-3.5-9.4-3.5-13.6s.2-3.9.7-5.8c3.9-4.5,8.7-7.6,14.4-9.2,5.7-1.6,12.5-2.4,20.2-2.4s10.6.2,15.3.5c4.7.3,10.4.6,17.2,1,2.3.2,3.9.6,4.8,1.3,1.2.9,2.6,2.3,4.3,4.2Z"></path>
      <path class="cls-2" d="M1493.1,19.9c3.4,3.3,5.1,6.9,5.1,11s-1.4,7.4-4.2,13.3c-2.8,5.9-4.4,10.3-4.7,13-1.5,6.2-2.2,11.9-2.2,17.1,0,10.1,2.5,21,7.5,32.8s9.9,23.1,14.8,34c5.2,13.3,7.8,25.9,7.8,37.8s-1,12-2.9,16.1-5.2,7-9.7,8.9-9.4,3.4-14.7,4.5c-5.2,1.1-10.2,1.7-14.9,1.7s-9.3-.5-13-1.6c-3.6-1.1-6.9-3.2-9.7-6.5-2.8-3.3-5-7.5-6.5-12.7s-2.3-10.8-2.3-16.6,1.6-19.3,4.8-36.4c3.2-17.1,4.8-28.5,4.8-34.2s-.9-8.6-2.7-12.2c-1.8-3.6-4.6-5.5-8.5-5.9-3.7,0-6.8.8-9.3,2.3s-4,3.7-4.4,6.4c-.4,2.8-.6,4.9-.7,6.3,0,1.5,0,2.7,0,3.6,0,7.8,1.7,19.1,5,33.9s5,25.6,5,32.4-.5,10.8-1.6,15.3-2.7,9.1-5.1,13.7c-2.3,4.6-6.3,7.8-11.7,9.6-5.5,1.8-11.5,2.7-18.2,2.7s-7.3-.3-10.8-.8c-3.5-.6-6.6-1.6-9.3-3-2.7-1.5-5.3-3.5-7.6-6.2-2.3-2.7-4.4-6-6.2-10.1-1.1-5.2-1.7-10.4-1.7-15.8,0-10.2,2.6-21,7.9-32.5,5.2-11.5,10.6-23.1,16-34.8s8.1-22.5,8.1-32.4-.4-9.7-1.2-13.2c-.8-3.5-2.7-8.6-5.8-15.3-3.1-6.7-4.6-11.5-4.6-14.4s.5-4.4,1.5-6.8c3.4-4,7.9-6.7,13.4-8.1,5.6-1.4,12.1-2.1,19.5-2.1h9.2c4.8,0,9.6-.1,14.3-.2,4.7-.2,9.4-.3,14-.5,7.6,0,14,.4,19.3,1.1,5.2.5,10.6,2.2,16.3,4.8ZM1440.8,37.8c-3.4,1-5.7,2.9-7,5.7s-1.9,6.3-1.9,10.3c1.1.8,2.3,1.2,3.6,1.2s2.7-.2,4.7-.7,3.3-.7,3.8-.7c2.1,0,3.7.5,4.8,1.5,1.5-.5,2.2-1.9,2.2-4.1v-6.1c-1.8-5.2-5.2-7.6-10.2-7.1Z"></path>
    </g>
  </g>
  <path class="cls-4" d="M750.4,324.8c-2.7-.1-7.2-1.2-9.7-7.4-2.7,5.4-7.2,6-9.2,6h-16.1c-2.7,0-5.2-1.1-7.2-3-2-2-3.2-4.6-3.2-7.3s0-1.3.2-2v-.2c0,0,13.3-57.4,13.3-57.4,1.1-4.9,5.1-8.1,10.1-8.1h25.1c5,0,8.9,3.2,10.1,8l13.1,60.1v1.1c0,3.6-1.5,5.9-2.7,7.2-1.9,2-4.5,3.1-7.5,3.1,0,.2-16.3-.1-16.3-.1Z"></path>
  <path class="cls-4" d="M779.9,325.1c-5.9,0-10.2-4.3-10.2-10.3v-33.8h-4.6c-6,0-10.3-4.3-10.3-10.3v-11.4c0-6,4.3-10.3,10.3-10.3h43.2c6,0,10.4,4.3,10.4,10.3v11.4c0,6-4.4,10.3-10.4,10.3h-2.8l.3,33.4c0,5.8-4.2,10.2-9.9,10.4l-16,.3Z"></path>
  <g>
    <path class="cls-2" d="M770.1,314.8c0,1.6-.8,2.3-2.3,2.3l-16-.3c-1.5,0-2.6-1.7-3.2-5.1-.3-2.3-.5-4.6-.8-6.9h-11.1c-.3,2.1-.6,4.1-.9,6.2-.6,3-1.6,4.5-3,4.5h-16.1c-.6,0-1.1-.2-1.6-.7s-.7-1-.7-1.6v-.4l13.2-57.4c.3-1.2,1-1.8,2.3-1.8h25.1c1.2,0,2,.6,2.3,1.8l12.9,59.2q0,0,0,.2ZM744.9,288.7l-2.3-12.6-2.7,12.6h5Z"></path>
    <path class="cls-2" d="M811.8,270.6c0,1.5-.8,2.3-2.4,2.3h-10.9l.4,41.5c0,1.5-.7,2.3-2.2,2.3l-15.5.3c-1.5,0-2.3-.7-2.3-2.3v-41.8h-12.6c-1.5,0-2.3-.8-2.3-2.3v-11.4c0-1.5.8-2.3,2.3-2.3h43.2c1.6,0,2.4.8,2.4,2.3v11.4h-.1Z"></path>
  </g>
</svg>
